<?xml version="1.0" encoding="utf-8" ?><svg version="1.1" xmlns = 'http://www.w3.org/2000/svg'><defs><font id='web' horiz-adv-x="1000">
<font-face font-family="web" descent="-285" cap-height="638" units-per-em="1000" bbox="-82,-236,1031,932" x-height="453" ascent="715" />
<missing-glyph horiz-adv-x="228" d="" /><glyph horiz-adv-x="228" d="" unicode=" " />
<glyph horiz-adv-x="277" d="M 71 58 C 71 78 77 95 91 109 C 105 123 122 130 142 130 C 161 130 178 123 192 109 C 206 95 213 78 213 58 C 213 38 206 22 192 8 C 178 -6 161 -13 142 -13 C 122 -13 105 -6 91 8 C 77 22 71 38 71 58 Z M 72 638 L 208 638 L 190 187 L 89 209 L 72 638 Z" unicode="!" />
<glyph horiz-adv-x="339" d="M 135 638 L 115 383 L 55 383 L 38 638 L 135 638 Z M 301 638 L 282 383 L 223 383 L 204 638 L 301 638 Z" unicode="&#x22;" />
<glyph horiz-adv-x="396" d="M 6 198 L 6 266 L 69 266 L 94 373 L 34 373 L 34 441 L 110 441 L 155 638 L 231 638 L 185 441 L 268 441 L 313 638 L 389 638 L 343 441 L 390 441 L 390 373 L 327 373 L 302 266 L 362 266 L 362 198 L 286 198 L 241 0 L 165 0 L 211 198 L 128 198 L 83 0 L 7 0 L 53 198 L 6 198 Z M 252 373 L 169 373 L 144 266 L 227 266 L 252 373 Z" unicode="#" />
<glyph horiz-adv-x="478" d="M 198 -13 C 168 -11 139 -6 111 1 C 83 9 58 21 36 36 L 60 136 C 78 122 100 111 126 101 C 151 91 179 86 211 86 C 246 86 274 94 294 111 C 314 127 324 148 324 174 C 324 196 315 216 297 233 C 279 249 253 263 220 274 C 162 292 117 318 85 351 C 53 384 38 423 38 468 C 38 492 42 515 50 535 C 58 555 69 573 83 589 C 97 604 114 617 134 627 C 153 637 174 644 198 648 L 198 737 L 264 737 L 264 652 C 314 650 358 638 398 618 L 376 521 C 358 530 339 538 318 544 C 297 550 275 553 252 553 C 221 553 197 545 179 530 C 161 515 153 497 153 476 C 153 456 161 439 178 425 C 195 411 219 399 249 389 C 307 369 354 342 389 308 C 424 274 442 232 442 182 C 442 124 425 80 392 48 C 358 16 316 -3 264 -11 L 264 -97 L 198 -97 L 198 -13 Z" unicode="$" />
<glyph horiz-adv-x="703" d="M 31 507 C 31 528 34 547 42 565 C 49 583 59 598 73 611 C 86 624 101 634 119 641 C 137 648 156 652 178 652 C 198 652 217 648 235 641 C 253 634 268 624 282 611 C 295 598 305 583 313 565 C 321 547 325 528 325 507 C 325 485 321 465 313 447 C 305 429 295 413 282 400 C 269 387 254 377 236 370 C 218 363 198 360 178 360 C 157 360 138 363 120 370 C 102 377 86 387 73 400 C 60 413 50 429 42 447 C 34 465 31 485 31 507 Z M 239 507 C 239 527 233 542 221 554 C 209 566 194 572 178 572 C 161 572 147 566 135 554 C 123 542 117 527 117 507 C 117 487 122 470 134 458 C 146 445 160 439 178 439 C 194 439 209 445 221 457 C 233 469 239 486 239 507 Z M 377 134 C 377 155 380 174 388 192 C 395 210 405 225 419 238 C 432 251 447 261 465 268 C 483 275 502 279 524 279 C 544 279 563 275 581 268 C 599 261 614 251 628 238 C 641 225 651 210 659 192 C 667 174 671 155 671 134 C 671 112 667 92 659 74 C 651 56 641 40 628 27 C 615 14 600 4 582 -2 C 564 -9 544 -13 524 -13 C 503 -13 484 -9 466 -2 C 448 4 432 14 419 27 C 406 40 396 56 388 74 C 380 92 377 112 377 134 Z M 585 134 C 585 154 579 169 567 181 C 555 193 540 199 524 199 C 507 199 493 193 481 181 C 469 169 463 154 463 134 C 463 114 468 97 480 85 C 492 72 506 66 524 66 C 540 66 555 72 567 84 C 579 96 585 113 585 134 Z M 582 660 L 635 617 L 119 -21 L 67 22 L 582 660 Z" unicode="%" />
<glyph horiz-adv-x="645" d="M 36 164 C 36 203 45 236 63 263 C 81 290 109 315 147 337 C 123 362 106 387 94 411 C 82 435 76 459 76 485 C 76 510 80 533 90 554 C 100 574 113 592 129 606 C 145 620 163 632 185 640 C 207 648 230 652 254 652 C 278 652 301 648 324 640 C 346 632 366 620 384 606 C 402 592 416 574 426 554 C 436 533 442 510 442 484 C 442 416 403 360 326 314 L 443 197 C 459 217 473 238 485 261 C 497 283 507 306 515 328 L 593 249 C 575 201 550 158 520 119 L 639 0 L 484 0 L 440 44 C 413 26 384 12 353 2 C 321 -8 287 -13 249 -13 C 217 -13 187 -8 161 0 C 135 9 112 22 94 38 C 76 54 61 72 51 94 C 41 115 36 138 36 164 Z M 331 483 C 331 501 324 518 311 533 C 298 548 280 556 256 556 C 234 556 217 548 205 534 C 192 520 186 504 186 488 C 186 470 191 454 203 439 C 214 424 229 407 249 389 C 303 419 331 451 331 483 Z M 221 263 C 198 251 181 237 170 223 C 158 208 153 190 153 169 C 153 145 162 125 181 109 C 200 93 224 86 252 86 C 272 86 291 89 309 95 C 327 101 345 109 363 121 L 221 263 Z" unicode="&#x26;" />
<glyph horiz-adv-x="172" d="M 135 638 L 115 383 L 55 383 L 38 638 L 135 638 Z" unicode="'" />
<glyph horiz-adv-x="270" d="M 138 -206 C 122 -173 107 -140 95 -107 C 83 -73 72 -38 63 -2 C 54 33 47 72 43 113 C 38 153 36 197 36 245 C 36 339 45 425 64 501 C 83 577 110 649 144 717 L 264 693 C 230 629 204 559 184 481 C 164 403 154 322 154 239 C 154 152 162 71 179 -4 C 196 -79 223 -155 260 -232 L 138 -206 Z" unicode="(" />
<glyph horiz-adv-x="270" d="M 6 -209 C 39 -145 66 -75 86 3 C 106 81 116 161 116 244 C 116 287 113 329 109 369 C 105 409 98 448 90 487 C 81 525 70 563 57 601 C 43 638 28 676 10 715 L 131 688 C 147 654 161 621 174 588 C 186 555 197 520 206 484 C 215 448 222 409 227 369 C 231 328 234 284 234 237 C 234 142 224 57 205 -19 C 186 -95 159 -167 125 -235 L 6 -209 Z" unicode=")" />
<glyph horiz-adv-x="429" d="M 146 324 L 60 364 L 154 478 L 30 510 L 41 603 L 175 549 L 167 676 L 262 697 L 253 550 L 369 599 L 419 516 L 277 478 L 358 379 L 294 308 L 214 432 L 146 324 Z" unicode="*" />
<glyph horiz-adv-x="453" d="M 36 229 L 36 324 L 175 324 L 175 457 L 279 457 L 279 324 L 417 324 L 417 229 L 279 229 L 279 96 L 175 96 L 175 229 L 36 229 Z" unicode="+" />
<glyph horiz-adv-x="210" d="M 33 -133 C 47 -115 60 -96 70 -74 C 80 -52 87 -32 91 -13 C 74 -9 60 -1 49 12 C 38 25 33 41 33 59 C 33 78 40 94 54 108 C 68 122 85 129 105 129 C 124 129 141 122 155 108 C 169 94 177 77 177 58 C 177 42 173 25 167 7 C 161 -10 152 -29 142 -47 C 132 -65 120 -82 108 -99 C 96 -115 84 -129 72 -140 L 33 -133 Z" unicode="," />
<glyph horiz-adv-x="329" d="M 293 324 L 293 229 L 36 229 L 36 324 L 293 324 Z" unicode="-" />
<glyph horiz-adv-x="210" d="M 34 58 C 34 78 40 95 54 109 C 68 123 85 130 105 130 C 124 130 141 123 155 109 C 169 95 176 78 176 58 C 176 38 169 22 155 8 C 141 -6 124 -13 105 -13 C 85 -13 68 -6 54 8 C 40 22 34 38 34 58 Z" unicode="." />
<glyph horiz-adv-x="386" d="M 299 719 L 388 683 L 61 -163 L -28 -128 L 299 719 Z" unicode="/" />
<glyph horiz-adv-x="519" d="M 483 320 C 483 262 477 213 465 171 C 453 129 436 95 416 68 C 395 40 371 20 345 7 C 318 -6 290 -13 260 -13 C 230 -13 201 -6 174 7 C 146 20 122 40 102 68 C 82 95 66 129 54 171 C 42 213 36 262 36 320 C 36 376 42 425 54 467 C 66 509 82 543 102 571 C 122 598 146 618 174 632 C 201 645 230 652 260 652 C 290 652 318 645 345 632 C 371 618 395 598 416 571 C 436 543 453 509 465 467 C 477 425 483 376 483 320 Z M 365 320 C 365 360 362 394 356 423 C 350 451 343 475 333 494 C 323 512 312 526 300 535 C 287 544 274 549 260 549 C 246 549 232 544 220 535 C 207 526 196 512 186 494 C 176 475 169 451 163 423 C 157 394 155 360 155 320 C 155 280 157 245 163 216 C 169 187 176 163 186 145 C 196 126 207 112 220 104 C 232 95 246 91 260 91 C 274 91 287 95 300 104 C 312 112 323 126 333 145 C 343 163 350 187 356 216 C 362 245 365 280 365 320 Z" unicode="0" />
<glyph horiz-adv-x="303" d="M 127 498 C 119 490 108 483 92 477 C 76 471 61 467 48 465 L 4 548 C 34 556 60 569 83 586 C 106 603 121 620 127 638 L 245 638 L 245 0 L 127 0 L 127 498 Z" unicode="1" />
<glyph horiz-adv-x="466" d="M 430 0 L 33 0 L 33 29 C 66 67 97 106 127 145 C 157 183 183 220 205 256 C 227 291 244 324 257 355 C 269 386 276 414 276 439 C 276 475 267 502 249 520 C 231 538 208 548 180 548 C 158 548 138 545 118 539 C 98 533 79 524 63 513 L 39 613 C 58 625 80 634 105 641 C 130 648 158 652 189 652 C 219 652 246 647 272 639 C 297 630 319 617 337 599 C 355 581 370 560 380 534 C 390 508 396 479 396 445 C 396 417 390 388 380 359 C 370 329 356 300 339 271 C 322 241 303 212 281 183 C 259 154 238 126 216 100 L 430 100 L 430 0 Z" unicode="2" />
<glyph horiz-adv-x="442" d="M 40 121 C 57 111 75 103 95 98 C 115 93 134 90 154 90 C 170 90 185 92 200 96 C 215 100 228 107 240 116 C 252 125 261 136 269 150 C 276 163 280 179 280 197 C 280 211 277 224 272 236 C 266 248 259 259 249 269 C 239 279 228 286 215 292 C 202 298 188 301 173 301 C 169 301 165 300 159 300 C 153 300 147 299 141 298 L 133 393 C 164 399 189 409 209 425 C 228 440 238 459 239 481 C 239 499 232 515 218 528 C 204 540 185 547 161 547 C 143 547 128 546 114 543 C 100 539 85 534 70 527 L 61 627 C 78 635 96 641 115 645 C 134 649 156 651 180 651 C 208 650 234 646 257 638 C 279 630 298 619 314 605 C 329 591 341 575 349 557 C 357 538 361 518 361 496 C 360 463 351 436 334 414 C 317 392 297 377 274 370 C 290 366 307 359 323 349 C 339 339 353 326 366 311 C 378 295 388 277 396 257 C 403 237 406 214 406 190 C 405 160 399 133 389 109 C 379 84 363 63 343 45 C 323 27 298 13 268 3 C 238 -6 203 -11 164 -11 C 143 -11 122 -8 102 -4 C 82 0 64 5 49 13 L 40 121 Z" unicode="3" />
<glyph horiz-adv-x="498" d="M 462 160 L 391 160 L 391 0 L 275 0 L 275 160 L 26 160 L 6 251 L 298 638 L 391 638 L 391 258 L 462 258 L 462 160 Z M 277 459 L 275 461 C 267 448 260 436 252 425 C 244 413 235 402 227 391 L 125 257 L 275 257 L 275 392 C 275 402 275 413 275 424 C 275 435 276 447 277 459 Z" unicode="4" />
<glyph horiz-adv-x="463" d="M 427 200 C 427 170 422 142 412 116 C 402 90 387 67 367 48 C 347 29 322 14 293 3 C 264 -7 231 -13 193 -13 C 169 -13 146 -10 123 -6 C 100 -1 82 4 69 12 L 57 123 C 95 100 136 89 182 89 C 198 89 214 91 229 96 C 244 101 257 108 268 118 C 279 128 288 139 294 153 C 300 166 304 181 304 198 C 304 215 300 231 294 245 C 288 259 279 271 268 281 C 257 291 244 298 229 304 C 214 309 198 312 182 312 C 158 312 138 310 122 307 C 105 304 89 300 75 295 L 85 638 L 384 638 L 362 538 L 199 538 L 195 409 C 198 409 202 410 207 410 C 212 410 216 411 220 411 C 246 411 272 406 297 396 C 322 386 344 373 364 355 C 383 337 398 315 410 289 C 421 263 427 233 427 200 Z" unicode="5" />
<glyph horiz-adv-x="512" d="M 481 201 C 481 169 475 140 464 114 C 452 88 437 65 417 46 C 397 27 374 12 347 2 C 320 -7 291 -13 260 -13 C 230 -13 201 -7 174 2 C 146 12 122 28 102 48 C 82 68 66 92 54 122 C 42 151 36 185 36 223 C 36 265 43 308 57 351 C 71 393 90 434 116 472 C 141 510 171 546 205 578 C 239 610 277 638 319 661 L 438 617 C 381 587 332 553 290 514 C 248 475 216 431 193 383 C 204 391 217 397 231 402 C 245 406 261 409 279 409 C 306 409 332 404 356 394 C 380 384 402 369 421 351 C 439 333 454 311 465 285 C 475 259 481 231 481 201 Z M 366 195 C 366 227 356 253 337 274 C 317 294 292 305 262 305 C 240 305 218 299 197 288 C 176 277 162 257 154 229 C 153 224 153 219 153 215 C 153 211 153 206 153 202 C 153 185 156 170 162 156 C 168 142 176 129 186 119 C 196 109 207 101 221 95 C 234 89 248 86 263 86 C 277 86 290 88 302 93 C 314 98 325 105 335 115 C 344 125 351 136 357 150 C 363 163 366 178 366 195 Z" unicode="6" />
<glyph horiz-adv-x="456" d="M 441 638 L 173 0 L 48 0 L 278 538 L 6 538 L 6 638 L 441 638 Z" unicode="7" />
<glyph horiz-adv-x="517" d="M 481 181 C 481 151 475 124 464 100 C 452 76 437 55 417 39 C 397 22 373 9 346 0 C 318 -8 289 -13 258 -13 C 226 -13 197 -8 170 0 C 143 9 120 22 100 39 C 80 55 64 76 53 100 C 41 124 36 151 36 181 C 36 203 39 223 47 241 C 55 259 64 276 76 290 C 88 304 100 315 114 325 C 128 334 141 341 153 346 C 141 350 130 357 119 366 C 108 375 98 385 90 397 C 81 409 74 422 69 437 C 63 451 61 467 61 484 C 61 508 65 531 75 551 C 85 571 98 589 116 604 C 133 619 154 631 178 639 C 202 647 228 652 257 652 C 285 652 312 647 336 639 C 360 631 380 619 398 605 C 415 590 429 572 439 551 C 449 530 454 507 454 483 C 454 467 451 451 446 437 C 440 423 433 410 425 398 C 417 386 407 376 396 368 C 385 359 374 352 363 348 C 375 344 387 337 401 327 C 415 317 427 305 439 291 C 451 277 461 260 469 242 C 477 223 481 203 481 181 Z M 346 480 C 346 502 337 520 321 535 C 304 549 283 557 259 557 C 235 557 215 549 198 535 C 181 520 173 502 173 480 C 173 460 181 442 198 426 C 214 410 236 398 263 391 C 289 398 309 410 324 426 C 338 442 346 460 346 480 Z M 363 183 C 363 197 359 210 352 222 C 345 234 336 244 325 254 C 314 263 302 271 289 277 C 275 283 263 288 251 292 C 239 288 226 283 214 277 C 202 271 191 263 181 254 C 171 244 162 234 156 222 C 150 210 147 197 147 183 C 147 169 150 156 156 144 C 162 132 170 121 180 113 C 190 105 201 98 214 93 C 227 88 241 86 255 86 C 269 86 283 88 296 93 C 309 98 321 105 331 113 C 341 121 348 132 354 144 C 360 156 363 169 363 183 Z" unicode="8" />
<glyph horiz-adv-x="512" d="M 476 416 C 476 373 469 330 455 288 C 441 245 421 204 396 166 C 370 128 340 92 306 60 C 271 28 233 0 193 -22 L 74 23 C 132 53 181 87 223 126 C 265 164 297 208 321 257 C 309 249 296 242 282 238 C 267 233 251 231 233 231 C 205 231 179 236 155 246 C 131 256 109 270 91 288 C 72 306 57 327 47 353 C 36 378 31 406 31 438 C 31 470 36 499 48 525 C 59 551 75 573 95 592 C 115 611 138 626 165 636 C 192 646 221 652 253 652 C 283 652 311 646 338 636 C 365 626 389 611 409 591 C 429 571 446 546 458 517 C 470 487 476 454 476 416 Z M 359 432 C 359 448 356 464 350 478 C 344 492 336 504 326 515 C 316 525 304 534 291 540 C 277 546 263 549 249 549 C 235 549 221 546 209 541 C 197 535 186 528 177 518 C 167 508 160 497 155 484 C 149 470 147 455 147 439 C 147 407 156 380 176 360 C 195 339 220 329 251 329 C 273 329 294 334 315 345 C 335 356 350 376 358 406 C 358 410 358 415 358 419 C 358 423 359 427 359 432 Z" unicode="9" />
<glyph horiz-adv-x="210" d="M 34 58 C 34 78 40 95 54 109 C 68 123 85 130 105 130 C 124 130 141 123 155 109 C 169 95 176 78 176 58 C 176 38 169 22 155 8 C 141 -6 124 -13 105 -13 C 85 -13 68 -6 54 8 C 40 22 34 38 34 58 Z M 34 394 C 34 414 40 431 54 445 C 68 459 85 466 105 466 C 124 466 141 459 155 445 C 169 431 176 414 176 394 C 176 374 169 358 155 344 C 141 330 124 323 105 323 C 85 323 68 330 54 344 C 40 358 34 374 34 394 Z" unicode=":" />
<glyph horiz-adv-x="210" d="M 33 -133 C 47 -115 60 -96 70 -74 C 80 -52 87 -32 91 -13 C 74 -9 60 -1 49 12 C 38 25 33 41 33 59 C 33 78 40 94 54 108 C 68 122 85 129 105 129 C 124 129 141 122 155 108 C 169 94 177 77 177 58 C 177 42 173 25 167 7 C 161 -10 152 -29 142 -47 C 132 -65 120 -82 108 -99 C 96 -115 84 -129 72 -140 L 33 -133 Z M 34 394 C 34 414 40 431 54 445 C 68 459 85 466 105 466 C 124 466 141 459 155 445 C 169 431 176 414 176 394 C 176 374 169 358 155 344 C 141 330 124 323 105 323 C 85 323 68 330 54 344 C 40 358 34 374 34 394 Z" unicode=";" />
<glyph horiz-adv-x="453" d="M 36 343 L 417 471 L 417 372 L 120 277 L 417 185 L 417 86 L 36 211 L 36 343 Z" unicode="&#x3C;" />
<glyph horiz-adv-x="453" d="M 417 234 L 417 139 L 36 139 L 36 234 L 417 234 Z M 417 414 L 417 319 L 36 319 L 36 414 L 417 414 Z" unicode="=" />
<glyph horiz-adv-x="453" d="M 333 277 L 36 372 L 36 471 L 417 343 L 417 211 L 36 86 L 36 185 L 333 277 Z" unicode="&#x3E;" />
<glyph horiz-adv-x="388" d="M 133 208 C 130 217 128 225 127 233 C 126 241 126 249 126 259 C 126 285 131 311 141 335 C 151 359 165 380 184 400 C 199 416 211 430 219 443 C 227 456 231 472 231 490 C 231 503 225 516 214 528 C 202 540 186 547 164 547 C 144 547 125 543 108 537 C 91 531 74 523 58 513 L 34 616 C 51 627 71 636 94 642 C 116 648 141 652 169 652 C 196 652 221 648 244 640 C 267 632 287 622 303 608 C 319 594 332 576 342 556 C 351 536 356 513 356 488 C 356 458 348 432 334 408 C 320 384 299 356 271 326 C 257 310 247 296 241 282 C 235 268 232 253 232 239 C 232 221 233 203 237 187 L 133 208 Z M 117 58 C 117 78 123 95 137 109 C 151 123 168 130 188 130 C 207 130 224 123 238 109 C 252 95 259 78 259 58 C 259 38 252 22 238 8 C 224 -6 207 -13 188 -13 C 168 -13 151 -6 137 8 C 123 22 117 38 117 58 Z" unicode="?" />
<glyph horiz-adv-x="757" d="M 35 322 C 35 373 44 419 64 460 C 84 500 110 535 142 564 C 174 592 210 614 252 629 C 294 644 337 652 381 652 C 425 652 467 644 508 629 C 549 614 585 593 617 566 C 649 538 674 505 693 466 C 712 427 722 384 722 336 C 722 310 718 284 710 260 C 702 236 691 214 677 196 C 663 177 645 162 624 151 C 602 139 578 134 551 134 C 542 134 533 135 524 137 C 514 139 506 143 498 148 C 490 153 482 159 476 167 C 470 175 466 184 464 196 C 454 172 439 156 420 148 C 400 139 379 135 357 135 C 340 135 324 137 310 143 C 296 149 283 157 273 167 C 262 177 254 188 248 202 C 242 216 239 231 239 247 C 239 263 242 278 248 291 C 254 304 263 315 274 325 C 285 335 298 342 312 348 C 326 354 342 357 358 359 L 431 366 L 431 379 C 431 390 426 400 418 408 C 409 416 394 420 374 420 C 356 420 339 417 321 412 C 303 406 288 399 274 391 L 255 466 C 270 475 289 483 313 490 C 336 496 359 500 382 500 C 425 500 460 489 488 467 C 516 445 530 413 530 371 L 530 240 C 530 228 532 219 537 214 C 542 209 548 207 556 207 C 578 207 597 217 614 239 C 631 260 640 292 640 336 C 640 372 632 404 618 434 C 603 463 584 488 560 509 C 536 530 508 546 477 558 C 446 570 414 576 381 576 C 347 576 315 570 283 559 C 251 547 223 531 199 509 C 174 487 154 460 140 428 C 125 396 118 360 118 320 C 118 280 125 244 139 213 C 153 181 172 155 196 133 C 220 111 247 95 277 83 C 307 71 338 66 370 66 C 388 66 405 66 420 68 C 435 69 449 72 462 76 L 453 2 C 444 -1 432 -3 418 -5 C 404 -6 387 -7 368 -7 C 324 -7 283 0 243 15 C 203 30 167 52 137 80 C 106 108 81 143 63 184 C 44 224 35 270 35 322 Z M 431 296 L 382 291 C 368 289 356 285 347 278 C 337 271 333 261 333 247 C 333 237 336 229 343 222 C 350 214 360 211 372 211 C 388 211 401 216 413 227 C 425 238 431 252 431 270 L 431 296 Z" unicode="@" />
<glyph horiz-adv-x="617" d="M 344 645 C 356 625 371 600 387 569 C 403 538 420 504 437 466 C 453 428 470 389 487 347 C 503 305 519 263 533 222 C 547 180 559 140 570 102 C 580 64 588 30 593 0 L 469 0 C 463 24 457 50 451 76 C 444 102 437 128 430 154 L 186 154 C 170 102 157 50 148 0 L 24 0 C 28 30 36 64 47 102 C 57 140 70 180 84 222 C 98 263 114 305 130 347 C 146 389 163 428 180 466 C 197 504 214 538 230 569 C 246 600 260 625 273 645 L 344 645 Z M 308 469 C 296 445 282 415 266 377 C 250 339 234 297 218 253 L 398 253 C 382 297 367 339 351 377 C 335 415 321 445 310 469 L 308 469 Z" unicode="A" />
<glyph horiz-adv-x="529" d="M 252 638 C 274 638 297 634 319 627 C 341 619 360 608 378 594 C 395 580 409 562 419 541 C 429 520 435 496 435 470 C 435 448 430 427 420 406 C 410 385 397 370 379 361 C 393 356 407 349 421 339 C 435 329 447 316 458 302 C 468 288 477 272 483 254 C 489 236 493 216 493 196 C 493 164 487 135 475 111 C 463 87 447 66 427 50 C 407 33 385 20 359 12 C 333 4 307 0 280 0 L 58 0 L 58 638 L 252 638 Z M 257 96 C 271 96 285 98 299 102 C 312 106 324 112 335 120 C 345 128 354 138 360 150 C 366 162 370 177 370 195 C 370 211 366 226 360 238 C 354 250 345 261 335 269 C 324 277 312 284 299 288 C 285 292 271 294 257 294 L 174 294 L 174 96 L 257 96 Z M 232 389 C 254 389 274 394 291 406 C 308 418 317 437 317 464 C 317 491 308 510 291 522 C 274 534 254 540 232 540 L 174 540 L 174 389 L 232 389 Z" unicode="B" />
<glyph horiz-adv-x="595" d="M 36 319 C 36 373 46 420 66 461 C 86 501 113 535 146 563 C 178 591 215 611 255 625 C 295 639 336 646 376 646 C 418 646 454 642 484 634 C 514 626 539 617 559 606 L 536 497 C 520 506 500 515 474 523 C 448 531 420 535 390 535 C 360 535 332 530 305 520 C 277 510 253 496 232 478 C 211 460 194 437 182 410 C 169 382 163 351 163 317 C 163 282 169 251 182 224 C 194 197 211 174 232 156 C 253 137 278 123 306 113 C 334 103 363 99 394 99 C 426 99 454 101 478 107 C 502 113 524 121 542 131 L 531 20 C 512 10 491 3 467 0 C 443 -4 412 -7 376 -7 C 335 -7 294 0 254 13 C 214 27 177 47 145 75 C 113 102 86 136 66 177 C 46 217 36 265 36 319 Z" unicode="C" />
<glyph horiz-adv-x="644" d="M 264 638 C 309 638 352 630 394 616 C 435 602 471 581 503 554 C 535 526 560 493 579 454 C 598 414 608 369 608 319 C 608 268 598 223 579 184 C 560 144 535 111 503 84 C 471 56 435 35 394 21 C 352 7 309 0 264 0 L 58 0 L 58 638 L 264 638 Z M 248 103 C 280 103 310 107 338 116 C 366 124 390 138 411 156 C 432 174 449 196 461 223 C 473 250 480 282 480 318 C 480 354 473 385 461 412 C 449 439 432 462 411 480 C 390 498 366 511 338 520 C 310 528 280 533 248 533 L 183 533 L 183 103 L 248 103 Z" unicode="D" />
<glyph horiz-adv-x="452" d="M 414 638 L 414 533 L 183 533 L 183 373 L 375 373 L 375 267 L 183 267 L 183 105 L 446 105 L 446 0 L 58 0 L 58 638 L 414 638 Z" unicode="E" />
<glyph horiz-adv-x="426" d="M 420 638 L 420 533 L 183 533 L 183 373 L 381 373 L 381 267 L 183 267 L 183 0 L 58 0 L 58 638 L 420 638 Z" unicode="F" />
<glyph horiz-adv-x="672" d="M 36 319 C 36 373 46 421 67 463 C 87 505 114 540 148 568 C 181 596 218 617 259 631 C 300 645 341 652 383 652 C 427 652 466 647 502 637 C 538 627 567 615 590 601 L 567 494 C 545 508 520 519 490 528 C 460 537 429 542 397 542 C 367 542 337 537 309 527 C 281 517 256 502 234 483 C 212 464 194 440 181 412 C 168 384 162 351 162 315 C 162 279 168 248 181 220 C 193 192 210 169 232 150 C 253 131 278 117 306 107 C 334 97 363 93 394 93 C 441 93 478 101 505 119 L 505 240 L 377 240 L 377 339 L 623 339 L 623 54 C 594 30 560 13 521 3 C 482 -7 438 -13 388 -13 C 344 -13 301 -5 259 8 C 217 22 179 44 146 72 C 113 100 86 134 66 176 C 46 217 36 265 36 319 Z" unicode="G" />
<glyph horiz-adv-x="656" d="M 184 638 L 184 374 L 472 374 L 472 638 L 598 638 L 598 0 L 472 0 L 472 266 L 184 266 L 184 0 L 58 0 L 58 638 L 184 638 Z" unicode="H" />
<glyph horiz-adv-x="263" d="M 194 638 L 194 0 L 68 0 L 68 638 L 194 638 Z" unicode="I" />
<glyph horiz-adv-x="266" d="M -82 -64 C -36 -54 1 -33 29 -1 C 57 31 72 78 72 140 L 72 638 L 197 638 L 197 130 C 197 88 190 51 178 19 C 166 -13 150 -40 131 -63 C 111 -85 90 -103 67 -117 C 43 -131 20 -140 -2 -145 L -82 -64 Z" unicode="J" />
<glyph horiz-adv-x="565" d="M 184 638 L 184 361 L 185 361 C 224 398 262 441 298 489 C 334 537 365 586 391 638 L 522 638 C 495 582 464 527 430 475 C 395 423 353 373 303 325 L 556 0 L 400 0 L 185 280 L 184 280 L 184 0 L 58 0 L 58 638 L 184 638 Z" unicode="K" />
<glyph horiz-adv-x="451" d="M 184 638 L 184 105 L 445 105 L 445 0 L 58 0 L 58 638 L 184 638 Z" unicode="L" />
<glyph horiz-adv-x="770" d="M 197 638 C 213 622 230 602 249 577 C 267 552 285 525 303 497 C 320 468 336 439 351 411 C 365 383 377 358 385 337 L 387 337 C 395 358 406 383 420 411 C 434 439 450 468 468 497 C 485 525 503 552 522 577 C 540 602 558 622 574 638 L 679 638 C 681 624 684 603 688 577 C 692 550 695 519 699 484 C 702 448 705 410 709 369 C 712 327 715 285 718 243 C 720 200 722 158 724 116 C 725 74 726 36 726 0 L 604 0 C 604 35 603 72 602 112 C 600 151 599 191 597 231 C 595 271 592 310 589 349 C 586 387 583 423 580 457 L 578 457 C 567 443 554 422 539 395 C 523 368 508 339 493 309 C 478 278 464 248 452 219 C 439 189 430 165 424 146 L 347 146 C 341 165 331 189 318 219 C 305 248 291 278 276 309 C 261 339 246 368 231 395 C 215 422 202 443 192 457 L 190 457 C 186 423 183 387 181 349 C 178 310 176 271 174 231 C 172 191 170 151 169 112 C 167 72 167 35 167 0 L 44 0 C 44 36 44 74 46 116 C 47 158 49 200 52 243 C 54 285 57 327 61 369 C 64 410 67 448 71 484 C 74 519 77 550 81 577 C 84 603 87 624 91 638 L 197 638 Z" unicode="M" />
<glyph horiz-adv-x="702" d="M 157 638 C 189 614 222 586 255 556 C 287 526 319 494 350 460 C 381 426 411 391 440 355 C 468 319 495 283 521 249 L 523 250 C 523 255 522 265 522 279 C 522 293 521 310 521 330 C 521 349 521 370 521 393 C 521 415 521 438 521 461 L 521 638 L 644 638 L 644 0 L 545 0 C 519 42 491 84 461 125 C 431 166 401 205 370 243 C 339 281 308 316 276 350 C 244 384 212 415 181 443 L 179 442 C 179 435 179 424 179 408 C 179 392 180 373 180 351 C 180 329 181 305 181 279 C 181 253 181 227 181 201 L 181 0 L 58 0 L 58 638 L 157 638 Z" unicode="N" />
<glyph horiz-adv-x="754" d="M 36 320 C 36 371 45 417 65 458 C 84 499 109 534 141 563 C 173 591 209 613 250 629 C 291 644 333 652 377 652 C 420 652 462 644 503 629 C 544 613 580 591 612 563 C 644 534 669 499 689 458 C 708 417 718 371 718 320 C 718 268 708 222 689 181 C 669 139 644 104 612 76 C 580 47 544 25 503 10 C 462 -5 420 -13 377 -13 C 333 -13 291 -5 250 10 C 209 25 173 47 141 76 C 109 104 84 139 65 181 C 45 222 36 268 36 320 Z M 590 318 C 590 352 583 383 571 411 C 559 438 543 461 523 480 C 503 499 480 514 455 524 C 429 534 403 540 377 540 C 350 540 324 535 298 525 C 272 515 250 500 230 481 C 210 462 194 439 182 411 C 170 383 164 352 164 318 C 164 283 170 252 182 225 C 194 197 210 174 230 155 C 250 135 272 120 298 110 C 324 100 350 95 377 95 C 403 95 428 100 454 110 C 480 120 503 135 523 154 C 543 173 559 196 571 224 C 583 252 590 283 590 318 Z" unicode="O" />
<glyph horiz-adv-x="511" d="M 281 638 C 305 638 330 634 354 626 C 378 618 399 606 418 590 C 436 574 451 555 463 532 C 474 508 480 482 480 452 C 480 422 474 395 463 372 C 451 349 436 330 418 314 C 399 298 378 286 354 278 C 330 270 305 266 281 266 L 181 266 L 181 0 L 58 0 L 58 638 L 281 638 Z M 261 365 C 273 365 284 366 296 370 C 307 373 317 378 326 385 C 335 392 342 401 348 411 C 353 421 356 434 356 449 C 356 463 353 475 348 486 C 342 496 335 505 327 512 C 318 519 308 524 296 528 C 284 531 273 533 261 533 L 181 533 L 181 365 L 261 365 Z" unicode="P" />
<glyph horiz-adv-x="754" d="M 151 68 C 117 97 89 133 68 175 C 46 217 36 266 36 320 C 36 371 45 417 65 458 C 84 499 109 534 141 563 C 173 591 209 613 250 629 C 291 644 333 652 377 652 C 420 652 462 644 503 629 C 544 613 580 591 612 563 C 644 534 669 499 689 458 C 708 417 718 371 718 320 C 718 280 711 242 698 208 C 685 174 668 144 647 118 C 625 92 601 70 573 53 C 545 36 515 25 485 19 L 485 17 C 503 9 523 1 547 -4 C 571 -10 595 -16 620 -20 C 645 -24 670 -28 694 -30 C 718 -32 739 -34 759 -34 L 688 -137 C 650 -137 606 -131 558 -120 C 510 -109 461 -94 412 -76 C 363 -58 316 -36 270 -11 C 224 13 185 40 151 68 Z M 590 318 C 590 352 583 383 571 411 C 559 438 543 461 523 480 C 503 499 480 514 455 524 C 429 534 403 540 377 540 C 350 540 324 535 298 525 C 272 515 250 500 230 481 C 210 462 194 439 182 411 C 170 383 164 352 164 318 C 164 283 170 252 182 225 C 194 197 210 174 230 155 C 250 135 272 120 298 110 C 324 100 350 95 377 95 C 403 95 428 100 454 110 C 480 120 503 135 523 154 C 543 173 559 196 571 224 C 583 252 590 283 590 318 Z" unicode="Q" />
<glyph horiz-adv-x="544" d="M 271 638 C 295 638 320 634 344 626 C 368 618 389 606 408 590 C 426 574 441 555 453 532 C 464 508 470 482 470 452 C 470 412 459 378 439 350 C 419 322 393 301 362 289 C 394 257 426 216 458 168 C 490 119 522 63 552 0 L 413 0 C 403 21 392 43 378 66 C 364 89 349 112 333 136 C 316 159 298 182 279 204 C 260 226 241 246 221 266 L 181 266 L 181 0 L 58 0 L 58 638 L 271 638 Z M 251 365 C 263 365 274 366 286 370 C 297 373 307 378 316 385 C 325 392 332 401 338 411 C 343 421 346 434 346 449 C 346 463 343 475 338 486 C 332 496 325 505 317 512 C 308 519 298 524 286 528 C 274 531 263 533 251 533 L 181 533 L 181 365 L 251 365 Z" unicode="R" />
<glyph horiz-adv-x="488" d="M 43 159 C 67 141 95 126 126 115 C 157 104 189 99 223 99 C 254 99 279 106 298 120 C 316 134 326 154 326 178 C 326 202 318 221 304 235 C 289 249 265 262 231 272 C 113 306 54 371 54 465 C 54 489 58 512 67 534 C 76 556 89 575 107 592 C 124 608 146 621 172 631 C 198 641 228 646 262 646 C 296 646 326 642 352 634 C 378 626 398 618 411 610 L 387 507 C 375 514 357 522 335 530 C 312 538 289 542 266 542 C 236 542 213 535 198 521 C 182 507 175 491 175 472 C 175 452 182 437 197 425 C 211 413 233 402 263 393 C 291 383 317 373 341 361 C 364 349 384 335 400 319 C 416 303 429 284 438 262 C 447 240 452 216 452 188 C 452 129 433 82 395 46 C 357 10 300 -7 226 -7 C 190 -7 157 -2 127 6 C 97 14 73 24 56 36 L 43 159 Z" unicode="S" />
<glyph horiz-adv-x="526" d="M 6 533 L 6 638 L 520 638 L 520 533 L 326 533 L 326 0 L 200 0 L 200 533 L 6 533 Z" unicode="T" />
<glyph horiz-adv-x="653" d="M 58 638 L 184 638 L 184 238 C 184 195 196 161 221 135 C 246 109 282 97 328 97 C 374 97 409 109 434 135 C 459 160 472 194 472 237 L 472 638 L 595 638 L 595 227 C 595 189 588 155 574 125 C 560 95 542 70 518 50 C 494 30 465 14 433 3 C 400 -7 365 -13 327 -13 C 289 -13 253 -7 221 3 C 188 14 160 30 136 50 C 112 70 93 95 79 125 C 65 155 58 189 58 227 L 58 638 Z" unicode="U" />
<glyph horiz-adv-x="607" d="M 143 638 C 153 596 164 552 178 507 C 192 462 206 419 220 378 C 234 336 249 298 263 263 C 277 227 291 198 303 176 L 305 176 C 317 198 330 227 344 263 C 358 298 373 336 388 378 C 402 419 416 462 429 507 C 442 552 454 596 464 638 L 585 638 C 580 608 572 573 562 535 C 551 497 539 457 525 416 C 511 374 495 333 479 291 C 462 249 445 209 429 171 C 412 133 396 99 380 68 C 364 37 351 12 339 -7 L 268 -7 C 255 12 241 37 225 68 C 209 99 193 133 177 171 C 160 209 143 249 127 291 C 111 333 95 374 81 416 C 67 457 54 497 44 535 C 34 573 26 607 22 638 L 143 638 Z" unicode="V" />
<glyph horiz-adv-x="910" d="M 128 638 C 134 602 143 562 154 518 C 165 474 177 430 190 387 C 203 343 216 303 229 267 C 242 230 254 201 265 181 L 267 181 C 271 192 277 209 285 232 C 293 254 301 280 310 308 C 319 336 328 366 338 398 C 347 430 356 461 365 491 C 373 521 381 548 388 574 C 395 600 401 621 405 638 L 509 638 C 513 621 518 600 525 574 C 532 548 540 521 549 491 C 558 461 568 430 578 399 C 588 367 597 337 606 309 C 615 281 624 255 632 233 C 640 210 646 193 651 182 L 653 182 C 663 202 675 231 688 269 C 701 306 714 346 727 390 C 739 433 751 477 761 521 C 771 565 780 604 786 638 L 898 638 C 894 610 888 578 880 541 C 872 504 862 465 851 425 C 839 384 827 342 813 300 C 799 258 785 217 771 179 C 756 141 741 105 727 73 C 712 40 698 13 685 -7 L 613 -7 C 603 11 590 37 576 71 C 561 105 546 143 532 183 C 517 223 503 265 489 307 C 475 349 465 387 457 421 L 455 421 C 447 387 436 349 422 307 C 408 265 394 223 379 183 C 364 143 349 106 335 72 C 321 38 309 11 299 -7 L 225 -7 C 211 13 197 40 183 72 C 168 104 153 140 139 179 C 124 217 110 258 96 300 C 82 342 70 384 58 425 C 46 465 37 504 29 541 C 21 577 15 610 12 638 L 128 638 Z" unicode="W" />
<glyph horiz-adv-x="625" d="M 240 323 C 166 415 101 520 45 638 L 185 638 C 203 598 223 561 245 525 C 266 489 289 455 315 423 L 317 423 C 342 457 365 491 387 527 C 409 563 429 600 448 638 L 579 638 C 522 522 458 419 386 329 C 422 283 458 231 493 174 C 528 116 560 58 589 0 L 450 0 C 431 39 409 79 385 120 C 361 160 336 197 311 230 L 309 230 C 283 196 258 158 233 117 C 207 76 186 37 168 0 L 36 0 C 64 57 95 114 131 170 C 166 226 202 277 240 323 Z" unicode="X" />
<glyph horiz-adv-x="633" d="M 256 286 C 165 393 85 510 15 638 L 152 638 C 196 552 252 469 320 388 L 322 388 C 387 468 443 552 490 638 L 618 638 C 584 574 547 513 507 455 C 467 397 425 342 379 288 L 379 0 L 256 0 L 256 286 Z" unicode="Y" />
<glyph horiz-adv-x="539" d="M 227 369 C 241 395 258 422 276 452 C 294 482 310 508 325 532 L 324 533 L 52 533 L 52 638 L 492 638 L 492 608 L 299 268 C 283 241 267 213 250 184 C 232 155 216 129 202 106 L 203 105 L 503 105 L 503 0 L 36 0 L 36 30 L 227 369 Z" unicode="Z" />
<glyph horiz-adv-x="301" d="M 295 703 L 295 604 L 175 604 L 175 -122 L 295 -122 L 295 -221 L 58 -221 L 58 703 L 295 703 Z" unicode="[" />
<glyph horiz-adv-x="490" d="M 113 683 L 526 -125 L 444 -168 L 31 640 L 113 683 Z" unicode="\" />
<glyph horiz-adv-x="301" d="M 126 -122 L 126 604 L 6 604 L 6 703 L 243 703 L 243 -221 L 6 -221 L 6 -122 L 126 -122 Z" unicode="]" />
<glyph horiz-adv-x="500" d="M 75 535 C 97 552 122 574 148 600 C 174 626 197 652 217 679 C 221 685 227 690 233 694 C 239 698 244 700 250 700 C 255 700 261 698 267 694 C 273 690 278 685 283 679 C 302 652 325 626 351 600 C 377 574 401 553 425 536 L 357 507 C 337 518 318 530 299 543 C 279 556 261 570 245 585 C 228 571 211 557 193 544 C 175 530 157 518 138 507 L 75 535 Z" unicode="^" />
<glyph horiz-adv-x="525" d="M 527 -136 L 527 -231 L -1 -231 L -1 -136 L 527 -136 Z" unicode="_" />
<glyph horiz-adv-x="500" d="M 103 618 C 91 629 86 639 86 647 C 86 651 88 656 92 662 C 96 668 100 673 106 679 C 112 685 118 690 124 694 C 130 698 135 700 140 700 C 144 700 149 698 156 694 C 162 690 168 685 173 679 C 192 652 215 626 241 600 C 267 574 291 553 315 536 L 247 507 C 219 523 194 539 170 557 C 146 575 124 595 103 618 Z" unicode="`" />
<glyph horiz-adv-x="457" d="M 299 50 C 288 27 272 11 251 1 C 229 -8 205 -13 179 -13 C 157 -13 138 -9 120 -2 C 102 5 86 15 73 28 C 59 41 49 56 41 74 C 33 92 30 111 30 132 C 30 153 34 172 42 189 C 50 206 61 221 75 234 C 89 246 105 256 123 264 C 141 271 161 276 182 278 L 281 287 L 281 309 C 281 326 274 340 262 352 C 249 363 229 369 201 369 C 179 369 156 365 134 359 C 111 352 91 343 75 333 L 53 427 C 72 439 95 449 122 456 C 149 462 177 466 207 466 C 235 466 260 462 283 455 C 306 448 326 438 343 424 C 359 410 372 393 382 373 C 391 352 396 328 396 302 L 396 136 C 396 112 401 94 411 81 C 421 68 434 59 450 55 L 370 -15 C 355 -11 341 -4 327 6 C 313 17 304 32 299 50 Z M 281 203 L 210 197 C 186 195 168 187 158 174 C 147 161 142 147 142 132 C 142 118 147 105 157 95 C 167 84 180 79 198 79 C 220 79 240 86 256 102 C 272 117 281 137 281 163 L 281 203 Z" unicode="a" />
<glyph horiz-adv-x="549" d="M 54 712 L 171 712 L 171 432 C 175 436 182 440 190 444 C 198 448 208 451 219 454 C 229 457 241 460 253 462 C 265 464 278 465 290 465 C 322 465 351 459 379 448 C 407 436 431 420 452 400 C 472 380 488 355 500 327 C 512 298 518 266 518 232 C 518 196 512 164 501 134 C 489 104 473 79 451 57 C 429 35 402 18 370 6 C 338 -5 301 -12 260 -12 C 215 -12 174 -5 138 7 C 101 20 73 34 54 50 L 54 712 Z M 398 226 C 398 244 394 262 388 278 C 382 294 373 309 362 321 C 351 333 338 342 323 349 C 307 356 291 360 273 360 C 247 360 225 355 208 346 C 190 336 178 328 171 320 L 171 110 C 178 104 190 99 206 95 C 222 90 238 88 254 88 C 299 88 334 100 360 126 C 385 151 398 184 398 226 Z" unicode="b" />
<glyph horiz-adv-x="450" d="M 31 226 C 31 262 37 295 51 324 C 65 353 83 378 106 398 C 128 418 154 434 183 445 C 212 455 242 461 273 461 C 303 461 330 458 354 452 C 378 446 399 438 419 427 L 397 325 C 379 336 362 344 344 349 C 326 353 308 356 289 356 C 271 356 253 352 237 346 C 220 340 205 331 193 320 C 181 308 171 294 164 278 C 156 262 153 244 153 224 C 153 204 156 186 164 170 C 171 154 181 140 194 128 C 206 116 221 107 238 101 C 254 95 272 92 291 92 C 311 92 330 94 347 98 C 363 102 381 108 400 118 L 388 14 C 372 6 355 1 336 -2 C 316 -6 296 -8 274 -8 C 242 -8 212 -2 183 8 C 154 18 128 34 106 54 C 83 74 65 99 51 128 C 37 157 31 190 31 226 Z" unicode="c" />
<glyph horiz-adv-x="550" d="M 31 226 C 31 262 37 294 49 324 C 61 353 77 378 98 399 C 118 420 143 436 171 448 C 199 459 229 465 261 465 C 273 465 285 464 297 462 C 309 460 321 457 332 454 C 342 451 352 447 360 443 C 368 439 375 435 380 431 L 380 712 L 496 712 L 496 0 L 389 0 L 389 53 L 388 53 C 376 34 359 18 336 6 C 312 -5 283 -12 249 -12 C 223 -12 197 -7 171 3 C 145 13 121 28 101 48 C 80 68 63 92 50 122 C 37 152 31 186 31 226 Z M 380 317 C 372 325 360 335 343 345 C 326 355 304 360 278 360 C 260 360 243 356 227 350 C 211 343 198 334 187 322 C 175 310 166 295 160 279 C 153 262 150 244 150 224 C 150 204 153 185 160 169 C 166 152 175 138 187 126 C 198 114 211 104 227 98 C 243 91 260 88 278 88 C 303 88 324 93 341 104 C 358 114 371 126 380 140 L 380 317 Z" unicode="d" />
<glyph horiz-adv-x="491" d="M 30 227 C 30 265 36 298 49 328 C 62 357 79 382 101 403 C 122 423 147 439 175 450 C 203 460 231 466 261 466 C 292 466 320 461 345 451 C 369 441 390 427 407 411 C 424 394 437 375 446 354 C 455 332 460 311 460 289 C 460 283 459 276 459 270 C 459 264 458 258 457 253 L 399 195 L 152 195 C 152 183 156 170 163 158 C 170 146 180 134 193 124 C 205 113 220 104 238 98 C 256 91 276 88 299 88 C 325 88 350 91 372 98 C 394 104 412 113 428 124 L 416 16 C 398 7 378 0 356 -5 C 333 -10 307 -13 277 -13 C 243 -13 212 -7 182 4 C 152 15 125 31 103 52 C 80 73 62 98 49 128 C 36 158 30 191 30 227 Z M 345 281 C 345 283 345 284 345 286 C 345 288 346 290 346 292 C 346 301 344 310 340 320 C 336 330 330 338 323 346 C 315 354 307 360 297 365 C 287 369 275 372 263 372 C 238 372 215 363 194 346 C 173 328 160 307 155 281 L 345 281 Z" unicode="e" />
<glyph horiz-adv-x="346" d="M 9 357 L 9 453 L 82 453 L 82 511 C 82 544 86 573 96 598 C 106 623 119 644 137 661 C 154 678 175 691 199 699 C 223 707 249 712 279 712 C 298 712 316 710 333 708 C 350 706 365 702 377 697 L 355 601 C 345 605 335 608 323 611 C 311 613 301 615 292 615 C 230 615 199 577 199 503 L 199 453 L 337 453 L 314 357 L 199 357 L 199 0 L 82 0 L 82 357 L 9 357 Z" unicode="f" />
<glyph horiz-adv-x="472" d="M 30 -65 C 30 -46 32 -29 38 -15 C 44 -1 51 11 61 22 C 70 32 80 41 92 48 C 103 54 115 59 127 62 L 72 116 C 73 131 79 145 91 158 C 102 170 115 179 129 185 C 109 196 93 212 79 233 C 65 253 58 278 58 308 C 58 331 62 352 70 372 C 78 391 90 408 106 422 C 122 436 141 446 163 454 C 185 462 209 466 237 466 C 249 466 261 465 271 464 C 281 462 290 460 300 458 C 319 452 340 450 364 450 C 375 450 387 451 400 454 C 413 457 424 461 433 466 L 454 373 C 447 369 438 365 428 363 C 417 360 407 359 398 359 C 402 353 405 345 409 335 C 412 325 414 314 414 303 C 414 283 410 265 403 247 C 395 229 385 213 371 199 C 357 185 341 174 321 166 C 301 158 280 153 256 153 C 242 152 232 150 224 148 C 216 145 213 140 213 132 C 213 129 213 126 215 123 C 217 120 220 118 225 117 L 321 83 C 363 67 395 48 418 24 C 441 0 453 -33 453 -75 C 453 -97 448 -117 438 -136 C 428 -155 413 -172 395 -186 C 377 -200 355 -211 329 -219 C 303 -227 274 -231 243 -231 C 211 -231 181 -226 155 -218 C 129 -210 106 -198 88 -183 C 70 -168 55 -150 45 -130 C 35 -110 30 -88 30 -65 Z M 339 -74 C 339 -60 334 -47 324 -36 C 314 -24 300 -16 282 -11 L 216 8 C 193 7 175 0 161 -13 C 147 -26 140 -43 140 -64 C 140 -83 148 -100 165 -115 C 181 -129 207 -137 241 -137 C 273 -137 298 -130 314 -117 C 330 -103 339 -89 339 -74 Z M 309 309 C 309 326 302 341 289 355 C 275 369 258 376 237 376 C 215 376 198 369 184 355 C 170 341 164 326 164 309 C 164 291 170 275 184 262 C 198 249 215 243 237 243 C 256 243 273 249 287 262 C 301 275 309 291 309 309 Z" unicode="g" />
<glyph horiz-adv-x="518" d="M 172 712 L 172 409 L 173 409 C 184 426 200 440 221 450 C 241 460 269 465 303 465 C 353 465 393 451 423 423 C 453 395 468 357 468 308 L 468 0 L 349 0 L 349 285 C 349 305 342 323 329 339 C 315 355 293 363 263 363 C 233 363 211 355 196 339 C 180 323 173 304 173 283 L 173 0 L 54 0 L 54 712 L 172 712 Z" unicode="h" />
<glyph horiz-adv-x="233" d="M 49 596 C 49 614 55 629 68 642 C 81 655 97 662 116 662 C 134 662 150 655 164 642 C 177 629 184 614 184 596 C 184 577 177 561 164 548 C 150 534 134 528 116 528 C 97 528 81 534 68 548 C 55 561 49 577 49 596 Z M 177 453 L 177 0 L 56 0 L 56 453 L 177 453 Z" unicode="i" />
<glyph horiz-adv-x="233" d="M 49 596 C 49 614 55 629 68 642 C 81 655 97 662 116 662 C 134 662 150 655 164 642 C 177 629 184 614 184 596 C 184 577 177 561 164 548 C 150 534 134 528 116 528 C 97 528 81 534 68 548 C 55 561 49 577 49 596 Z M -39 -161 C -10 -153 12 -139 30 -118 C 47 -97 56 -67 56 -28 L 56 453 L 177 453 L 177 -36 C 177 -62 173 -86 165 -108 C 157 -130 146 -149 132 -166 C 118 -182 103 -196 86 -208 C 69 -219 52 -227 34 -232 L -39 -161 Z" unicode="j" />
<glyph horiz-adv-x="478" d="M 172 712 L 172 263 L 173 263 C 201 288 230 317 260 351 C 289 385 313 419 332 453 L 463 453 C 453 434 441 414 427 394 C 413 374 399 354 384 335 C 369 315 354 297 338 279 C 322 261 306 245 292 231 L 479 0 L 334 0 L 173 198 L 172 198 L 172 0 L 54 0 L 54 712 L 172 712 Z" unicode="k" />
<glyph horiz-adv-x="251" d="M 54 712 L 172 712 L 172 140 C 172 120 177 105 189 93 C 201 81 215 74 233 72 L 177 -18 C 161 -16 146 -13 132 -7 C 117 -1 104 7 92 19 C 80 30 71 44 64 62 C 57 79 54 100 54 125 L 54 712 Z" unicode="l" />
<glyph horiz-adv-x="788" d="M 157 453 L 159 392 L 160 392 C 169 414 184 431 206 445 C 228 458 257 465 294 465 C 324 465 351 459 375 447 C 399 435 416 417 428 395 C 439 415 457 431 483 445 C 508 458 538 465 572 465 C 624 465 664 451 694 423 C 724 395 739 356 739 307 L 739 0 L 620 0 L 620 285 C 620 295 618 304 616 314 C 614 323 610 331 604 339 C 598 346 589 352 579 356 C 568 360 555 363 539 363 C 523 363 509 360 499 356 C 488 352 479 346 473 339 C 466 331 461 323 458 313 C 455 303 454 293 454 283 L 454 0 L 335 0 L 335 285 C 335 295 333 304 331 314 C 329 323 325 331 319 339 C 313 346 304 352 294 356 C 283 360 270 363 254 363 C 238 363 224 360 214 356 C 203 352 194 346 188 339 C 181 331 176 323 173 313 C 170 303 169 293 169 283 L 169 0 L 50 0 L 50 453 L 157 453 Z" unicode="m" />
<glyph horiz-adv-x="514" d="M 158 453 L 158 393 L 159 393 C 168 415 184 432 207 445 C 230 458 261 465 299 465 C 349 465 389 451 419 423 C 449 395 464 357 464 308 L 464 0 L 345 0 L 345 285 C 345 305 338 323 325 339 C 311 355 289 363 259 363 C 229 363 207 355 192 339 C 176 323 169 304 169 283 L 169 0 L 50 0 L 50 453 L 158 453 Z" unicode="n" />
<glyph horiz-adv-x="549" d="M 31 226 C 31 262 37 294 50 324 C 62 353 80 378 102 399 C 124 420 149 436 179 448 C 209 460 241 466 275 466 C 309 466 340 460 370 448 C 399 436 425 420 447 399 C 469 378 486 353 499 324 C 511 294 518 262 518 226 C 518 190 511 158 499 129 C 486 99 469 74 447 53 C 425 32 400 16 370 4 C 340 -7 309 -13 275 -13 C 241 -13 209 -7 179 4 C 149 16 124 32 102 53 C 80 74 62 99 50 129 C 37 158 31 190 31 226 Z M 400 224 C 400 244 396 262 390 279 C 383 296 374 311 362 323 C 350 335 337 344 322 351 C 307 357 291 361 275 361 C 258 361 242 357 227 351 C 212 344 199 335 187 323 C 175 311 166 296 160 279 C 153 262 150 244 150 224 C 150 204 153 185 160 169 C 166 152 175 138 187 126 C 199 114 212 104 227 98 C 242 91 258 88 275 88 C 291 88 307 91 322 98 C 337 104 350 114 362 126 C 374 138 383 152 390 169 C 396 185 400 204 400 224 Z" unicode="o" />
<glyph horiz-adv-x="546" d="M 157 453 L 157 400 L 158 400 C 169 418 186 434 210 446 C 233 458 262 465 297 465 C 323 465 349 459 375 449 C 401 439 424 424 445 404 C 465 384 482 359 495 329 C 508 299 515 265 515 227 C 515 191 509 158 497 129 C 485 99 468 74 448 53 C 427 32 403 16 375 5 C 347 -6 317 -12 285 -12 C 273 -12 260 -11 248 -9 C 236 -7 224 -4 214 -1 C 203 1 193 5 185 9 C 177 13 170 18 166 22 L 166 -231 L 50 -231 L 50 453 L 157 453 Z M 396 224 C 396 244 392 262 386 279 C 379 295 370 310 359 322 C 347 334 334 343 318 350 C 302 356 286 360 268 360 C 242 360 221 354 204 344 C 187 333 174 321 166 308 L 166 131 C 173 122 185 113 202 103 C 219 93 241 88 268 88 C 286 88 302 91 318 98 C 334 104 347 114 359 126 C 370 138 379 152 386 169 C 392 185 396 204 396 224 Z" unicode="p" />
<glyph horiz-adv-x="544" d="M 378 22 C 368 14 353 6 331 -1 C 309 -8 287 -12 263 -12 C 229 -12 198 -6 170 5 C 142 17 117 33 97 54 C 76 75 60 100 48 129 C 36 157 31 189 31 223 C 31 257 36 289 48 319 C 60 349 76 374 98 396 C 120 417 146 434 177 446 C 207 458 242 465 280 465 C 312 465 339 460 363 452 C 386 444 403 436 415 429 L 462 464 L 495 464 L 495 -231 L 378 -231 L 378 22 Z M 378 329 C 370 336 358 343 340 350 C 322 356 306 360 290 360 C 248 360 214 347 188 322 C 162 296 150 263 150 222 C 150 202 153 184 160 168 C 167 152 176 138 188 126 C 200 114 214 104 230 98 C 246 91 263 88 281 88 C 307 88 327 92 343 102 C 359 111 370 120 378 128 L 378 329 Z" unicode="q" />
<glyph horiz-adv-x="349" d="M 168 453 L 168 356 L 169 356 C 177 390 192 415 216 433 C 239 451 266 460 298 460 C 304 460 312 459 321 458 C 329 457 336 456 342 454 L 312 328 C 308 329 302 330 295 332 C 288 334 281 335 274 335 C 260 335 247 333 235 329 C 222 325 211 319 201 311 C 191 302 184 290 178 275 C 172 260 169 242 169 220 L 169 0 L 50 0 L 50 453 L 168 453 Z" unicode="r" />
<glyph horiz-adv-x="384" d="M 36 137 C 54 123 75 111 100 101 C 125 91 151 87 177 87 C 194 87 208 91 218 99 C 228 107 234 116 234 128 C 234 140 229 150 221 158 C 212 166 199 172 182 178 C 138 192 103 211 79 233 C 55 255 43 286 43 324 C 43 365 57 398 87 423 C 117 448 155 461 203 461 C 229 461 254 457 278 451 C 302 445 319 439 329 433 L 308 341 C 297 347 283 353 267 359 C 250 365 231 368 210 368 C 194 368 182 364 173 357 C 164 349 160 340 160 329 C 160 317 164 308 172 302 C 180 295 194 289 212 284 C 260 268 295 249 319 225 C 342 201 354 169 354 131 C 354 112 350 94 343 77 C 336 60 325 45 311 33 C 297 20 279 10 258 3 C 236 -4 211 -8 183 -8 C 154 -8 129 -5 107 1 C 85 7 66 14 49 24 L 36 137 Z" unicode="s" />
<glyph horiz-adv-x="370" d="M 92 357 L 9 357 L 9 453 L 92 453 L 92 547 L 209 598 L 209 453 L 362 453 L 341 357 L 209 357 L 209 152 C 209 128 214 112 226 103 C 238 94 255 90 277 90 C 291 90 304 92 316 96 L 306 4 C 291 -2 271 -6 247 -6 C 201 -6 163 6 135 30 C 106 54 92 88 92 133 L 92 357 Z" unicode="t" />
<glyph horiz-adv-x="514" d="M 50 453 L 169 453 L 169 169 C 169 149 175 130 189 114 C 202 98 224 90 255 90 C 284 90 306 98 322 114 C 337 130 345 148 345 170 L 345 453 L 464 453 L 464 0 L 355 0 L 355 60 L 354 60 C 344 38 328 20 306 7 C 283 -5 253 -12 215 -12 C 165 -12 125 2 95 30 C 65 58 50 96 50 146 L 50 453 Z" unicode="u" />
<glyph horiz-adv-x="473" d="M 132 453 C 149 392 166 337 184 287 C 202 237 220 191 238 149 L 240 149 C 278 237 314 338 346 453 L 458 453 C 434 373 407 295 377 219 C 347 142 313 67 277 -6 L 195 -6 C 159 63 126 136 96 212 C 66 288 39 369 15 453 L 132 453 Z" unicode="v" />
<glyph horiz-adv-x="709" d="M 128 453 C 143 393 158 338 173 288 C 188 238 203 192 219 150 L 221 150 C 236 193 251 240 265 291 C 279 341 294 395 309 453 L 403 453 C 416 401 431 349 447 299 C 463 248 479 198 496 150 L 498 150 C 515 200 531 250 547 301 C 563 351 577 402 591 453 L 694 453 C 672 373 647 295 621 219 C 594 143 565 68 533 -6 L 457 -6 C 437 44 418 95 401 145 C 383 195 368 247 354 299 L 352 299 C 338 247 323 195 307 145 C 290 94 271 44 251 -6 L 179 -6 C 146 67 116 142 90 218 C 63 294 39 372 17 453 L 128 453 Z" unicode="w" />
<glyph horiz-adv-x="469" d="M 166 228 C 142 260 120 294 98 332 C 76 370 56 410 36 453 L 159 453 C 170 429 181 406 193 385 C 205 363 218 342 233 322 L 235 322 C 250 343 264 364 278 386 C 291 407 303 429 313 453 L 432 453 C 412 411 391 372 369 336 C 347 300 324 266 301 234 C 324 202 348 165 372 125 C 396 84 418 42 438 0 L 315 0 C 303 24 290 48 276 73 C 262 97 247 120 233 142 L 231 142 C 215 121 200 98 186 73 C 171 47 159 23 149 0 L 30 0 C 49 42 70 82 94 121 C 118 160 142 196 166 228 Z" unicode="x" />
<glyph horiz-adv-x="481" d="M 0 -162 C 36 -147 70 -125 102 -96 C 134 -67 163 -31 189 13 C 156 79 125 150 95 225 C 65 300 38 376 15 453 L 132 453 C 149 394 168 338 188 284 C 208 230 227 183 246 143 L 248 143 C 256 165 265 188 275 214 C 285 240 294 266 304 293 C 313 320 322 347 330 375 C 338 402 346 428 352 453 L 463 453 C 439 375 415 301 390 231 C 365 161 341 101 319 49 C 300 5 281 -32 261 -64 C 241 -96 221 -123 201 -145 C 181 -167 160 -186 139 -201 C 117 -215 96 -227 74 -236 L 0 -162 Z" unicode="y" />
<glyph horiz-adv-x="433" d="M 158 244 C 168 261 179 280 191 300 C 203 320 214 339 225 355 L 224 357 L 47 357 L 47 453 L 385 453 L 385 430 L 257 208 C 246 190 235 172 224 154 C 213 136 202 117 190 98 L 191 97 L 402 97 L 402 0 L 31 0 L 31 23 L 158 244 Z" unicode="z" />
<glyph horiz-adv-x="332" d="M 95 35 C 95 81 88 121 76 156 C 63 190 40 218 6 240 C 39 261 62 289 75 324 C 88 358 95 399 95 446 C 95 483 99 517 108 549 C 116 580 130 607 148 630 C 166 652 188 670 215 683 C 241 695 273 702 309 702 L 326 608 C 286 608 256 594 238 566 C 220 538 211 499 211 451 C 211 403 205 362 193 328 C 181 294 161 264 134 240 C 161 216 181 187 193 153 C 205 118 211 77 211 29 C 211 -19 220 -57 238 -85 C 256 -113 285 -128 326 -128 L 309 -222 C 273 -222 241 -215 215 -203 C 188 -190 166 -172 148 -150 C 130 -127 116 -100 108 -69 C 99 -37 95 -3 95 35 Z" unicode="{" />
<glyph horiz-adv-x="212" d="M 153 712 L 153 -231 L 58 -231 L 58 712 L 153 712 Z" unicode="|" />
<glyph horiz-adv-x="332" d="M 6 -128 C 46 -128 75 -114 93 -86 C 111 -58 121 -19 121 29 C 121 77 127 118 139 153 C 151 187 170 216 198 240 C 170 264 151 294 139 328 C 127 362 121 403 121 451 C 121 499 112 537 94 565 C 76 593 46 608 6 608 L 23 702 C 59 702 90 695 117 683 C 143 670 166 652 184 630 C 202 607 215 580 224 549 C 232 517 237 483 237 446 C 237 400 243 359 256 324 C 268 289 292 261 326 240 C 292 218 269 190 256 156 C 243 122 237 81 237 35 C 237 -3 232 -37 224 -69 C 215 -100 202 -127 184 -150 C 166 -172 143 -190 117 -203 C 90 -215 59 -222 23 -222 L 6 -128 Z" unicode="}" />
<glyph horiz-adv-x="389" d="M 36 221 C 41 231 48 242 58 255 C 67 268 77 280 87 292 C 97 304 108 314 118 322 C 128 330 138 334 146 334 C 152 334 160 332 169 328 C 177 324 186 319 195 314 C 203 309 211 305 219 301 C 226 297 232 295 237 295 C 241 295 246 296 252 300 C 257 304 262 308 267 314 C 272 320 277 326 282 332 C 287 338 291 343 295 348 L 353 323 C 347 313 340 301 331 288 C 321 275 311 263 301 251 C 291 239 280 229 270 221 C 260 213 251 209 243 209 C 235 209 227 211 219 215 C 211 219 202 223 194 228 C 185 233 177 238 170 242 C 162 246 156 249 152 249 C 147 249 142 247 137 243 C 131 239 126 234 121 229 C 116 223 111 218 106 212 C 101 206 97 200 94 196 L 36 221 Z" unicode="~" />
<glyph horiz-adv-x="114" d="" unicode=" " />
<glyph horiz-adv-x="268" d="M 202 580 C 202 560 195 543 181 529 C 167 515 151 508 131 508 C 111 508 95 515 81 529 C 67 543 60 560 60 580 C 60 599 67 616 81 630 C 95 643 111 650 131 650 C 151 650 167 643 181 630 C 195 616 202 599 202 580 Z M 201 0 L 65 0 L 83 451 L 184 429 L 201 0 Z" unicode="¡" />
<glyph horiz-adv-x="450" d="M 242 84 C 214 87 187 95 162 107 C 136 119 114 135 94 155 C 74 175 59 198 48 225 C 36 252 31 282 31 316 C 31 349 36 379 48 407 C 60 434 75 457 95 477 C 114 497 136 513 162 525 C 187 537 214 545 242 549 L 242 638 L 309 638 L 309 549 C 350 545 387 534 419 517 L 397 415 C 379 426 362 434 344 439 C 326 443 308 446 289 446 C 271 446 253 442 237 436 C 221 430 206 421 194 410 C 181 398 171 384 164 368 C 156 352 153 334 153 314 C 153 294 156 276 164 260 C 171 244 181 230 194 218 C 206 206 221 197 238 191 C 254 185 272 182 291 182 C 311 182 329 184 346 188 C 363 192 381 198 400 208 L 388 104 C 376 98 364 94 351 91 C 338 87 324 85 309 84 L 309 0 L 242 0 L 242 84 Z" unicode="¢" />
<glyph horiz-adv-x="392" d="M 33 99 C 50 116 62 136 70 159 C 78 182 82 212 82 248 L 82 288 L 9 288 L 9 353 L 82 353 L 82 432 C 82 468 87 500 98 527 C 109 554 124 577 143 595 C 162 613 185 626 211 635 C 237 644 264 649 294 649 C 308 649 324 647 341 645 C 357 642 369 639 377 636 L 366 532 C 356 535 346 538 336 540 C 325 542 313 544 301 544 C 273 544 249 534 229 516 C 209 497 200 467 200 425 L 200 353 L 327 353 L 319 288 L 200 288 L 200 243 C 200 212 197 184 191 159 C 185 133 175 114 163 100 L 392 100 L 392 0 L 33 0 L 33 99 Z" unicode="£" />
<glyph horiz-adv-x="528" d="M 60 241 L 60 307 L 182 307 L 15 638 L 140 638 L 229 460 C 235 447 241 432 249 416 C 256 400 262 385 268 371 L 270 371 C 276 385 282 400 290 417 C 297 433 304 448 310 460 L 399 638 L 513 638 L 346 307 L 468 307 L 468 241 L 324 241 L 324 0 L 204 0 L 204 241 L 60 241 Z" unicode="¥" />
<glyph horiz-adv-x="234" d="M 165 181 L 165 -231 L 70 -231 L 70 181 L 165 181 Z M 165 712 L 165 300 L 70 300 L 70 712 L 165 712 Z" unicode="¦" />
<glyph horiz-adv-x="493" d="M 99 -87 C 116 -97 135 -106 156 -112 C 176 -118 199 -121 225 -121 C 255 -121 278 -114 293 -100 C 307 -86 315 -69 315 -50 C 315 -44 313 -37 310 -28 C 306 -19 302 -12 296 -6 L 63 231 L 94 366 C 82 382 73 400 67 418 C 61 436 58 455 58 473 C 58 497 62 519 72 541 C 81 563 94 582 112 598 C 129 614 150 626 175 636 C 200 646 229 651 261 651 C 297 651 327 647 353 640 C 378 633 399 625 417 616 L 394 512 C 376 522 357 531 337 537 C 316 543 293 546 268 546 C 237 546 214 539 200 525 C 185 511 178 494 178 475 C 178 469 179 462 183 453 C 186 444 191 437 197 431 L 430 195 L 399 59 C 411 42 420 24 426 6 C 432 -11 435 -30 435 -48 C 435 -72 430 -94 421 -116 C 411 -138 398 -157 381 -173 C 363 -189 342 -201 317 -211 C 292 -221 264 -226 232 -226 C 196 -226 165 -222 140 -215 C 114 -208 93 -200 76 -191 L 99 -87 Z M 150 348 L 136 285 L 342 77 L 357 140 L 150 348 Z" unicode="§" />
<glyph horiz-adv-x="500" d="M 108 566 C 108 582 113 596 125 608 C 137 620 151 626 167 626 C 183 626 197 620 209 608 C 221 596 227 582 227 566 C 227 550 221 536 209 524 C 197 512 183 507 167 507 C 151 507 137 512 125 524 C 113 536 108 550 108 566 Z M 273 566 C 273 582 278 596 290 608 C 302 620 316 626 332 626 C 348 626 362 620 374 608 C 386 596 392 582 392 566 C 392 550 386 536 374 524 C 362 512 348 507 332 507 C 316 507 302 512 290 524 C 278 536 273 550 273 566 Z" unicode="¨" />
<glyph horiz-adv-x="605" d="M 169 252 C 169 274 173 293 181 311 C 189 328 200 343 214 355 C 228 367 243 377 261 383 C 279 389 297 393 315 393 C 351 393 380 385 401 371 L 385 299 C 377 304 368 309 356 313 C 344 317 332 320 322 320 C 303 320 287 313 274 301 C 260 288 254 271 254 251 C 254 231 261 214 275 202 C 289 190 305 184 325 184 C 335 184 346 185 356 187 C 366 189 376 194 388 200 L 380 127 C 360 117 339 112 315 112 C 296 112 278 115 261 121 C 243 127 228 137 214 149 C 200 161 189 175 181 193 C 173 210 169 230 169 252 Z M 36 250 C 36 288 43 324 57 357 C 71 389 90 417 114 441 C 138 464 166 482 198 495 C 230 508 265 515 303 515 C 340 515 375 508 407 495 C 439 482 468 464 492 441 C 516 417 534 389 548 357 C 562 324 569 288 569 250 C 569 211 562 175 548 143 C 534 111 516 83 492 60 C 468 36 439 18 407 5 C 375 -7 340 -14 303 -14 C 265 -14 230 -7 198 5 C 166 18 138 36 114 60 C 90 83 71 111 57 143 C 43 175 36 211 36 250 Z M 505 250 C 505 279 500 306 490 331 C 480 356 467 378 449 397 C 431 415 409 430 385 441 C 360 451 333 457 303 457 C 273 457 245 451 220 441 C 195 430 174 415 156 397 C 138 378 124 356 114 331 C 104 306 100 279 100 250 C 100 220 104 193 114 168 C 124 143 138 121 156 103 C 174 85 195 70 220 60 C 245 49 273 44 303 44 C 333 44 360 49 385 59 C 409 69 430 84 448 103 C 466 121 480 143 490 168 C 500 193 505 220 505 250 Z" unicode="©" />
<glyph horiz-adv-x="385" d="M 247 314 C 237 298 224 287 208 280 C 191 273 172 270 152 270 C 116 270 87 281 64 303 C 41 325 30 353 30 387 C 30 404 33 419 40 433 C 46 447 55 459 67 469 C 79 479 92 486 107 492 C 122 498 138 502 155 504 L 230 512 L 230 527 C 230 539 225 550 216 558 C 206 566 191 571 170 571 C 152 571 134 568 116 563 C 98 557 81 550 67 541 L 49 620 C 65 630 85 638 107 644 C 129 650 151 653 175 653 C 220 653 257 642 286 620 C 314 598 329 565 329 521 L 329 390 C 329 372 332 358 340 348 C 348 338 359 332 374 328 L 306 268 C 294 270 283 275 272 283 C 260 291 252 301 247 314 Z M 132 148 C 132 164 138 179 150 191 C 162 203 176 209 193 209 C 210 209 224 203 236 191 C 248 179 254 164 254 148 C 254 130 248 116 236 104 C 224 92 210 87 193 87 C 176 87 162 92 150 104 C 138 116 132 130 132 148 Z M 230 441 L 170 435 C 154 433 143 428 136 418 C 128 408 125 397 125 385 C 125 373 128 364 136 357 C 144 349 153 346 165 346 C 180 346 195 351 209 363 C 223 375 230 391 230 412 L 230 441 Z" unicode="ª" />
<glyph horiz-adv-x="420" d="M 34 195 C 28 199 23 204 20 210 C 16 216 15 221 15 226 C 15 230 16 236 20 242 C 24 248 28 253 34 257 C 58 275 82 295 106 319 C 130 343 150 365 166 387 L 182 351 C 173 328 164 306 154 286 C 144 265 134 245 123 226 C 134 206 144 186 154 166 C 163 145 172 123 182 101 L 166 65 C 150 86 130 109 106 133 C 82 157 58 177 34 195 Z M 239 195 C 233 199 228 204 225 210 C 221 216 220 221 220 226 C 220 230 221 236 225 242 C 229 248 233 253 239 257 C 263 275 287 295 311 319 C 335 343 355 365 371 387 L 387 351 C 378 328 369 306 359 286 C 349 265 339 245 328 226 C 339 206 349 186 359 166 C 368 145 377 123 387 101 L 371 65 C 355 86 335 109 311 133 C 287 157 263 177 239 195 Z" unicode="«" />
<glyph horiz-adv-x="509" d="M 34 229 L 34 324 L 459 324 L 459 126 L 361 126 L 361 229 L 34 229 Z" unicode="¬" />
<glyph horiz-adv-x="329" d="M 293 324 L 293 229 L 36 229 L 36 324 L 293 324 Z" unicode="­" />
<glyph horiz-adv-x="471" d="M 211 420 L 211 328 L 159 328 L 159 570 L 236 570 C 246 570 256 568 266 565 C 276 561 285 556 293 550 C 301 543 307 535 312 526 C 316 517 319 507 319 495 C 319 481 315 469 309 459 C 302 448 294 440 284 434 L 340 355 L 296 327 L 234 420 L 211 420 Z M 30 449 C 30 478 35 505 45 530 C 55 555 70 577 89 595 C 107 613 129 627 154 637 C 178 647 205 652 235 652 C 263 652 290 647 315 637 C 339 627 361 613 380 595 C 398 577 413 555 424 530 C 434 505 440 478 440 449 C 440 419 434 392 424 367 C 413 342 398 321 380 303 C 361 285 339 271 315 261 C 290 251 263 246 235 246 C 205 246 178 251 154 261 C 129 271 107 285 89 303 C 70 321 55 342 45 367 C 35 392 30 419 30 449 Z M 393 449 C 393 472 389 493 381 513 C 373 533 361 550 347 564 C 333 578 316 589 297 597 C 277 605 257 609 235 609 C 212 609 191 605 172 597 C 152 589 135 578 121 564 C 107 550 96 533 88 513 C 80 493 76 472 76 449 C 76 425 80 404 88 384 C 96 364 107 348 121 334 C 135 320 152 309 172 301 C 191 293 212 290 235 290 C 257 290 277 294 297 302 C 316 310 333 321 347 335 C 361 349 373 365 381 385 C 389 404 393 425 393 449 Z M 230 465 C 240 465 249 467 256 472 C 262 477 266 485 266 495 C 266 505 262 512 256 518 C 249 523 240 526 230 526 L 211 526 L 211 465 L 230 465 Z" unicode="®" />
<glyph horiz-adv-x="500" d="M 350 601 L 350 520 L 153 520 L 153 601 L 350 601 Z" unicode="¯" />
<glyph horiz-adv-x="305" d="M 33 534 C 33 550 36 565 42 579 C 48 593 57 606 68 617 C 79 627 92 636 107 642 C 121 648 137 652 153 652 C 169 652 184 648 199 642 C 213 636 226 627 237 617 C 247 606 256 593 262 579 C 268 565 272 550 272 534 C 272 518 268 502 262 488 C 256 473 247 460 237 450 C 226 439 213 430 199 424 C 184 418 169 415 153 415 C 137 415 121 418 107 424 C 92 430 79 439 68 450 C 57 460 48 473 42 488 C 36 502 33 518 33 534 Z M 198 534 C 198 548 193 560 185 570 C 177 579 166 584 153 584 C 139 584 128 579 119 570 C 110 560 106 548 106 534 C 106 519 110 507 119 498 C 128 488 139 484 153 484 C 166 484 177 488 185 498 C 193 507 198 519 198 534 Z" unicode="°" />
<glyph horiz-adv-x="302" d="M 30 285 C 42 295 50 308 56 323 C 61 337 64 356 64 378 L 64 398 L 14 398 L 14 456 L 64 456 L 64 505 C 64 555 78 592 106 617 C 134 641 170 654 214 654 C 228 654 241 652 252 650 C 263 648 272 645 279 642 L 273 563 C 265 565 256 568 246 570 C 236 572 227 573 218 573 C 200 573 185 567 174 555 C 163 543 158 525 158 500 L 158 456 L 244 456 L 238 398 L 158 398 L 158 375 C 158 356 156 339 152 323 C 148 307 141 295 133 286 L 289 286 L 289 208 L 30 208 L 30 285 Z" unicode="±" />
<glyph horiz-adv-x="352" d="M 28 268 C 86 318 130 363 160 405 C 190 447 206 482 206 510 C 206 532 199 549 185 562 C 171 575 152 582 128 582 C 111 582 96 579 82 575 C 68 571 55 565 43 558 L 29 624 C 41 631 57 637 75 642 C 93 647 112 650 134 650 C 182 650 220 637 246 613 C 272 588 285 555 285 513 C 285 483 274 450 254 416 C 233 382 205 347 169 313 L 306 313 L 306 247 L 28 247 L 28 268 Z" unicode="²" />
<glyph horiz-adv-x="306" d="M 41 326 C 52 320 64 316 76 313 C 88 309 100 308 112 308 C 131 308 148 313 164 325 C 180 336 188 352 188 372 C 188 388 181 403 169 415 C 157 427 140 434 120 434 C 117 434 114 434 111 434 C 108 434 105 433 102 432 L 97 493 C 116 496 131 502 143 512 C 155 522 161 533 162 547 C 162 557 158 565 150 572 C 142 579 130 583 116 583 C 95 583 76 579 58 570 L 53 636 C 73 645 98 650 128 650 C 164 648 192 639 213 622 C 233 605 243 583 243 556 C 243 535 237 518 225 504 C 213 490 200 482 186 478 C 196 475 207 471 217 465 C 227 459 237 452 245 443 C 253 434 259 423 264 411 C 269 398 272 384 272 368 C 272 330 258 299 232 276 C 205 252 168 241 120 241 C 106 241 92 242 79 245 C 66 247 55 251 46 255 L 41 326 Z" unicode="³" />
<glyph horiz-adv-x="500" d="M 185 534 C 208 552 233 574 259 600 C 285 626 307 652 327 680 C 331 686 337 691 343 695 C 349 698 354 700 358 700 C 362 700 367 698 373 694 C 379 690 384 685 390 680 C 395 674 400 669 404 663 C 408 657 410 653 410 649 C 410 645 408 641 405 636 C 402 631 398 626 393 621 C 371 597 348 577 324 559 C 300 541 275 523 247 507 L 185 534 Z" unicode="´" />
<glyph horiz-adv-x="459" d="M 162 -159 C 190 -151 214 -137 232 -117 C 250 -96 259 -67 259 -29 L 259 242 L 251 242 C 223 242 195 246 169 255 C 142 263 118 276 98 293 C 78 310 61 331 49 356 C 37 380 31 409 31 441 C 31 473 37 501 49 526 C 61 551 78 572 98 590 C 118 607 142 620 169 629 C 195 638 223 643 252 643 L 453 643 L 453 545 L 379 545 L 379 -36 C 379 -62 375 -86 367 -108 C 359 -130 348 -149 335 -166 C 321 -183 306 -197 289 -209 C 272 -220 255 -228 237 -233 L 162 -159 Z" unicode="¶" />
<glyph horiz-adv-x="210" d="M 34 270 C 34 290 40 307 54 321 C 68 335 85 342 105 342 C 124 342 141 335 155 321 C 169 307 176 290 176 270 C 176 250 169 234 155 220 C 141 206 124 199 105 199 C 85 199 68 206 54 220 C 40 234 34 250 34 270 Z" unicode="·" />
<glyph horiz-adv-x="500" d="M 157 -154 C 175 -167 197 -174 222 -174 C 234 -174 244 -170 252 -162 C 260 -154 265 -144 265 -132 C 265 -118 260 -108 252 -101 C 244 -93 236 -90 229 -90 C 213 -90 202 -86 196 -78 C 189 -70 187 -60 191 -49 L 203 0 L 245 0 L 239 -27 C 251 -27 262 -30 274 -35 C 285 -40 295 -47 305 -56 C 314 -65 321 -76 327 -88 C 333 -100 336 -114 336 -129 C 336 -146 332 -161 326 -174 C 319 -187 310 -198 300 -207 C 290 -216 278 -223 264 -227 C 250 -231 237 -234 223 -234 C 207 -234 193 -232 180 -228 C 166 -224 155 -218 145 -211 L 157 -154 Z" unicode="¸" />
<glyph horiz-adv-x="251" d="M 107 545 C 102 541 95 538 86 534 C 77 530 69 528 61 527 L 32 583 C 50 588 67 596 81 606 C 95 616 103 626 107 638 L 186 638 L 186 247 L 107 247 L 107 545 Z" unicode="¹" />
<glyph horiz-adv-x="454" d="M 166 148 C 166 164 172 179 184 191 C 196 203 210 209 227 209 C 244 209 258 203 270 191 C 282 179 288 164 288 148 C 288 130 282 116 270 104 C 258 92 244 87 227 87 C 210 87 196 92 184 104 C 172 116 166 130 166 148 Z M 30 461 C 30 489 35 515 45 539 C 55 562 69 582 87 599 C 105 616 126 629 150 639 C 174 648 199 653 227 653 C 254 653 280 648 304 639 C 328 629 348 616 366 599 C 384 582 398 562 408 539 C 418 515 424 489 424 461 C 424 432 418 406 408 383 C 398 359 384 339 366 323 C 348 306 328 293 304 284 C 280 274 254 270 227 270 C 199 270 174 274 150 284 C 126 293 105 306 87 323 C 69 339 55 359 45 383 C 35 406 30 432 30 461 Z M 321 461 C 321 492 311 517 293 536 C 274 555 252 565 227 565 C 214 565 202 562 191 557 C 179 552 169 545 161 536 C 152 527 145 516 140 503 C 135 490 133 476 133 461 C 133 445 135 431 140 419 C 145 406 152 395 161 386 C 169 376 179 369 191 364 C 202 358 214 356 227 356 C 239 356 251 358 263 364 C 274 369 284 376 293 386 C 301 395 308 406 313 419 C 318 431 321 445 321 461 Z" unicode="º" />
<glyph horiz-adv-x="420" d="M 33 101 C 41 123 50 145 60 166 C 69 186 80 206 92 226 C 80 245 69 265 60 286 C 50 306 41 328 33 351 L 49 387 C 64 365 84 343 108 319 C 132 295 156 275 181 257 C 186 253 190 248 194 242 C 198 236 200 230 200 226 C 200 221 198 216 195 210 C 191 204 187 199 181 195 C 156 177 132 157 108 133 C 84 109 64 86 49 65 L 33 101 Z M 238 101 C 246 123 255 145 264 166 C 273 186 284 206 296 226 C 284 245 273 265 264 286 C 255 306 246 328 238 351 L 253 387 C 268 365 288 343 312 319 C 336 295 360 275 385 257 C 390 253 395 248 399 242 C 403 236 405 230 405 226 C 405 221 403 216 399 210 C 395 204 391 199 385 195 C 360 177 336 157 312 133 C 288 109 268 86 253 65 L 238 101 Z" unicode="»" />
<glyph horiz-adv-x="738" d="M 400 111 L 386 174 L 570 397 L 646 397 L 646 175 L 696 175 L 696 111 L 646 111 L 646 0 L 567 0 L 567 111 L 400 111 Z M 567 261 C 567 268 567 275 567 282 C 567 288 568 295 570 303 L 568 304 C 558 286 548 271 537 259 L 469 175 L 567 175 L 567 261 Z M 580 653 L 625 616 L 115 -15 L 68 22 L 580 653 Z M 107 545 C 102 541 95 538 86 534 C 77 530 69 528 61 527 L 32 583 C 50 588 67 596 81 606 C 95 616 103 626 107 638 L 186 638 L 186 247 L 107 247 L 107 545 Z" unicode="¼" />
<glyph horiz-adv-x="797" d="M 478 21 C 536 71 580 116 610 158 C 640 200 656 235 656 263 C 656 285 649 302 635 315 C 621 328 603 335 579 335 C 562 335 547 332 533 328 C 519 324 506 318 494 311 L 479 377 C 491 384 507 390 525 395 C 543 400 563 403 585 403 C 633 403 671 390 697 366 C 723 341 736 308 736 266 C 736 236 725 203 705 169 C 684 135 656 100 620 66 L 757 66 L 757 0 L 478 0 L 478 21 Z M 580 653 L 625 616 L 115 -15 L 68 22 L 580 653 Z M 107 545 C 102 541 95 538 86 534 C 77 530 69 528 61 527 L 32 583 C 50 588 67 596 81 606 C 95 616 103 626 107 638 L 186 638 L 186 247 L 107 247 L 107 545 Z" unicode="½" />
<glyph horiz-adv-x="766" d="M 440 108 L 424 171 L 607 397 L 679 397 L 679 174 L 728 174 L 728 108 L 679 108 L 679 0 L 601 0 L 601 108 L 440 108 Z M 602 256 C 602 269 603 283 605 297 L 603 298 C 594 283 584 269 573 255 L 507 174 L 602 174 L 602 256 Z M 617 653 L 663 616 L 152 -15 L 105 22 L 617 653 Z M 41 326 C 52 320 64 316 76 313 C 88 309 100 308 112 308 C 131 308 148 313 164 325 C 180 336 188 352 188 372 C 188 388 181 403 169 415 C 157 427 140 434 120 434 C 117 434 114 434 111 434 C 108 434 105 433 102 432 L 97 493 C 116 496 131 502 143 512 C 155 522 161 533 162 547 C 162 557 158 565 150 572 C 142 579 130 583 116 583 C 95 583 76 579 58 570 L 53 636 C 73 645 98 650 128 650 C 164 648 192 639 213 622 C 233 605 243 583 243 556 C 243 535 237 518 225 504 C 213 490 200 482 186 478 C 196 475 207 471 217 465 C 227 459 237 452 245 443 C 253 434 259 423 264 411 C 269 398 272 384 272 368 C 272 330 258 299 232 276 C 205 252 168 241 120 241 C 106 241 92 242 79 245 C 66 247 55 251 46 255 L 41 326 Z" unicode="¾" />
<glyph horiz-adv-x="380" d="M 257 431 C 259 421 261 413 262 405 C 263 397 264 389 264 380 C 264 353 259 328 249 304 C 239 280 224 258 206 239 C 190 223 179 208 171 195 C 163 182 159 167 159 149 C 159 135 164 122 176 110 C 187 98 204 92 226 92 C 246 92 264 95 281 101 C 298 107 315 116 332 126 L 356 23 C 338 11 318 2 296 -3 C 273 -9 248 -12 221 -12 C 193 -12 168 -9 145 -1 C 122 6 102 17 86 31 C 70 45 57 62 48 82 C 38 102 34 125 34 151 C 34 180 41 207 55 231 C 69 255 91 282 119 313 C 133 328 143 343 149 357 C 155 371 158 385 158 400 C 158 418 156 435 153 452 L 257 431 Z M 273 581 C 273 561 266 544 252 530 C 238 516 222 509 202 509 C 182 509 166 516 152 530 C 138 544 131 561 131 581 C 131 600 138 617 152 631 C 166 644 182 651 202 651 C 222 651 238 644 252 631 C 266 617 273 600 273 581 Z" unicode="¿" />
<glyph horiz-adv-x="624" d="M 198 818 C 186 829 181 839 181 847 C 181 851 183 856 187 862 C 191 868 195 873 201 879 C 207 885 213 890 219 894 C 225 898 230 900 235 900 C 239 900 244 898 251 894 C 257 890 263 885 268 879 C 287 852 310 826 336 800 C 362 774 386 753 410 736 L 342 707 C 314 723 289 739 265 757 C 241 775 219 795 198 818 Z M 344 645 C 356 625 371 600 387 569 C 403 538 420 504 437 466 C 453 428 470 389 487 347 C 503 305 519 263 533 222 C 547 180 559 140 570 102 C 580 64 588 30 593 0 L 469 0 C 463 24 457 50 451 76 C 444 102 437 128 430 154 L 186 154 C 170 102 157 50 148 0 L 24 0 C 28 30 36 64 47 102 C 57 140 70 180 84 222 C 98 263 114 305 130 347 C 146 389 163 428 180 466 C 197 504 214 538 230 569 C 246 600 260 625 273 645 L 344 645 Z M 308 469 C 296 445 282 415 266 377 C 250 339 234 297 218 253 L 398 253 C 382 297 367 339 351 377 C 335 415 321 445 310 469 L 308 469 Z" unicode="À" />
<glyph horiz-adv-x="624" d="M 221 734 C 244 752 269 774 295 800 C 321 826 343 852 363 880 C 367 886 373 891 379 895 C 385 898 390 900 394 900 C 398 900 403 898 409 894 C 415 890 420 885 426 880 C 431 874 436 869 440 863 C 444 857 446 853 446 849 C 446 845 444 841 441 836 C 438 831 434 826 429 821 C 407 797 384 777 360 759 C 336 741 311 723 283 707 L 221 734 Z M 344 645 C 356 625 371 600 387 569 C 403 538 420 504 437 466 C 453 428 470 389 487 347 C 503 305 519 263 533 222 C 547 180 559 140 570 102 C 580 64 588 30 593 0 L 469 0 C 463 24 457 50 451 76 C 444 102 437 128 430 154 L 186 154 C 170 102 157 50 148 0 L 24 0 C 28 30 36 64 47 102 C 57 140 70 180 84 222 C 98 263 114 305 130 347 C 146 389 163 428 180 466 C 197 504 214 538 230 569 C 246 600 260 625 273 645 L 344 645 Z M 308 469 C 296 445 282 415 266 377 C 250 339 234 297 218 253 L 398 253 C 382 297 367 339 351 377 C 335 415 321 445 310 469 L 308 469 Z" unicode="Á" />
<glyph horiz-adv-x="624" d="M 137 735 C 159 752 184 774 210 800 C 236 826 259 852 279 879 C 283 885 289 890 295 894 C 301 898 306 900 312 900 C 317 900 323 898 329 894 C 335 890 340 885 345 879 C 364 852 387 826 413 800 C 439 774 463 753 487 736 L 419 707 C 399 718 380 730 361 743 C 341 756 323 770 307 785 C 290 771 273 757 255 744 C 237 730 219 718 200 707 L 137 735 Z M 344 645 C 356 625 371 600 387 569 C 403 538 420 504 437 466 C 453 428 470 389 487 347 C 503 305 519 263 533 222 C 547 180 559 140 570 102 C 580 64 588 30 593 0 L 469 0 C 463 24 457 50 451 76 C 444 102 437 128 430 154 L 186 154 C 170 102 157 50 148 0 L 24 0 C 28 30 36 64 47 102 C 57 140 70 180 84 222 C 98 263 114 305 130 347 C 146 389 163 428 180 466 C 197 504 214 538 230 569 C 246 600 260 625 273 645 L 344 645 Z M 308 469 C 296 445 282 415 266 377 C 250 339 234 297 218 253 L 398 253 C 382 297 367 339 351 377 C 335 415 321 445 310 469 L 308 469 Z" unicode="Â" />
<glyph horiz-adv-x="624" d="M 136 739 C 142 750 151 763 162 779 C 172 794 184 808 196 822 C 208 836 221 847 233 857 C 245 867 255 872 265 872 C 273 872 282 869 292 864 C 302 859 312 854 322 848 C 332 842 341 837 350 832 C 358 827 365 825 371 825 C 376 825 382 827 388 831 C 394 835 401 841 407 848 C 413 854 418 861 424 869 C 430 876 435 882 439 888 L 507 858 C 500 846 491 833 481 818 C 470 802 459 788 447 774 C 435 760 422 749 410 739 C 398 729 387 725 379 725 C 371 725 362 727 352 732 C 342 737 332 742 322 748 C 312 754 302 759 294 764 C 285 769 278 772 272 772 C 266 772 260 769 254 765 C 248 760 242 754 236 748 C 230 742 224 735 218 728 C 212 720 208 714 204 709 L 136 739 Z M 344 645 C 356 625 371 600 387 569 C 403 538 420 504 437 466 C 453 428 470 389 487 347 C 503 305 519 263 533 222 C 547 180 559 140 570 102 C 580 64 588 30 593 0 L 469 0 C 463 24 457 50 451 76 C 444 102 437 128 430 154 L 186 154 C 170 102 157 50 148 0 L 24 0 C 28 30 36 64 47 102 C 57 140 70 180 84 222 C 98 263 114 305 130 347 C 146 389 163 428 180 466 C 197 504 214 538 230 569 C 246 600 260 625 273 645 L 344 645 Z M 308 469 C 296 445 282 415 266 377 C 250 339 234 297 218 253 L 398 253 C 382 297 367 339 351 377 C 335 415 321 445 310 469 L 308 469 Z" unicode="Ã" />
<glyph horiz-adv-x="624" d="M 170 766 C 170 782 175 796 187 808 C 199 820 213 826 229 826 C 245 826 259 820 271 808 C 283 796 289 782 289 766 C 289 750 283 736 271 724 C 259 712 245 707 229 707 C 213 707 199 712 187 724 C 175 736 170 750 170 766 Z M 335 766 C 335 782 340 796 352 808 C 364 820 378 826 394 826 C 410 826 424 820 436 808 C 448 796 454 782 454 766 C 454 750 448 736 436 724 C 424 712 410 707 394 707 C 378 707 364 712 352 724 C 340 736 335 750 335 766 Z M 344 645 C 356 625 371 600 387 569 C 403 538 420 504 437 466 C 453 428 470 389 487 347 C 503 305 519 263 533 222 C 547 180 559 140 570 102 C 580 64 588 30 593 0 L 469 0 C 463 24 457 50 451 76 C 444 102 437 128 430 154 L 186 154 C 170 102 157 50 148 0 L 24 0 C 28 30 36 64 47 102 C 57 140 70 180 84 222 C 98 263 114 305 130 347 C 146 389 163 428 180 466 C 197 504 214 538 230 569 C 246 600 260 625 273 645 L 344 645 Z M 308 469 C 296 445 282 415 266 377 C 250 339 234 297 218 253 L 398 253 C 382 297 367 339 351 377 C 335 415 321 445 310 469 L 308 469 Z" unicode="Ä" />
<glyph horiz-adv-x="624" d="M 193 813 C 193 829 196 844 202 859 C 208 873 217 886 228 897 C 239 907 252 916 267 922 C 281 928 297 932 313 932 C 329 932 344 928 359 922 C 373 916 386 907 397 897 C 408 886 417 873 423 859 C 429 844 433 829 433 813 C 433 797 429 781 423 767 C 417 752 408 739 397 729 C 386 718 373 709 359 703 C 344 697 329 694 313 694 C 297 694 281 697 267 703 C 252 709 239 718 228 729 C 217 739 208 752 202 767 C 196 781 193 797 193 813 Z M 359 813 C 359 827 354 839 346 849 C 337 858 326 863 313 863 C 299 863 288 858 280 849 C 271 839 267 827 267 813 C 267 798 271 786 280 777 C 288 767 299 763 313 763 C 326 763 337 767 346 777 C 354 786 359 798 359 813 Z M 344 645 C 356 625 371 600 387 569 C 403 538 420 504 437 466 C 453 428 470 389 487 347 C 503 305 519 263 533 222 C 547 180 559 140 570 102 C 580 64 588 30 593 0 L 469 0 C 463 24 457 50 451 76 C 444 102 437 128 430 154 L 186 154 C 170 102 157 50 148 0 L 24 0 C 28 30 36 64 47 102 C 57 140 70 180 84 222 C 98 263 114 305 130 347 C 146 389 163 428 180 466 C 197 504 214 538 230 569 C 246 600 260 625 273 645 L 344 645 Z M 308 469 C 296 445 282 415 266 377 C 250 339 234 297 218 253 L 398 253 C 382 297 367 339 351 377 C 335 415 321 445 310 469 L 308 469 Z" unicode="Å" />
<glyph horiz-adv-x="812" d="M 774 638 L 774 533 L 543 533 L 543 373 L 735 373 L 735 267 L 543 267 L 543 105 L 806 105 L 806 0 L 426 0 L 426 154 L 230 154 L 140 0 L 15 0 L 385 638 L 774 638 Z M 426 439 C 426 457 426 473 426 487 C 426 500 427 515 428 533 L 426 534 C 419 517 412 501 404 485 C 396 469 388 453 380 438 L 278 253 L 426 253 L 426 439 Z" unicode="Æ" />
<glyph horiz-adv-x="595" d="M 297 -154 C 315 -167 337 -174 362 -174 C 374 -174 384 -170 392 -162 C 400 -154 405 -144 405 -132 C 405 -118 400 -108 392 -101 C 384 -93 376 -90 369 -90 C 353 -90 342 -86 336 -78 C 329 -70 327 -60 331 -49 L 342 -5 C 304 -1 266 7 230 23 C 193 39 160 60 132 87 C 103 114 80 147 62 186 C 44 224 36 269 36 319 C 36 373 46 420 66 461 C 86 501 113 535 146 563 C 178 591 215 611 255 625 C 295 639 336 646 376 646 C 418 646 454 642 484 634 C 514 626 539 617 559 606 L 536 497 C 520 506 500 515 474 523 C 448 531 420 535 390 535 C 360 535 332 530 305 520 C 277 510 253 496 232 478 C 211 460 194 437 182 410 C 169 382 163 351 163 317 C 163 282 169 251 182 224 C 194 197 211 174 232 156 C 253 137 278 123 306 113 C 334 103 363 99 394 99 C 426 99 454 101 478 107 C 502 113 524 121 542 131 L 531 20 C 513 10 492 4 469 0 C 446 -4 418 -6 384 -7 L 379 -27 C 391 -27 402 -30 414 -35 C 425 -40 435 -47 445 -56 C 454 -65 461 -76 467 -88 C 473 -100 476 -114 476 -129 C 476 -146 472 -161 466 -174 C 459 -187 450 -198 440 -207 C 430 -216 418 -223 404 -227 C 390 -231 377 -234 363 -234 C 347 -234 333 -232 320 -228 C 306 -224 295 -218 285 -211 L 297 -154 Z" unicode="Ç" />
<glyph horiz-adv-x="452" d="M 414 638 L 414 533 L 183 533 L 183 373 L 375 373 L 375 267 L 183 267 L 183 105 L 446 105 L 446 0 L 58 0 L 58 638 L 414 638 Z M 126 818 C 114 829 109 839 109 847 C 109 851 111 856 115 862 C 119 868 123 873 129 879 C 135 885 141 890 147 894 C 153 898 158 900 163 900 C 167 900 172 898 179 894 C 185 890 191 885 196 879 C 215 852 238 826 264 800 C 290 774 314 753 338 736 L 270 707 C 242 723 217 739 193 757 C 169 775 147 795 126 818 Z" unicode="È" />
<glyph horiz-adv-x="452" d="M 414 638 L 414 533 L 183 533 L 183 373 L 375 373 L 375 267 L 183 267 L 183 105 L 446 105 L 446 0 L 58 0 L 58 638 L 414 638 Z M 164 734 C 187 752 212 774 238 800 C 264 826 286 852 306 880 C 310 886 316 891 322 895 C 328 898 333 900 337 900 C 341 900 346 898 352 894 C 358 890 363 885 369 880 C 374 874 379 869 383 863 C 387 857 389 853 389 849 C 389 845 387 841 384 836 C 381 831 377 826 372 821 C 350 797 327 777 303 759 C 279 741 254 723 226 707 L 164 734 Z" unicode="É" />
<glyph horiz-adv-x="452" d="M 414 638 L 414 533 L 183 533 L 183 373 L 375 373 L 375 267 L 183 267 L 183 105 L 446 105 L 446 0 L 58 0 L 58 638 L 414 638 Z M 73 735 C 95 752 120 774 146 800 C 172 826 195 852 215 879 C 219 885 225 890 231 894 C 237 898 242 900 248 900 C 253 900 259 898 265 894 C 271 890 276 885 281 879 C 300 852 323 826 349 800 C 375 774 399 753 423 736 L 355 707 C 335 718 316 730 297 743 C 277 756 259 770 243 785 C 226 771 209 757 191 744 C 173 730 155 718 136 707 L 73 735 Z" unicode="Ê" />
<glyph horiz-adv-x="452" d="M 414 638 L 414 533 L 183 533 L 183 373 L 375 373 L 375 267 L 183 267 L 183 105 L 446 105 L 446 0 L 58 0 L 58 638 L 414 638 Z M 102 766 C 102 782 107 796 119 808 C 131 820 145 826 161 826 C 177 826 191 820 203 808 C 215 796 221 782 221 766 C 221 750 215 736 203 724 C 191 712 177 707 161 707 C 145 707 131 712 119 724 C 107 736 102 750 102 766 Z M 267 766 C 267 782 272 796 284 808 C 296 820 310 826 326 826 C 342 826 356 820 368 808 C 380 796 386 782 386 766 C 386 750 380 736 368 724 C 356 712 342 707 326 707 C 310 707 296 712 284 724 C 272 736 267 750 267 766 Z" unicode="Ë" />
<glyph horiz-adv-x="263" d="M 194 638 L 194 0 L 68 0 L 68 638 L 194 638 Z M 13 818 C 1 829 -4 839 -4 847 C -4 851 -2 856 2 862 C 6 868 10 873 16 879 C 22 885 28 890 34 894 C 40 898 45 900 50 900 C 54 900 59 898 66 894 C 72 890 78 885 83 879 C 102 852 125 826 151 800 C 177 774 201 753 225 736 L 157 707 C 129 723 104 739 80 757 C 56 775 34 795 13 818 Z" unicode="Ì" />
<glyph horiz-adv-x="263" d="M 194 638 L 194 0 L 68 0 L 68 638 L 194 638 Z M 41 734 C 64 752 89 774 115 800 C 141 826 163 852 183 880 C 187 886 193 891 199 895 C 205 898 210 900 214 900 C 218 900 223 898 229 894 C 235 890 240 885 246 880 C 251 874 256 869 260 863 C 264 857 266 853 266 849 C 266 845 264 841 261 836 C 258 831 254 826 249 821 C 227 797 204 777 180 759 C 156 741 131 723 103 707 L 41 734 Z" unicode="Í" />
<glyph horiz-adv-x="263" d="M 194 638 L 194 0 L 68 0 L 68 638 L 194 638 Z M -40 735 C -17 752 7 774 33 800 C 59 826 82 852 102 879 C 106 885 112 890 118 894 C 124 898 129 900 135 900 C 140 900 146 898 152 894 C 158 890 163 885 168 879 C 187 852 210 826 236 800 C 262 774 286 753 310 736 L 242 707 C 222 718 203 730 184 743 C 164 756 146 770 130 785 C 113 771 96 757 78 744 C 60 730 42 718 23 707 L -40 735 Z" unicode="Î" />
<glyph horiz-adv-x="263" d="M 194 638 L 194 0 L 68 0 L 68 638 L 194 638 Z M -10 766 C -10 782 -4 796 7 808 C 19 820 33 826 49 826 C 65 826 79 820 91 808 C 103 796 109 782 109 766 C 109 750 103 736 91 724 C 79 712 65 707 49 707 C 33 707 19 712 7 724 C -4 736 -10 750 -10 766 Z M 155 766 C 155 782 160 796 172 808 C 184 820 198 826 214 826 C 230 826 244 820 256 808 C 268 796 274 782 274 766 C 274 750 268 736 256 724 C 244 712 230 707 214 707 C 198 707 184 712 172 724 C 160 736 155 750 155 766 Z" unicode="Ï" />
<glyph horiz-adv-x="670" d="M 9 275 L 9 366 L 85 366 L 85 638 L 291 638 C 336 638 379 630 421 616 C 462 602 498 581 530 554 C 562 526 587 493 606 454 C 624 414 634 369 634 319 C 634 268 624 223 606 184 C 587 144 562 111 530 84 C 498 56 462 35 421 21 C 379 7 336 0 291 0 L 85 0 L 85 275 L 9 275 Z M 275 102 C 307 102 337 106 366 115 C 394 123 419 137 441 155 C 462 173 479 195 491 222 C 503 249 510 281 510 318 C 510 354 503 386 491 413 C 479 440 462 463 441 481 C 419 499 394 512 366 521 C 337 529 307 534 275 534 L 209 534 L 209 366 L 321 366 L 305 275 L 209 275 L 209 102 L 275 102 Z" unicode="Ð" />
<glyph horiz-adv-x="702" d="M 157 638 C 189 614 222 586 255 556 C 287 526 319 494 350 460 C 381 426 411 391 440 355 C 468 319 495 283 521 249 L 523 250 C 523 255 522 265 522 279 C 522 293 521 310 521 330 C 521 349 521 370 521 393 C 521 415 521 438 521 461 L 521 638 L 644 638 L 644 0 L 545 0 C 519 42 491 84 461 125 C 431 166 401 205 370 243 C 339 281 308 316 276 350 C 244 384 212 415 181 443 L 179 442 C 179 435 179 424 179 408 C 179 392 180 373 180 351 C 180 329 181 305 181 279 C 181 253 181 227 181 201 L 181 0 L 58 0 L 58 638 L 157 638 Z M 171 739 C 177 750 186 763 197 779 C 207 794 219 808 231 822 C 243 836 256 847 268 857 C 280 867 290 872 300 872 C 308 872 317 869 327 864 C 337 859 347 854 357 848 C 367 842 376 837 385 832 C 393 827 400 825 406 825 C 411 825 417 827 423 831 C 429 835 436 841 442 848 C 448 854 453 861 459 869 C 465 876 470 882 474 888 L 542 858 C 535 846 526 833 516 818 C 505 802 494 788 482 774 C 470 760 457 749 445 739 C 433 729 422 725 414 725 C 406 725 397 727 387 732 C 377 737 367 742 357 748 C 347 754 337 759 329 764 C 320 769 313 772 307 772 C 301 772 295 769 289 765 C 283 760 277 754 271 748 C 265 742 259 735 253 728 C 247 720 243 714 239 709 L 171 739 Z" unicode="Ñ" />
<glyph horiz-adv-x="754" d="M 36 320 C 36 371 45 417 65 458 C 84 499 109 534 141 563 C 173 591 209 613 250 629 C 291 644 333 652 377 652 C 420 652 462 644 503 629 C 544 613 580 591 612 563 C 644 534 669 499 689 458 C 708 417 718 371 718 320 C 718 268 708 222 689 181 C 669 139 644 104 612 76 C 580 47 544 25 503 10 C 462 -5 420 -13 377 -13 C 333 -13 291 -5 250 10 C 209 25 173 47 141 76 C 109 104 84 139 65 181 C 45 222 36 268 36 320 Z M 590 318 C 590 352 583 383 571 411 C 559 438 543 461 523 480 C 503 499 480 514 455 524 C 429 534 403 540 377 540 C 350 540 324 535 298 525 C 272 515 250 500 230 481 C 210 462 194 439 182 411 C 170 383 164 352 164 318 C 164 283 170 252 182 225 C 194 197 210 174 230 155 C 250 135 272 120 298 110 C 324 100 350 95 377 95 C 403 95 428 100 454 110 C 480 120 503 135 523 154 C 543 173 559 196 571 224 C 583 252 590 283 590 318 Z M 257 818 C 245 829 240 839 240 847 C 240 851 242 856 246 862 C 250 868 254 873 260 879 C 266 885 272 890 278 894 C 284 898 289 900 294 900 C 298 900 303 898 310 894 C 316 890 322 885 327 879 C 346 852 369 826 395 800 C 421 774 445 753 469 736 L 401 707 C 373 723 348 739 324 757 C 300 775 278 795 257 818 Z" unicode="Ò" />
<glyph horiz-adv-x="754" d="M 36 320 C 36 371 45 417 65 458 C 84 499 109 534 141 563 C 173 591 209 613 250 629 C 291 644 333 652 377 652 C 420 652 462 644 503 629 C 544 613 580 591 612 563 C 644 534 669 499 689 458 C 708 417 718 371 718 320 C 718 268 708 222 689 181 C 669 139 644 104 612 76 C 580 47 544 25 503 10 C 462 -5 420 -13 377 -13 C 333 -13 291 -5 250 10 C 209 25 173 47 141 76 C 109 104 84 139 65 181 C 45 222 36 268 36 320 Z M 590 318 C 590 352 583 383 571 411 C 559 438 543 461 523 480 C 503 499 480 514 455 524 C 429 534 403 540 377 540 C 350 540 324 535 298 525 C 272 515 250 500 230 481 C 210 462 194 439 182 411 C 170 383 164 352 164 318 C 164 283 170 252 182 225 C 194 197 210 174 230 155 C 250 135 272 120 298 110 C 324 100 350 95 377 95 C 403 95 428 100 454 110 C 480 120 503 135 523 154 C 543 173 559 196 571 224 C 583 252 590 283 590 318 Z M 282 734 C 305 752 330 774 356 800 C 382 826 404 852 424 880 C 428 886 434 891 440 895 C 446 898 451 900 455 900 C 459 900 464 898 470 894 C 476 890 481 885 487 880 C 492 874 497 869 501 863 C 505 857 507 853 507 849 C 507 845 505 841 502 836 C 499 831 495 826 490 821 C 468 797 445 777 421 759 C 397 741 372 723 344 707 L 282 734 Z" unicode="Ó" />
<glyph horiz-adv-x="754" d="M 36 320 C 36 371 45 417 65 458 C 84 499 109 534 141 563 C 173 591 209 613 250 629 C 291 644 333 652 377 652 C 420 652 462 644 503 629 C 544 613 580 591 612 563 C 644 534 669 499 689 458 C 708 417 718 371 718 320 C 718 268 708 222 689 181 C 669 139 644 104 612 76 C 580 47 544 25 503 10 C 462 -5 420 -13 377 -13 C 333 -13 291 -5 250 10 C 209 25 173 47 141 76 C 109 104 84 139 65 181 C 45 222 36 268 36 320 Z M 590 318 C 590 352 583 383 571 411 C 559 438 543 461 523 480 C 503 499 480 514 455 524 C 429 534 403 540 377 540 C 350 540 324 535 298 525 C 272 515 250 500 230 481 C 210 462 194 439 182 411 C 170 383 164 352 164 318 C 164 283 170 252 182 225 C 194 197 210 174 230 155 C 250 135 272 120 298 110 C 324 100 350 95 377 95 C 403 95 428 100 454 110 C 480 120 503 135 523 154 C 543 173 559 196 571 224 C 583 252 590 283 590 318 Z M 200 735 C 222 752 247 774 273 800 C 299 826 322 852 342 879 C 346 885 352 890 358 894 C 364 898 369 900 375 900 C 380 900 386 898 392 894 C 398 890 403 885 408 879 C 427 852 450 826 476 800 C 502 774 526 753 550 736 L 482 707 C 462 718 443 730 424 743 C 404 756 386 770 370 785 C 353 771 336 757 318 744 C 300 730 282 718 263 707 L 200 735 Z" unicode="Ô" />
<glyph horiz-adv-x="754" d="M 36 320 C 36 371 45 417 65 458 C 84 499 109 534 141 563 C 173 591 209 613 250 629 C 291 644 333 652 377 652 C 420 652 462 644 503 629 C 544 613 580 591 612 563 C 644 534 669 499 689 458 C 708 417 718 371 718 320 C 718 268 708 222 689 181 C 669 139 644 104 612 76 C 580 47 544 25 503 10 C 462 -5 420 -13 377 -13 C 333 -13 291 -5 250 10 C 209 25 173 47 141 76 C 109 104 84 139 65 181 C 45 222 36 268 36 320 Z M 590 318 C 590 352 583 383 571 411 C 559 438 543 461 523 480 C 503 499 480 514 455 524 C 429 534 403 540 377 540 C 350 540 324 535 298 525 C 272 515 250 500 230 481 C 210 462 194 439 182 411 C 170 383 164 352 164 318 C 164 283 170 252 182 225 C 194 197 210 174 230 155 C 250 135 272 120 298 110 C 324 100 350 95 377 95 C 403 95 428 100 454 110 C 480 120 503 135 523 154 C 543 173 559 196 571 224 C 583 252 590 283 590 318 Z M 199 739 C 205 750 214 763 225 779 C 235 794 247 808 259 822 C 271 836 284 847 296 857 C 308 867 318 872 328 872 C 336 872 345 869 355 864 C 365 859 375 854 385 848 C 395 842 404 837 413 832 C 421 827 428 825 434 825 C 439 825 445 827 451 831 C 457 835 464 841 470 848 C 476 854 481 861 487 869 C 493 876 498 882 502 888 L 570 858 C 563 846 554 833 544 818 C 533 802 522 788 510 774 C 498 760 485 749 473 739 C 461 729 450 725 442 725 C 434 725 425 727 415 732 C 405 737 395 742 385 748 C 375 754 365 759 357 764 C 348 769 341 772 335 772 C 329 772 323 769 317 765 C 311 760 305 754 299 748 C 293 742 287 735 281 728 C 275 720 271 714 267 709 L 199 739 Z" unicode="Õ" />
<glyph horiz-adv-x="754" d="M 36 320 C 36 371 45 417 65 458 C 84 499 109 534 141 563 C 173 591 209 613 250 629 C 291 644 333 652 377 652 C 420 652 462 644 503 629 C 544 613 580 591 612 563 C 644 534 669 499 689 458 C 708 417 718 371 718 320 C 718 268 708 222 689 181 C 669 139 644 104 612 76 C 580 47 544 25 503 10 C 462 -5 420 -13 377 -13 C 333 -13 291 -5 250 10 C 209 25 173 47 141 76 C 109 104 84 139 65 181 C 45 222 36 268 36 320 Z M 590 318 C 590 352 583 383 571 411 C 559 438 543 461 523 480 C 503 499 480 514 455 524 C 429 534 403 540 377 540 C 350 540 324 535 298 525 C 272 515 250 500 230 481 C 210 462 194 439 182 411 C 170 383 164 352 164 318 C 164 283 170 252 182 225 C 194 197 210 174 230 155 C 250 135 272 120 298 110 C 324 100 350 95 377 95 C 403 95 428 100 454 110 C 480 120 503 135 523 154 C 543 173 559 196 571 224 C 583 252 590 283 590 318 Z M 234 766 C 234 782 239 796 251 808 C 263 820 277 826 293 826 C 309 826 323 820 335 808 C 347 796 353 782 353 766 C 353 750 347 736 335 724 C 323 712 309 707 293 707 C 277 707 263 712 251 724 C 239 736 234 750 234 766 Z M 399 766 C 399 782 404 796 416 808 C 428 820 442 826 458 826 C 474 826 488 820 500 808 C 512 796 518 782 518 766 C 518 750 512 736 500 724 C 488 712 474 707 458 707 C 442 707 428 712 416 724 C 404 736 399 750 399 766 Z" unicode="Ö" />
<glyph horiz-adv-x="454" d="M 169 273 L 60 382 L 119 442 L 228 332 L 337 441 L 396 382 L 288 273 L 397 163 L 338 104 L 228 213 L 119 103 L 59 163 L 169 273 Z" unicode="×" />
<glyph horiz-adv-x="754" d="M 139 78 C 107 106 82 141 64 182 C 45 222 36 268 36 320 C 36 371 45 417 65 458 C 84 499 109 534 141 563 C 173 591 209 613 250 629 C 291 644 333 652 377 652 C 409 652 441 647 472 639 C 503 631 533 618 561 601 L 618 670 L 669 627 L 615 560 C 646 531 671 496 690 456 C 708 416 718 370 718 320 C 718 268 708 222 689 181 C 669 139 644 104 612 76 C 580 47 544 25 503 10 C 462 -5 420 -13 377 -13 C 344 -13 312 -8 281 0 C 250 8 221 21 193 38 L 137 -32 L 85 11 L 139 78 Z M 596 318 C 596 349 591 377 581 403 C 571 428 558 450 542 470 L 261 122 C 278 110 297 102 317 97 C 337 91 357 89 377 89 C 404 89 431 94 457 105 C 483 115 507 130 527 150 C 547 170 564 194 577 222 C 589 250 596 282 596 318 Z M 491 513 C 455 535 417 547 377 547 C 349 547 322 541 296 531 C 270 520 246 505 226 485 C 205 465 188 441 176 413 C 164 385 158 353 158 318 C 158 286 162 258 172 233 C 181 207 194 185 210 166 L 491 513 Z" unicode="Ø" />
<glyph horiz-adv-x="653" d="M 58 638 L 184 638 L 184 238 C 184 195 196 161 221 135 C 246 109 282 97 328 97 C 374 97 409 109 434 135 C 459 160 472 194 472 237 L 472 638 L 595 638 L 595 227 C 595 189 588 155 574 125 C 560 95 542 70 518 50 C 494 30 465 14 433 3 C 400 -7 365 -13 327 -13 C 289 -13 253 -7 221 3 C 188 14 160 30 136 50 C 112 70 93 95 79 125 C 65 155 58 189 58 227 L 58 638 Z M 214 818 C 202 829 197 839 197 847 C 197 851 199 856 203 862 C 207 868 211 873 217 879 C 223 885 229 890 235 894 C 241 898 246 900 251 900 C 255 900 260 898 267 894 C 273 890 279 885 284 879 C 303 852 326 826 352 800 C 378 774 402 753 426 736 L 358 707 C 330 723 305 739 281 757 C 257 775 235 795 214 818 Z" unicode="Ù" />
<glyph horiz-adv-x="653" d="M 58 638 L 184 638 L 184 238 C 184 195 196 161 221 135 C 246 109 282 97 328 97 C 374 97 409 109 434 135 C 459 160 472 194 472 237 L 472 638 L 595 638 L 595 227 C 595 189 588 155 574 125 C 560 95 542 70 518 50 C 494 30 465 14 433 3 C 400 -7 365 -13 327 -13 C 289 -13 253 -7 221 3 C 188 14 160 30 136 50 C 112 70 93 95 79 125 C 65 155 58 189 58 227 L 58 638 Z M 237 734 C 260 752 285 774 311 800 C 337 826 359 852 379 880 C 383 886 389 891 395 895 C 401 898 406 900 410 900 C 414 900 419 898 425 894 C 431 890 436 885 442 880 C 447 874 452 869 456 863 C 460 857 462 853 462 849 C 462 845 460 841 457 836 C 454 831 450 826 445 821 C 423 797 400 777 376 759 C 352 741 327 723 299 707 L 237 734 Z" unicode="Ú" />
<glyph horiz-adv-x="653" d="M 58 638 L 184 638 L 184 238 C 184 195 196 161 221 135 C 246 109 282 97 328 97 C 374 97 409 109 434 135 C 459 160 472 194 472 237 L 472 638 L 595 638 L 595 227 C 595 189 588 155 574 125 C 560 95 542 70 518 50 C 494 30 465 14 433 3 C 400 -7 365 -13 327 -13 C 289 -13 253 -7 221 3 C 188 14 160 30 136 50 C 112 70 93 95 79 125 C 65 155 58 189 58 227 L 58 638 Z M 156 735 C 178 752 203 774 229 800 C 255 826 278 852 298 879 C 302 885 308 890 314 894 C 320 898 325 900 331 900 C 336 900 342 898 348 894 C 354 890 359 885 364 879 C 383 852 406 826 432 800 C 458 774 482 753 506 736 L 438 707 C 418 718 399 730 380 743 C 360 756 342 770 326 785 C 309 771 292 757 274 744 C 256 730 238 718 219 707 L 156 735 Z" unicode="Û" />
<glyph horiz-adv-x="653" d="M 58 638 L 184 638 L 184 238 C 184 195 196 161 221 135 C 246 109 282 97 328 97 C 374 97 409 109 434 135 C 459 160 472 194 472 237 L 472 638 L 595 638 L 595 227 C 595 189 588 155 574 125 C 560 95 542 70 518 50 C 494 30 465 14 433 3 C 400 -7 365 -13 327 -13 C 289 -13 253 -7 221 3 C 188 14 160 30 136 50 C 112 70 93 95 79 125 C 65 155 58 189 58 227 L 58 638 Z M 192 766 C 192 782 197 796 209 808 C 221 820 235 826 251 826 C 267 826 281 820 293 808 C 305 796 311 782 311 766 C 311 750 305 736 293 724 C 281 712 267 707 251 707 C 235 707 221 712 209 724 C 197 736 192 750 192 766 Z M 357 766 C 357 782 362 796 374 808 C 386 820 400 826 416 826 C 432 826 446 820 458 808 C 470 796 476 782 476 766 C 476 750 470 736 458 724 C 446 712 432 707 416 707 C 400 707 386 712 374 724 C 362 736 357 750 357 766 Z" unicode="Ü" />
<glyph horiz-adv-x="635" d="M 256 286 C 165 393 85 510 15 638 L 152 638 C 196 552 252 469 320 388 L 322 388 C 387 468 443 552 490 638 L 618 638 C 584 574 547 513 507 455 C 467 397 425 342 379 288 L 379 0 L 256 0 L 256 286 Z M 242 734 C 265 752 290 774 316 800 C 342 826 364 852 384 880 C 388 886 394 891 400 895 C 406 898 411 900 415 900 C 419 900 424 898 430 894 C 436 890 441 885 447 880 C 452 874 457 869 461 863 C 465 857 467 853 467 849 C 467 845 465 841 462 836 C 459 831 455 826 450 821 C 428 797 405 777 381 759 C 357 741 332 723 304 707 L 242 734 Z" unicode="Ý" />
<glyph horiz-adv-x="502" d="M 181 638 L 181 564 L 272 564 C 296 564 321 560 345 552 C 369 544 390 532 409 516 C 427 500 442 481 454 458 C 465 434 471 408 471 378 C 471 348 465 321 454 298 C 442 275 427 256 409 240 C 390 224 369 212 345 204 C 321 196 296 192 272 192 L 181 192 L 181 0 L 58 0 L 58 638 L 181 638 Z M 252 294 C 264 294 275 295 287 299 C 298 302 308 307 317 314 C 326 321 333 330 339 340 C 344 350 347 363 347 378 C 347 392 344 404 339 415 C 333 425 326 434 318 441 C 309 448 299 453 287 457 C 275 460 264 462 252 462 L 181 462 L 181 294 L 252 294 Z" unicode="Þ" />
<glyph horiz-adv-x="606" d="M 264 124 C 281 112 301 101 324 93 C 347 85 371 81 397 81 C 415 81 429 85 440 93 C 451 101 457 112 457 125 C 457 138 452 149 442 157 C 432 165 419 173 402 179 C 356 194 322 213 298 236 C 274 259 262 290 262 328 C 262 346 265 363 272 379 C 279 395 288 408 300 420 C 312 432 325 441 341 448 C 357 455 373 460 391 462 C 393 474 395 487 395 501 C 395 515 392 529 387 543 C 382 556 375 568 366 579 C 356 589 345 598 332 604 C 318 610 303 614 286 614 C 258 614 236 604 221 585 C 206 565 199 538 199 502 L 199 0 L 82 0 L 82 357 L 9 357 L 9 453 L 82 453 L 82 511 C 82 544 86 573 96 598 C 106 623 119 644 137 661 C 154 678 175 691 199 699 C 223 707 250 712 280 712 C 314 712 346 707 375 697 C 403 687 428 673 448 653 C 468 633 484 609 495 581 C 506 552 512 519 512 481 C 512 467 510 451 508 434 C 506 416 503 401 499 388 C 461 388 431 383 409 373 C 387 363 376 350 376 333 C 376 321 380 311 389 304 C 397 296 411 290 431 284 C 479 268 515 249 539 225 C 563 201 575 169 575 129 C 575 110 571 92 564 75 C 557 57 546 42 532 29 C 518 16 500 6 478 -1 C 456 -9 431 -13 403 -13 C 374 -13 348 -9 324 -3 C 300 3 280 12 264 22 L 264 124 Z" unicode="ß" />
<glyph horiz-adv-x="457" d="M 299 50 C 288 27 272 11 251 1 C 229 -8 205 -13 179 -13 C 157 -13 138 -9 120 -2 C 102 5 86 15 73 28 C 59 41 49 56 41 74 C 33 92 30 111 30 132 C 30 153 34 172 42 189 C 50 206 61 221 75 234 C 89 246 105 256 123 264 C 141 271 161 276 182 278 L 281 287 L 281 309 C 281 326 274 340 262 352 C 249 363 229 369 201 369 C 179 369 156 365 134 359 C 111 352 91 343 75 333 L 53 427 C 72 439 95 449 122 456 C 149 462 177 466 207 466 C 235 466 260 462 283 455 C 306 448 326 438 343 424 C 359 410 372 393 382 373 C 391 352 396 328 396 302 L 396 136 C 396 112 401 94 411 81 C 421 68 434 59 450 55 L 370 -15 C 355 -11 341 -4 327 6 C 313 17 304 32 299 50 Z M 281 203 L 210 197 C 186 195 168 187 158 174 C 147 161 142 147 142 132 C 142 118 147 105 157 95 C 167 84 180 79 198 79 C 220 79 240 86 256 102 C 272 117 281 137 281 163 L 281 203 Z M 102 617 C 98 621 94 626 92 630 C 89 634 88 638 88 642 C 88 645 89 649 93 655 C 96 660 100 665 105 670 C 110 674 115 678 120 682 C 125 685 130 687 134 687 C 137 687 141 685 147 682 C 153 678 158 674 162 669 C 178 646 197 624 220 602 C 242 580 263 561 283 547 L 225 523 C 201 536 180 550 160 565 C 140 580 120 597 102 617 Z" unicode="à" />
<glyph horiz-adv-x="457" d="M 299 50 C 288 27 272 11 251 1 C 229 -8 205 -13 179 -13 C 157 -13 138 -9 120 -2 C 102 5 86 15 73 28 C 59 41 49 56 41 74 C 33 92 30 111 30 132 C 30 153 34 172 42 189 C 50 206 61 221 75 234 C 89 246 105 256 123 264 C 141 271 161 276 182 278 L 281 287 L 281 309 C 281 326 274 340 262 352 C 249 363 229 369 201 369 C 179 369 156 365 134 359 C 111 352 91 343 75 333 L 53 427 C 72 439 95 449 122 456 C 149 462 177 466 207 466 C 235 466 260 462 283 455 C 306 448 326 438 343 424 C 359 410 372 393 382 373 C 391 352 396 328 396 302 L 396 136 C 396 112 401 94 411 81 C 421 68 434 59 450 55 L 370 -15 C 355 -11 341 -4 327 6 C 313 17 304 32 299 50 Z M 281 203 L 210 197 C 186 195 168 187 158 174 C 147 161 142 147 142 132 C 142 118 147 105 157 95 C 167 84 180 79 198 79 C 220 79 240 86 256 102 C 272 117 281 137 281 163 L 281 203 Z M 142 546 C 161 561 182 580 204 602 C 226 624 246 646 262 670 C 266 675 270 679 276 682 C 281 685 285 687 289 687 C 292 687 296 685 301 682 C 306 678 311 674 316 670 C 320 665 324 660 328 655 C 331 650 333 646 333 643 C 333 640 331 637 329 633 C 326 629 323 624 319 620 C 300 600 280 583 260 567 C 239 551 217 537 194 523 L 142 546 Z" unicode="á" />
<glyph horiz-adv-x="457" d="M 299 50 C 288 27 272 11 251 1 C 229 -8 205 -13 179 -13 C 157 -13 138 -9 120 -2 C 102 5 86 15 73 28 C 59 41 49 56 41 74 C 33 92 30 111 30 132 C 30 153 34 172 42 189 C 50 206 61 221 75 234 C 89 246 105 256 123 264 C 141 271 161 276 182 278 L 281 287 L 281 309 C 281 326 274 340 262 352 C 249 363 229 369 201 369 C 179 369 156 365 134 359 C 111 352 91 343 75 333 L 53 427 C 72 439 95 449 122 456 C 149 462 177 466 207 466 C 235 466 260 462 283 455 C 306 448 326 438 343 424 C 359 410 372 393 382 373 C 391 352 396 328 396 302 L 396 136 C 396 112 401 94 411 81 C 421 68 434 59 450 55 L 370 -15 C 355 -11 341 -4 327 6 C 313 17 304 32 299 50 Z M 281 203 L 210 197 C 186 195 168 187 158 174 C 147 161 142 147 142 132 C 142 118 147 105 157 95 C 167 84 180 79 198 79 C 220 79 240 86 256 102 C 272 117 281 137 281 163 L 281 203 Z M 68 547 C 87 561 108 580 131 602 C 153 624 173 646 189 669 C 193 674 197 678 203 682 C 208 685 213 687 217 687 C 221 687 225 685 231 682 C 237 678 241 674 245 669 C 261 646 280 624 303 602 C 325 580 346 562 366 548 L 308 523 C 291 533 274 543 258 554 C 242 565 227 577 213 589 C 184 564 154 542 122 523 L 68 547 Z" unicode="â" />
<glyph horiz-adv-x="457" d="M 299 50 C 288 27 272 11 251 1 C 229 -8 205 -13 179 -13 C 157 -13 138 -9 120 -2 C 102 5 86 15 73 28 C 59 41 49 56 41 74 C 33 92 30 111 30 132 C 30 153 34 172 42 189 C 50 206 61 221 75 234 C 89 246 105 256 123 264 C 141 271 161 276 182 278 L 281 287 L 281 309 C 281 326 274 340 262 352 C 249 363 229 369 201 369 C 179 369 156 365 134 359 C 111 352 91 343 75 333 L 53 427 C 72 439 95 449 122 456 C 149 462 177 466 207 466 C 235 466 260 462 283 455 C 306 448 326 438 343 424 C 359 410 372 393 382 373 C 391 352 396 328 396 302 L 396 136 C 396 112 401 94 411 81 C 421 68 434 59 450 55 L 370 -15 C 355 -11 341 -4 327 6 C 313 17 304 32 299 50 Z M 281 203 L 210 197 C 186 195 168 187 158 174 C 147 161 142 147 142 132 C 142 118 147 105 157 95 C 167 84 180 79 198 79 C 220 79 240 86 256 102 C 272 117 281 137 281 163 L 281 203 Z M 66 550 C 71 560 78 571 88 584 C 97 597 107 609 117 621 C 127 633 138 643 148 651 C 158 659 168 663 176 663 C 182 663 190 660 199 656 C 207 652 216 647 224 642 C 232 637 240 633 248 629 C 255 625 261 623 266 623 C 270 623 274 625 280 629 C 285 633 290 637 296 643 C 301 649 306 655 311 661 C 315 667 319 672 323 677 L 381 651 C 375 641 368 629 359 616 C 349 603 339 591 329 579 C 319 567 309 558 299 550 C 289 542 280 538 272 538 C 264 538 256 540 248 544 C 240 548 231 552 223 557 C 215 562 207 567 199 571 C 191 575 185 578 181 578 C 177 578 172 576 167 572 C 161 568 156 563 151 558 C 146 552 141 547 136 541 C 131 535 127 529 124 525 L 66 550 Z" unicode="ã" />
<glyph horiz-adv-x="457" d="M 299 50 C 288 27 272 11 251 1 C 229 -8 205 -13 179 -13 C 157 -13 138 -9 120 -2 C 102 5 86 15 73 28 C 59 41 49 56 41 74 C 33 92 30 111 30 132 C 30 153 34 172 42 189 C 50 206 61 221 75 234 C 89 246 105 256 123 264 C 141 271 161 276 182 278 L 281 287 L 281 309 C 281 326 274 340 262 352 C 249 363 229 369 201 369 C 179 369 156 365 134 359 C 111 352 91 343 75 333 L 53 427 C 72 439 95 449 122 456 C 149 462 177 466 207 466 C 235 466 260 462 283 455 C 306 448 326 438 343 424 C 359 410 372 393 382 373 C 391 352 396 328 396 302 L 396 136 C 396 112 401 94 411 81 C 421 68 434 59 450 55 L 370 -15 C 355 -11 341 -4 327 6 C 313 17 304 32 299 50 Z M 281 203 L 210 197 C 186 195 168 187 158 174 C 147 161 142 147 142 132 C 142 118 147 105 157 95 C 167 84 180 79 198 79 C 220 79 240 86 256 102 C 272 117 281 137 281 163 L 281 203 Z M 95 573 C 95 587 100 599 110 609 C 120 619 131 624 145 624 C 159 624 171 619 181 609 C 191 599 196 587 196 573 C 196 559 191 548 181 538 C 171 528 159 523 145 523 C 131 523 120 528 110 538 C 100 548 95 559 95 573 Z M 235 573 C 235 587 240 599 250 609 C 259 619 271 624 285 624 C 299 624 311 619 321 609 C 331 599 336 587 336 573 C 336 559 331 548 321 538 C 311 528 299 523 285 523 C 271 523 259 528 250 538 C 240 548 235 559 235 573 Z" unicode="ä" />
<glyph horiz-adv-x="457" d="M 299 50 C 288 27 272 11 251 1 C 229 -8 205 -13 179 -13 C 157 -13 138 -9 120 -2 C 102 5 86 15 73 28 C 59 41 49 56 41 74 C 33 92 30 111 30 132 C 30 153 34 172 42 189 C 50 206 61 221 75 234 C 89 246 105 256 123 264 C 141 271 161 276 182 278 L 281 287 L 281 309 C 281 326 274 340 262 352 C 249 363 229 369 201 369 C 179 369 156 365 134 359 C 111 352 91 343 75 333 L 53 427 C 72 439 95 449 122 456 C 149 462 177 466 207 466 C 235 466 260 462 283 455 C 306 448 326 438 343 424 C 359 410 372 393 382 373 C 391 352 396 328 396 302 L 396 136 C 396 112 401 94 411 81 C 421 68 434 59 450 55 L 370 -15 C 355 -11 341 -4 327 6 C 313 17 304 32 299 50 Z M 281 203 L 210 197 C 186 195 168 187 158 174 C 147 161 142 147 142 132 C 142 118 147 105 157 95 C 167 84 180 79 198 79 C 220 79 240 86 256 102 C 272 117 281 137 281 163 L 281 203 Z M 107 613 C 107 627 109 640 115 652 C 120 664 127 674 137 684 C 146 693 157 700 169 706 C 181 711 195 714 209 714 C 223 714 236 711 248 706 C 260 700 271 693 281 684 C 290 674 297 664 303 652 C 308 640 311 627 311 613 C 311 599 308 586 303 574 C 297 562 290 551 281 542 C 271 532 260 525 248 520 C 236 514 223 512 209 512 C 195 512 181 514 169 520 C 157 525 146 532 137 542 C 127 551 120 562 115 574 C 109 586 107 599 107 613 Z M 249 613 C 249 625 245 636 237 644 C 229 652 220 656 209 656 C 197 656 188 652 181 644 C 173 636 170 625 170 613 C 170 600 173 590 181 582 C 188 574 197 571 209 571 C 220 571 229 574 237 582 C 245 590 249 600 249 613 Z" unicode="å" />
<glyph horiz-adv-x="725" d="M 30 132 C 30 153 34 172 42 189 C 50 206 61 221 75 234 C 89 246 105 256 123 264 C 141 271 161 276 182 278 L 274 287 C 276 297 279 308 284 319 C 281 333 273 344 260 354 C 246 364 227 369 201 369 C 179 369 156 365 134 359 C 111 352 91 343 75 333 L 53 427 C 72 439 95 449 122 456 C 149 462 177 466 207 466 C 238 466 265 461 289 451 C 313 441 332 427 348 407 C 368 427 391 442 416 452 C 441 461 467 466 495 466 C 526 466 554 461 579 451 C 604 441 625 427 642 411 C 659 394 672 375 681 354 C 690 332 695 311 695 289 C 695 283 694 276 694 270 C 694 264 693 258 692 253 L 633 195 L 386 195 C 387 183 391 170 398 158 C 405 146 415 134 427 124 C 439 113 454 104 472 98 C 490 91 510 88 533 88 C 559 88 584 91 606 98 C 628 105 646 114 662 124 L 650 16 C 633 7 613 0 590 -5 C 567 -10 541 -13 511 -13 C 475 -13 442 -6 411 7 C 379 20 354 39 335 65 C 315 35 292 14 265 3 C 238 -7 209 -13 179 -13 C 157 -13 138 -9 120 -2 C 102 5 86 15 73 28 C 59 41 49 56 41 74 C 33 92 30 111 30 132 Z M 283 142 C 276 160 272 180 270 202 L 210 197 C 186 195 168 187 158 174 C 147 161 142 147 142 132 C 142 118 147 105 157 95 C 167 84 181 79 199 79 C 217 79 234 84 250 95 C 266 106 277 122 283 142 Z M 579 281 C 579 283 580 287 580 292 C 580 301 578 310 574 320 C 570 330 564 338 557 346 C 550 354 542 360 532 365 C 522 369 510 372 498 372 C 472 372 449 363 428 346 C 407 328 394 307 389 281 L 579 281 Z" unicode="æ" />
<glyph horiz-adv-x="450" d="M 211 -132 C 226 -143 244 -149 266 -149 C 276 -149 284 -145 292 -139 C 299 -132 303 -123 303 -113 C 303 -101 299 -93 292 -87 C 284 -81 278 -78 272 -78 C 258 -78 249 -74 244 -67 C 238 -60 237 -52 240 -43 L 249 -7 C 220 -4 192 3 166 15 C 140 27 117 43 97 63 C 77 83 61 106 49 134 C 37 161 31 192 31 226 C 31 262 37 295 51 324 C 65 353 83 378 106 398 C 128 418 154 434 183 445 C 212 455 242 461 273 461 C 330 461 379 449 419 427 L 397 325 C 379 336 362 344 344 349 C 326 353 308 356 289 356 C 271 356 253 352 237 346 C 221 340 206 331 194 320 C 181 308 171 294 164 278 C 156 262 153 244 153 224 C 153 204 156 186 164 170 C 171 154 181 140 194 128 C 206 116 221 107 238 101 C 254 95 272 92 291 92 C 311 92 329 94 346 98 C 363 102 381 108 400 118 L 388 14 C 373 7 357 2 339 -1 C 321 -5 303 -7 284 -8 L 281 -24 C 291 -24 300 -27 310 -31 C 320 -35 329 -41 337 -49 C 345 -56 351 -65 356 -76 C 360 -86 363 -98 363 -111 C 363 -125 360 -138 354 -149 C 348 -160 341 -169 332 -177 C 323 -185 313 -190 302 -194 C 290 -198 279 -200 267 -200 C 241 -200 219 -193 201 -181 L 211 -132 Z" unicode="ç" />
<glyph horiz-adv-x="491" d="M 30 227 C 30 265 36 298 49 328 C 62 357 79 382 101 403 C 122 423 147 439 175 450 C 203 460 231 466 261 466 C 292 466 320 461 345 451 C 369 441 390 427 407 411 C 424 394 437 375 446 354 C 455 332 460 311 460 289 C 460 283 459 276 459 270 C 459 264 458 258 457 253 L 399 195 L 152 195 C 152 183 156 170 163 158 C 170 146 180 134 193 124 C 205 113 220 104 238 98 C 256 91 276 88 299 88 C 325 88 350 91 372 98 C 394 104 412 113 428 124 L 416 16 C 398 7 378 0 356 -5 C 333 -10 307 -13 277 -13 C 243 -13 212 -7 182 4 C 152 15 125 31 103 52 C 80 73 62 98 49 128 C 36 158 30 191 30 227 Z M 345 281 C 345 283 345 284 345 286 C 345 288 346 290 346 292 C 346 301 344 310 340 320 C 336 330 330 338 323 346 C 315 354 307 360 297 365 C 287 369 275 372 263 372 C 238 372 215 363 194 346 C 173 328 160 307 155 281 L 345 281 Z M 159 617 C 155 621 151 626 149 630 C 146 634 145 638 145 642 C 145 645 146 649 150 655 C 153 660 157 665 162 670 C 167 674 172 678 177 682 C 182 685 187 687 191 687 C 194 687 198 685 204 682 C 210 678 215 674 219 669 C 235 646 254 624 277 602 C 299 580 320 561 340 547 L 282 523 C 258 536 237 550 217 565 C 197 580 177 597 159 617 Z" unicode="è" />
<glyph horiz-adv-x="491" d="M 30 227 C 30 265 36 298 49 328 C 62 357 79 382 101 403 C 122 423 147 439 175 450 C 203 460 231 466 261 466 C 292 466 320 461 345 451 C 369 441 390 427 407 411 C 424 394 437 375 446 354 C 455 332 460 311 460 289 C 460 283 459 276 459 270 C 459 264 458 258 457 253 L 399 195 L 152 195 C 152 183 156 170 163 158 C 170 146 180 134 193 124 C 205 113 220 104 238 98 C 256 91 276 88 299 88 C 325 88 350 91 372 98 C 394 104 412 113 428 124 L 416 16 C 398 7 378 0 356 -5 C 333 -10 307 -13 277 -13 C 243 -13 212 -7 182 4 C 152 15 125 31 103 52 C 80 73 62 98 49 128 C 36 158 30 191 30 227 Z M 345 281 C 345 283 345 284 345 286 C 345 288 346 290 346 292 C 346 301 344 310 340 320 C 336 330 330 338 323 346 C 315 354 307 360 297 365 C 287 369 275 372 263 372 C 238 372 215 363 194 346 C 173 328 160 307 155 281 L 345 281 Z M 188 546 C 207 561 228 580 250 602 C 272 624 292 646 308 670 C 312 675 316 679 322 682 C 327 685 331 687 335 687 C 338 687 342 685 347 682 C 352 678 357 674 362 670 C 366 665 370 660 374 655 C 377 650 379 646 379 643 C 379 640 377 637 375 633 C 372 629 369 624 365 620 C 346 600 326 583 306 567 C 285 551 263 537 240 523 L 188 546 Z" unicode="é" />
<glyph horiz-adv-x="491" d="M 30 227 C 30 265 36 298 49 328 C 62 357 79 382 101 403 C 122 423 147 439 175 450 C 203 460 231 466 261 466 C 292 466 320 461 345 451 C 369 441 390 427 407 411 C 424 394 437 375 446 354 C 455 332 460 311 460 289 C 460 283 459 276 459 270 C 459 264 458 258 457 253 L 399 195 L 152 195 C 152 183 156 170 163 158 C 170 146 180 134 193 124 C 205 113 220 104 238 98 C 256 91 276 88 299 88 C 325 88 350 91 372 98 C 394 104 412 113 428 124 L 416 16 C 398 7 378 0 356 -5 C 333 -10 307 -13 277 -13 C 243 -13 212 -7 182 4 C 152 15 125 31 103 52 C 80 73 62 98 49 128 C 36 158 30 191 30 227 Z M 345 281 C 345 283 345 284 345 286 C 345 288 346 290 346 292 C 346 301 344 310 340 320 C 336 330 330 338 323 346 C 315 354 307 360 297 365 C 287 369 275 372 263 372 C 238 372 215 363 194 346 C 173 328 160 307 155 281 L 345 281 Z M 111 547 C 130 561 151 580 174 602 C 196 624 216 646 232 669 C 236 674 240 678 246 682 C 251 685 256 687 260 687 C 264 687 268 685 274 682 C 280 678 284 674 288 669 C 304 646 323 624 346 602 C 368 580 389 562 409 548 L 351 523 C 334 533 317 543 301 554 C 285 565 270 577 256 589 C 227 564 197 542 165 523 L 111 547 Z" unicode="ê" />
<glyph horiz-adv-x="491" d="M 30 227 C 30 265 36 298 49 328 C 62 357 79 382 101 403 C 122 423 147 439 175 450 C 203 460 231 466 261 466 C 292 466 320 461 345 451 C 369 441 390 427 407 411 C 424 394 437 375 446 354 C 455 332 460 311 460 289 C 460 283 459 276 459 270 C 459 264 458 258 457 253 L 399 195 L 152 195 C 152 183 156 170 163 158 C 170 146 180 134 193 124 C 205 113 220 104 238 98 C 256 91 276 88 299 88 C 325 88 350 91 372 98 C 394 104 412 113 428 124 L 416 16 C 398 7 378 0 356 -5 C 333 -10 307 -13 277 -13 C 243 -13 212 -7 182 4 C 152 15 125 31 103 52 C 80 73 62 98 49 128 C 36 158 30 191 30 227 Z M 345 281 C 345 283 345 284 345 286 C 345 288 346 290 346 292 C 346 301 344 310 340 320 C 336 330 330 338 323 346 C 315 354 307 360 297 365 C 287 369 275 372 263 372 C 238 372 215 363 194 346 C 173 328 160 307 155 281 L 345 281 Z M 134 573 C 134 587 139 599 149 609 C 159 619 170 624 184 624 C 198 624 210 619 220 609 C 230 599 235 587 235 573 C 235 559 230 548 220 538 C 210 528 198 523 184 523 C 170 523 159 528 149 538 C 139 548 134 559 134 573 Z M 274 573 C 274 587 279 599 289 609 C 298 619 310 624 324 624 C 338 624 350 619 360 609 C 370 599 375 587 375 573 C 375 559 370 548 360 538 C 350 528 338 523 324 523 C 310 523 298 528 289 538 C 279 548 274 559 274 573 Z" unicode="ë" />
<glyph horiz-adv-x="233" d="M 177 453 L 177 0 L 56 0 L 56 453 L 177 453 Z M 14 617 C 10 621 6 626 4 630 C 1 634 0 638 0 642 C 0 645 1 649 5 655 C 8 660 12 665 17 670 C 22 674 27 678 32 682 C 37 685 42 687 46 687 C 49 687 53 685 59 682 C 65 678 70 674 74 669 C 90 646 109 624 132 602 C 154 580 175 561 195 547 L 137 523 C 113 536 92 550 72 565 C 52 580 32 597 14 617 Z" unicode="ì" />
<glyph horiz-adv-x="233" d="M 177 453 L 177 0 L 56 0 L 56 453 L 177 453 Z M 43 546 C 62 561 83 580 105 602 C 127 624 147 646 163 670 C 167 675 171 679 177 682 C 182 685 186 687 190 687 C 193 687 197 685 202 682 C 207 678 212 674 217 670 C 221 665 225 660 229 655 C 232 650 234 646 234 643 C 234 640 232 637 230 633 C 227 629 224 624 220 620 C 201 600 181 583 161 567 C 140 551 118 537 95 523 L 43 546 Z" unicode="í" />
<glyph horiz-adv-x="233" d="M 177 453 L 177 0 L 56 0 L 56 453 L 177 453 Z M -30 547 C -10 561 10 580 33 602 C 55 624 75 646 91 669 C 95 674 99 678 105 682 C 110 685 115 687 119 687 C 123 687 127 685 133 682 C 139 678 143 674 147 669 C 163 646 182 624 205 602 C 227 580 248 562 268 548 L 210 523 C 193 533 176 543 160 554 C 144 565 129 577 115 589 C 86 564 56 542 24 523 L -30 547 Z" unicode="î" />
<glyph horiz-adv-x="233" d="M 177 453 L 177 0 L 56 0 L 56 453 L 177 453 Z M -2 573 C -2 587 2 599 12 609 C 22 619 33 624 47 624 C 61 624 73 619 83 609 C 93 599 98 587 98 573 C 98 559 93 548 83 538 C 73 528 61 523 47 523 C 33 523 22 528 12 538 C 2 548 -2 559 -2 573 Z M 137 573 C 137 587 142 599 152 609 C 161 619 173 624 187 624 C 201 624 213 619 223 609 C 233 599 238 587 238 573 C 238 559 233 548 223 538 C 213 528 201 523 187 523 C 173 523 161 528 152 538 C 142 548 137 559 137 573 Z" unicode="ï" />
<glyph horiz-adv-x="509" d="M 31 200 C 31 224 34 246 42 268 C 49 289 59 308 71 325 C 83 342 98 357 116 370 C 133 383 152 393 172 401 C 187 406 204 411 222 417 C 240 422 258 426 275 430 L 234 527 L 153 494 L 119 579 L 199 612 L 157 712 L 282 712 L 306 654 L 375 682 L 409 597 L 341 569 L 454 301 C 459 289 463 275 467 258 C 471 241 473 226 473 212 C 473 177 467 146 456 118 C 444 90 429 67 409 47 C 389 27 366 12 339 2 C 312 -7 283 -13 252 -13 C 219 -13 189 -7 162 3 C 135 14 112 29 92 48 C 72 67 57 90 47 116 C 36 142 31 170 31 200 Z M 355 210 C 355 218 353 227 350 238 C 347 248 344 259 340 271 C 336 282 331 293 326 305 C 321 316 317 326 313 334 C 301 332 288 330 274 326 C 260 322 246 318 233 314 C 205 304 184 290 169 271 C 154 252 147 229 147 201 C 147 169 156 142 176 122 C 196 102 220 92 250 92 C 280 92 305 102 325 124 C 345 145 355 174 355 210 Z" unicode="ð" />
<glyph horiz-adv-x="514" d="M 158 453 L 158 393 L 159 393 C 168 415 184 432 207 445 C 230 458 261 465 299 465 C 349 465 389 451 419 423 C 449 395 464 357 464 308 L 464 0 L 345 0 L 345 285 C 345 305 338 323 325 339 C 311 355 289 363 259 363 C 229 363 207 355 192 339 C 176 323 169 304 169 283 L 169 0 L 50 0 L 50 453 L 158 453 Z M 105 550 C 110 560 117 571 127 584 C 136 597 146 609 156 621 C 166 633 177 643 187 651 C 197 659 207 663 215 663 C 221 663 229 660 238 656 C 246 652 255 647 263 642 C 271 637 279 633 287 629 C 294 625 300 623 305 623 C 309 623 313 625 319 629 C 324 633 329 637 335 643 C 340 649 345 655 350 661 C 354 667 358 672 362 677 L 420 651 C 414 641 407 629 398 616 C 388 603 378 591 368 579 C 358 567 348 558 338 550 C 328 542 319 538 311 538 C 303 538 295 540 287 544 C 279 548 270 552 262 557 C 254 562 246 567 238 571 C 230 575 224 578 220 578 C 216 578 211 576 206 572 C 200 568 195 563 190 558 C 185 552 180 547 175 541 C 170 535 166 529 163 525 L 105 550 Z" unicode="ñ" />
<glyph horiz-adv-x="549" d="M 31 226 C 31 262 37 294 50 324 C 62 353 80 378 102 399 C 124 420 149 436 179 448 C 209 460 241 466 275 466 C 309 466 340 460 370 448 C 399 436 425 420 447 399 C 469 378 486 353 499 324 C 511 294 518 262 518 226 C 518 190 511 158 499 129 C 486 99 469 74 447 53 C 425 32 400 16 370 4 C 340 -7 309 -13 275 -13 C 241 -13 209 -7 179 4 C 149 16 124 32 102 53 C 80 74 62 99 50 129 C 37 158 31 190 31 226 Z M 400 224 C 400 244 396 262 390 279 C 383 296 374 311 362 323 C 350 335 337 344 322 351 C 307 357 291 361 275 361 C 258 361 242 357 227 351 C 212 344 199 335 187 323 C 175 311 166 296 160 279 C 153 262 150 244 150 224 C 150 204 153 185 160 169 C 166 152 175 138 187 126 C 199 114 212 104 227 98 C 242 91 258 88 275 88 C 291 88 307 91 322 98 C 337 104 350 114 362 126 C 374 138 383 152 390 169 C 396 185 400 204 400 224 Z M 171 617 C 167 621 163 626 161 630 C 158 634 157 638 157 642 C 157 645 158 649 162 655 C 165 660 169 665 174 670 C 179 674 184 678 189 682 C 194 685 199 687 203 687 C 206 687 210 685 216 682 C 222 678 227 674 231 669 C 247 646 266 624 289 602 C 311 580 332 561 352 547 L 294 523 C 270 536 249 550 229 565 C 209 580 189 597 171 617 Z" unicode="ò" />
<glyph horiz-adv-x="549" d="M 31 226 C 31 262 37 294 50 324 C 62 353 80 378 102 399 C 124 420 149 436 179 448 C 209 460 241 466 275 466 C 309 466 340 460 370 448 C 399 436 425 420 447 399 C 469 378 486 353 499 324 C 511 294 518 262 518 226 C 518 190 511 158 499 129 C 486 99 469 74 447 53 C 425 32 400 16 370 4 C 340 -7 309 -13 275 -13 C 241 -13 209 -7 179 4 C 149 16 124 32 102 53 C 80 74 62 99 50 129 C 37 158 31 190 31 226 Z M 400 224 C 400 244 396 262 390 279 C 383 296 374 311 362 323 C 350 335 337 344 322 351 C 307 357 291 361 275 361 C 258 361 242 357 227 351 C 212 344 199 335 187 323 C 175 311 166 296 160 279 C 153 262 150 244 150 224 C 150 204 153 185 160 169 C 166 152 175 138 187 126 C 199 114 212 104 227 98 C 242 91 258 88 275 88 C 291 88 307 91 322 98 C 337 104 350 114 362 126 C 374 138 383 152 390 169 C 396 185 400 204 400 224 Z M 200 546 C 219 561 240 580 262 602 C 284 624 304 646 320 670 C 324 675 328 679 334 682 C 339 685 343 687 347 687 C 350 687 354 685 359 682 C 364 678 369 674 374 670 C 378 665 382 660 386 655 C 389 650 391 646 391 643 C 391 640 389 637 387 633 C 384 629 381 624 377 620 C 358 600 338 583 318 567 C 297 551 275 537 252 523 L 200 546 Z" unicode="ó" />
<glyph horiz-adv-x="549" d="M 31 226 C 31 262 37 294 50 324 C 62 353 80 378 102 399 C 124 420 149 436 179 448 C 209 460 241 466 275 466 C 309 466 340 460 370 448 C 399 436 425 420 447 399 C 469 378 486 353 499 324 C 511 294 518 262 518 226 C 518 190 511 158 499 129 C 486 99 469 74 447 53 C 425 32 400 16 370 4 C 340 -7 309 -13 275 -13 C 241 -13 209 -7 179 4 C 149 16 124 32 102 53 C 80 74 62 99 50 129 C 37 158 31 190 31 226 Z M 400 224 C 400 244 396 262 390 279 C 383 296 374 311 362 323 C 350 335 337 344 322 351 C 307 357 291 361 275 361 C 258 361 242 357 227 351 C 212 344 199 335 187 323 C 175 311 166 296 160 279 C 153 262 150 244 150 224 C 150 204 153 185 160 169 C 166 152 175 138 187 126 C 199 114 212 104 227 98 C 242 91 258 88 275 88 C 291 88 307 91 322 98 C 337 104 350 114 362 126 C 374 138 383 152 390 169 C 396 185 400 204 400 224 Z M 126 547 C 145 561 166 580 189 602 C 211 624 231 646 247 669 C 251 674 255 678 261 682 C 266 685 271 687 275 687 C 279 687 283 685 289 682 C 295 678 299 674 303 669 C 319 646 338 624 361 602 C 383 580 404 562 424 548 L 366 523 C 349 533 332 543 316 554 C 300 565 285 577 271 589 C 242 564 212 542 180 523 L 126 547 Z" unicode="ô" />
<glyph horiz-adv-x="549" d="M 31 226 C 31 262 37 294 50 324 C 62 353 80 378 102 399 C 124 420 149 436 179 448 C 209 460 241 466 275 466 C 309 466 340 460 370 448 C 399 436 425 420 447 399 C 469 378 486 353 499 324 C 511 294 518 262 518 226 C 518 190 511 158 499 129 C 486 99 469 74 447 53 C 425 32 400 16 370 4 C 340 -7 309 -13 275 -13 C 241 -13 209 -7 179 4 C 149 16 124 32 102 53 C 80 74 62 99 50 129 C 37 158 31 190 31 226 Z M 400 224 C 400 244 396 262 390 279 C 383 296 374 311 362 323 C 350 335 337 344 322 351 C 307 357 291 361 275 361 C 258 361 242 357 227 351 C 212 344 199 335 187 323 C 175 311 166 296 160 279 C 153 262 150 244 150 224 C 150 204 153 185 160 169 C 166 152 175 138 187 126 C 199 114 212 104 227 98 C 242 91 258 88 275 88 C 291 88 307 91 322 98 C 337 104 350 114 362 126 C 374 138 383 152 390 169 C 396 185 400 204 400 224 Z M 122 550 C 127 560 134 571 144 584 C 153 597 163 609 173 621 C 183 633 194 643 204 651 C 214 659 224 663 232 663 C 238 663 246 660 255 656 C 263 652 272 647 280 642 C 288 637 296 633 304 629 C 311 625 317 623 322 623 C 326 623 330 625 336 629 C 341 633 346 637 352 643 C 357 649 362 655 367 661 C 371 667 375 672 379 677 L 437 651 C 431 641 424 629 415 616 C 405 603 395 591 385 579 C 375 567 365 558 355 550 C 345 542 336 538 328 538 C 320 538 312 540 304 544 C 296 548 287 552 279 557 C 271 562 263 567 255 571 C 247 575 241 578 237 578 C 233 578 228 576 223 572 C 217 568 212 563 207 558 C 202 552 197 547 192 541 C 187 535 183 529 180 525 L 122 550 Z" unicode="õ" />
<glyph horiz-adv-x="549" d="M 31 226 C 31 262 37 294 50 324 C 62 353 80 378 102 399 C 124 420 149 436 179 448 C 209 460 241 466 275 466 C 309 466 340 460 370 448 C 399 436 425 420 447 399 C 469 378 486 353 499 324 C 511 294 518 262 518 226 C 518 190 511 158 499 129 C 486 99 469 74 447 53 C 425 32 400 16 370 4 C 340 -7 309 -13 275 -13 C 241 -13 209 -7 179 4 C 149 16 124 32 102 53 C 80 74 62 99 50 129 C 37 158 31 190 31 226 Z M 400 224 C 400 244 396 262 390 279 C 383 296 374 311 362 323 C 350 335 337 344 322 351 C 307 357 291 361 275 361 C 258 361 242 357 227 351 C 212 344 199 335 187 323 C 175 311 166 296 160 279 C 153 262 150 244 150 224 C 150 204 153 185 160 169 C 166 152 175 138 187 126 C 199 114 212 104 227 98 C 242 91 258 88 275 88 C 291 88 307 91 322 98 C 337 104 350 114 362 126 C 374 138 383 152 390 169 C 396 185 400 204 400 224 Z M 155 573 C 155 587 160 599 170 609 C 180 619 191 624 205 624 C 219 624 231 619 241 609 C 251 599 256 587 256 573 C 256 559 251 548 241 538 C 231 528 219 523 205 523 C 191 523 180 528 170 538 C 160 548 155 559 155 573 Z M 295 573 C 295 587 300 599 310 609 C 319 619 331 624 345 624 C 359 624 371 619 381 609 C 391 599 396 587 396 573 C 396 559 391 548 381 538 C 371 528 359 523 345 523 C 331 523 319 528 310 538 C 300 548 295 559 295 573 Z" unicode="ö" />
<glyph horiz-adv-x="449" d="M 164 136 C 164 153 169 167 181 179 C 193 191 207 197 225 197 C 241 197 255 191 267 179 C 279 167 285 153 285 136 C 285 119 279 105 267 93 C 255 81 241 76 225 76 C 207 76 193 81 181 93 C 169 105 164 119 164 136 Z M 164 417 C 164 434 169 448 181 460 C 193 472 207 478 225 478 C 241 478 255 472 267 460 C 279 448 285 434 285 417 C 285 400 279 386 267 374 C 255 362 241 357 225 357 C 207 357 193 362 181 374 C 169 386 164 400 164 417 Z M 415 324 L 415 229 L 34 229 L 34 324 L 415 324 Z" unicode="÷" />
<glyph horiz-adv-x="549" d="M 99 57 C 77 78 61 103 49 131 C 37 159 31 191 31 226 C 31 262 37 294 50 324 C 62 353 80 378 102 399 C 124 420 149 436 179 448 C 209 460 241 466 275 466 C 321 466 363 455 401 434 L 443 485 L 489 447 L 449 398 C 470 376 487 351 499 322 C 511 293 518 261 518 226 C 518 190 511 158 499 129 C 486 99 469 74 447 53 C 425 32 400 16 370 4 C 340 -7 309 -13 275 -13 C 251 -13 228 -10 206 -4 C 184 2 164 10 146 21 L 104 -32 L 58 6 L 99 57 Z M 409 224 C 409 258 400 288 382 314 L 208 98 C 229 85 251 79 275 79 C 293 79 310 82 326 89 C 342 96 357 106 369 119 C 381 132 390 147 398 165 C 405 183 409 202 409 224 Z M 337 354 C 318 364 297 370 275 370 C 257 370 239 366 223 359 C 207 352 193 342 181 329 C 169 316 159 301 152 283 C 144 265 141 245 141 224 C 141 207 143 191 147 177 C 151 163 157 150 165 139 L 337 354 Z" unicode="ø" />
<glyph horiz-adv-x="514" d="M 50 453 L 169 453 L 169 169 C 169 149 175 130 189 114 C 202 98 224 90 255 90 C 284 90 306 98 322 114 C 337 130 345 148 345 170 L 345 453 L 464 453 L 464 0 L 355 0 L 355 60 L 354 60 C 344 38 328 20 306 7 C 283 -5 253 -12 215 -12 C 165 -12 125 2 95 30 C 65 58 50 96 50 146 L 50 453 Z M 152 617 C 148 621 144 626 142 630 C 139 634 138 638 138 642 C 138 645 139 649 143 655 C 146 660 150 665 155 670 C 160 674 165 678 170 682 C 175 685 180 687 184 687 C 187 687 191 685 197 682 C 203 678 208 674 212 669 C 228 646 247 624 270 602 C 292 580 313 561 333 547 L 275 523 C 251 536 230 550 210 565 C 190 580 170 597 152 617 Z" unicode="ù" />
<glyph horiz-adv-x="514" d="M 50 453 L 169 453 L 169 169 C 169 149 175 130 189 114 C 202 98 224 90 255 90 C 284 90 306 98 322 114 C 337 130 345 148 345 170 L 345 453 L 464 453 L 464 0 L 355 0 L 355 60 L 354 60 C 344 38 328 20 306 7 C 283 -5 253 -12 215 -12 C 165 -12 125 2 95 30 C 65 58 50 96 50 146 L 50 453 Z M 185 546 C 204 561 225 580 247 602 C 269 624 289 646 305 670 C 309 675 313 679 319 682 C 324 685 328 687 332 687 C 335 687 339 685 344 682 C 349 678 354 674 359 670 C 363 665 367 660 371 655 C 374 650 376 646 376 643 C 376 640 374 637 372 633 C 369 629 366 624 362 620 C 343 600 323 583 303 567 C 282 551 260 537 237 523 L 185 546 Z" unicode="ú" />
<glyph horiz-adv-x="514" d="M 50 453 L 169 453 L 169 169 C 169 149 175 130 189 114 C 202 98 224 90 255 90 C 284 90 306 98 322 114 C 337 130 345 148 345 170 L 345 453 L 464 453 L 464 0 L 355 0 L 355 60 L 354 60 C 344 38 328 20 306 7 C 283 -5 253 -12 215 -12 C 165 -12 125 2 95 30 C 65 58 50 96 50 146 L 50 453 Z M 109 547 C 128 561 149 580 172 602 C 194 624 214 646 230 669 C 234 674 238 678 244 682 C 249 685 254 687 258 687 C 262 687 266 685 272 682 C 278 678 282 674 286 669 C 302 646 321 624 344 602 C 366 580 387 562 407 548 L 349 523 C 332 533 315 543 299 554 C 283 565 268 577 254 589 C 225 564 195 542 163 523 L 109 547 Z" unicode="û" />
<glyph horiz-adv-x="514" d="M 50 453 L 169 453 L 169 169 C 169 149 175 130 189 114 C 202 98 224 90 255 90 C 284 90 306 98 322 114 C 337 130 345 148 345 170 L 345 453 L 464 453 L 464 0 L 355 0 L 355 60 L 354 60 C 344 38 328 20 306 7 C 283 -5 253 -12 215 -12 C 165 -12 125 2 95 30 C 65 58 50 96 50 146 L 50 453 Z M 138 573 C 138 587 143 599 153 609 C 163 619 174 624 188 624 C 202 624 214 619 224 609 C 234 599 239 587 239 573 C 239 559 234 548 224 538 C 214 528 202 523 188 523 C 174 523 163 528 153 538 C 143 548 138 559 138 573 Z M 278 573 C 278 587 283 599 293 609 C 302 619 314 624 328 624 C 342 624 354 619 364 609 C 374 599 379 587 379 573 C 379 559 374 548 364 538 C 354 528 342 523 328 523 C 314 523 302 528 293 538 C 283 548 278 559 278 573 Z" unicode="ü" />
<glyph horiz-adv-x="478" d="M 0 -162 C 36 -147 70 -125 102 -96 C 134 -67 163 -31 189 13 C 156 79 125 150 95 225 C 65 300 38 376 15 453 L 132 453 C 149 394 168 338 188 284 C 208 230 227 183 246 143 L 248 143 C 256 165 265 188 275 214 C 285 240 294 266 304 293 C 313 320 322 347 330 375 C 338 402 346 428 352 453 L 463 453 C 439 375 415 301 390 231 C 365 161 341 101 319 49 C 300 5 281 -32 261 -64 C 241 -96 221 -123 201 -145 C 181 -167 160 -186 139 -201 C 117 -215 96 -227 74 -236 L 0 -162 Z M 177 546 C 196 561 217 580 239 602 C 261 624 281 646 297 670 C 301 675 305 679 311 682 C 316 685 320 687 324 687 C 327 687 331 685 336 682 C 341 678 346 674 351 670 C 355 665 359 660 363 655 C 366 650 368 646 368 643 C 368 640 366 637 364 633 C 361 629 358 624 354 620 C 335 600 315 583 295 567 C 274 551 252 537 229 523 L 177 546 Z" unicode="ý" />
<glyph horiz-adv-x="543" d="M 171 712 L 171 421 C 181 432 196 442 215 451 C 234 460 258 465 288 465 C 314 465 340 459 367 449 C 393 439 417 424 439 404 C 460 384 477 360 491 331 C 504 301 511 268 511 230 C 511 194 505 161 493 131 C 481 101 464 76 443 54 C 422 32 397 16 369 4 C 340 -7 309 -13 276 -13 C 254 -13 233 -9 213 -3 C 193 3 179 10 171 18 L 171 -231 L 54 -231 L 54 712 L 171 712 Z M 394 224 C 394 244 390 262 384 279 C 377 295 368 309 357 321 C 345 333 332 342 317 349 C 301 355 285 359 268 359 C 244 359 224 354 208 344 C 192 334 179 323 171 312 L 171 127 C 177 119 189 111 205 102 C 221 93 242 89 268 89 C 285 89 301 92 317 99 C 332 105 345 114 357 126 C 368 138 377 152 384 169 C 390 185 394 204 394 224 Z" unicode="þ" />
<glyph horiz-adv-x="478" d="M 0 -162 C 36 -147 70 -125 102 -96 C 134 -67 163 -31 189 13 C 156 79 125 150 95 225 C 65 300 38 376 15 453 L 132 453 C 149 394 168 338 188 284 C 208 230 227 183 246 143 L 248 143 C 256 165 265 188 275 214 C 285 240 294 266 304 293 C 313 320 322 347 330 375 C 338 402 346 428 352 453 L 463 453 C 439 375 415 301 390 231 C 365 161 341 101 319 49 C 300 5 281 -32 261 -64 C 241 -96 221 -123 201 -145 C 181 -167 160 -186 139 -201 C 117 -215 96 -227 74 -236 L 0 -162 Z M 126 570 C 126 584 131 596 141 606 C 151 616 162 621 176 621 C 190 621 202 616 212 606 C 222 596 227 584 227 570 C 227 556 222 545 212 535 C 202 525 190 520 176 520 C 162 520 151 525 141 535 C 131 545 126 556 126 570 Z M 266 570 C 266 584 271 596 281 606 C 290 616 302 621 316 621 C 330 621 342 616 352 606 C 362 596 367 584 367 570 C 367 556 362 545 352 535 C 342 525 330 520 316 520 C 302 520 290 525 281 535 C 271 545 266 556 266 570 Z" unicode="ÿ" />
<glyph horiz-adv-x="233" d="M 177 453 L 177 0 L 56 0 L 56 453 L 177 453 Z" unicode="ı" />
<glyph horiz-adv-x="450" d="M 9 198 L 9 304 L 58 332 L 58 638 L 184 638 L 184 404 L 323 485 L 323 378 L 184 298 L 184 105 L 444 105 L 444 0 L 58 0 L 58 226 L 9 198 Z" unicode="Ł" />
<glyph horiz-adv-x="260" d="M 58 271 L 9 243 L 9 349 L 58 377 L 58 712 L 176 712 L 176 446 L 242 485 L 242 378 L 176 340 L 176 140 C 176 120 181 105 193 93 C 205 81 219 74 237 72 L 180 -18 C 164 -16 149 -13 135 -7 C 120 -1 107 7 96 19 C 84 30 75 44 68 62 C 61 79 58 100 58 125 L 58 271 Z" unicode="ł" />
<glyph horiz-adv-x="838" d="M 36 319 C 36 373 46 420 66 461 C 86 501 113 535 146 563 C 178 591 215 611 255 625 C 295 639 336 646 376 646 C 392 646 407 645 422 644 C 436 642 450 640 464 638 L 800 638 L 800 533 L 570 533 L 570 373 L 761 373 L 761 267 L 570 267 L 570 105 L 833 105 L 833 0 L 467 0 C 454 -2 440 -3 425 -5 C 409 -6 393 -7 376 -7 C 335 -7 294 0 254 13 C 214 27 177 47 145 75 C 113 102 86 136 66 177 C 46 217 36 265 36 319 Z M 448 531 C 438 532 429 533 419 534 C 409 535 400 536 390 536 C 360 536 332 531 305 521 C 277 511 253 497 232 479 C 211 460 194 437 182 410 C 169 382 163 351 163 317 C 163 282 169 251 182 224 C 194 196 211 173 232 155 C 253 136 278 122 306 112 C 334 102 363 98 394 98 C 412 98 430 99 448 101 L 448 531 Z" unicode="Œ" />
<glyph horiz-adv-x="858" d="M 31 226 C 31 261 37 293 49 323 C 61 353 79 378 101 399 C 123 420 148 436 178 448 C 207 460 239 466 273 466 C 291 466 309 464 328 460 C 346 456 364 450 380 443 C 396 435 411 426 424 415 C 437 403 448 390 456 376 C 462 390 472 402 485 414 C 497 425 512 434 528 442 C 544 450 560 456 578 460 C 596 464 613 466 629 466 C 660 466 688 461 713 451 C 737 441 758 427 775 411 C 792 394 805 375 814 354 C 823 332 828 311 828 289 C 828 283 827 276 827 270 C 826 264 825 258 824 253 L 766 195 L 519 195 C 520 183 524 170 531 158 C 538 146 548 134 560 124 C 572 113 587 104 605 98 C 623 91 643 88 666 88 C 692 88 717 91 739 98 C 761 105 779 114 795 124 L 783 16 C 766 7 746 0 723 -5 C 700 -10 674 -13 644 -13 C 626 -13 608 -11 590 -7 C 572 -3 554 1 538 9 C 521 17 506 26 492 38 C 478 50 467 64 459 80 C 439 46 412 22 378 8 C 344 -5 309 -13 273 -13 C 239 -13 207 -7 178 4 C 148 16 123 32 101 53 C 79 74 61 99 49 129 C 37 158 31 190 31 226 Z M 401 225 C 401 245 397 263 391 280 C 384 296 375 311 363 323 C 351 335 338 344 323 351 C 308 357 292 361 276 361 C 259 361 243 357 228 351 C 212 344 199 335 188 323 C 176 311 167 296 160 280 C 153 263 150 245 150 225 C 150 205 153 186 160 170 C 167 153 176 139 188 127 C 199 115 212 105 228 99 C 243 92 259 89 276 89 C 292 89 308 92 323 99 C 338 105 351 115 363 127 C 375 139 384 153 391 170 C 397 186 401 205 401 225 Z M 712 281 C 712 283 713 287 713 292 C 713 301 711 310 707 320 C 703 330 697 338 690 346 C 683 354 675 360 665 365 C 655 369 643 372 631 372 C 605 372 582 363 561 346 C 540 328 527 307 522 281 L 712 281 Z" unicode="œ" />
<glyph horiz-adv-x="488" d="M 43 159 C 67 141 95 126 126 115 C 157 104 189 99 223 99 C 254 99 279 106 298 120 C 316 134 326 154 326 178 C 326 202 318 221 304 235 C 289 249 265 262 231 272 C 113 306 54 371 54 465 C 54 489 58 512 67 534 C 76 556 89 575 107 592 C 124 608 146 621 172 631 C 198 641 228 646 262 646 C 296 646 326 642 352 634 C 378 626 398 618 411 610 L 387 507 C 375 514 357 522 335 530 C 312 538 289 542 266 542 C 236 542 213 535 198 521 C 182 507 175 491 175 472 C 175 452 182 437 197 425 C 211 413 233 402 263 393 C 291 383 317 373 341 361 C 364 349 384 335 400 319 C 416 303 429 284 438 262 C 447 240 452 216 452 188 C 452 129 433 82 395 46 C 357 10 300 -7 226 -7 C 190 -7 157 -2 127 6 C 97 14 73 24 56 36 L 43 159 Z M 224 716 C 205 745 183 772 159 798 C 134 824 110 846 86 864 L 155 894 C 172 882 188 871 203 859 C 217 847 231 834 244 821 C 256 834 270 847 285 859 C 299 871 315 882 333 894 L 401 864 C 377 846 352 825 328 799 C 303 773 281 745 263 716 C 259 708 252 705 244 705 C 235 705 228 708 224 716 Z" unicode="Š" />
<glyph horiz-adv-x="383" d="M 36 137 C 54 123 75 111 100 101 C 125 91 151 87 177 87 C 194 87 208 91 218 99 C 228 107 234 116 234 128 C 234 140 229 150 221 158 C 212 166 199 172 182 178 C 138 192 103 211 79 233 C 55 255 43 286 43 324 C 43 365 57 398 87 423 C 117 448 155 461 203 461 C 229 461 254 457 278 451 C 302 445 319 439 329 433 L 308 341 C 297 347 283 353 267 359 C 250 365 231 368 210 368 C 194 368 182 364 173 357 C 164 349 160 340 160 329 C 160 317 164 308 172 302 C 180 295 194 289 212 284 C 260 268 295 249 319 225 C 342 201 354 169 354 131 C 354 112 350 94 343 77 C 336 60 325 45 311 33 C 297 20 279 10 258 3 C 236 -4 211 -8 183 -8 C 154 -8 129 -5 107 1 C 85 7 66 14 49 24 L 36 137 Z M 171 531 C 155 555 136 578 115 600 C 94 622 73 640 53 656 L 112 682 C 127 672 141 662 153 652 C 165 642 177 631 188 620 C 198 631 210 642 222 652 C 234 662 248 672 263 682 L 321 656 C 300 640 279 622 258 600 C 237 578 219 555 204 531 C 199 524 194 521 188 521 C 180 521 175 524 171 531 Z" unicode="š" />
<glyph horiz-adv-x="635" d="M 256 286 C 165 393 85 510 15 638 L 152 638 C 196 552 252 469 320 388 L 322 388 C 387 468 443 552 490 638 L 618 638 C 584 574 547 513 507 455 C 467 397 425 342 379 288 L 379 0 L 256 0 L 256 286 Z M 172 765 C 172 781 177 795 189 807 C 201 819 215 825 231 825 C 247 825 261 819 273 807 C 285 795 291 781 291 765 C 291 749 285 735 273 723 C 261 711 247 706 231 706 C 215 706 201 711 189 723 C 177 735 172 749 172 765 Z M 337 765 C 337 781 342 795 354 807 C 366 819 380 825 396 825 C 412 825 426 819 438 807 C 450 795 456 781 456 765 C 456 749 450 735 438 723 C 426 711 412 706 396 706 C 380 706 366 711 354 723 C 342 735 337 749 337 765 Z" unicode="Ÿ" />
<glyph horiz-adv-x="539" d="M 227 369 C 241 395 258 422 276 452 C 294 482 310 508 325 532 L 324 533 L 52 533 L 52 638 L 492 638 L 492 608 L 299 268 C 283 241 267 213 250 184 C 232 155 216 129 202 106 L 203 105 L 503 105 L 503 0 L 36 0 L 36 30 L 227 369 Z M 251 716 C 232 745 210 772 186 798 C 161 824 137 846 113 864 L 182 894 C 199 882 215 871 230 859 C 244 847 258 834 271 821 C 283 834 297 847 312 859 C 326 871 342 882 360 894 L 428 864 C 404 846 379 825 355 799 C 330 773 308 745 290 716 C 286 708 279 705 271 705 C 262 705 255 708 251 716 Z" unicode="Ž" />
<glyph horiz-adv-x="433" d="M 158 244 C 168 261 179 280 191 300 C 203 320 214 339 225 355 L 224 357 L 47 357 L 47 453 L 385 453 L 385 430 L 257 208 C 246 190 235 172 224 154 C 213 136 202 117 190 98 L 191 97 L 402 97 L 402 0 L 31 0 L 31 23 L 158 244 Z M 201 531 C 185 555 166 578 145 600 C 124 622 103 640 83 656 L 142 682 C 157 672 171 662 183 652 C 195 642 207 631 218 620 C 228 631 240 642 252 652 C 264 662 278 672 293 682 L 351 656 C 330 640 309 622 288 600 C 267 578 249 555 234 531 C 229 524 224 521 218 521 C 210 521 205 524 201 531 Z" unicode="ž" />
<glyph horiz-adv-x="443" d="M -58 -160 C -27 -152 0 -138 25 -116 C 49 -94 65 -64 72 -26 L 118 241 L 45 241 L 45 307 L 130 307 L 155 451 C 161 484 171 513 185 538 C 199 563 216 584 237 601 C 257 618 281 631 307 639 C 333 647 360 652 390 652 C 401 652 412 651 422 650 C 432 649 441 648 451 647 L 428 547 C 413 550 399 552 385 552 C 323 552 285 515 272 443 L 248 307 L 354 307 L 339 241 L 236 241 L 187 -36 C 181 -64 173 -90 161 -112 C 149 -134 136 -154 120 -170 C 104 -186 87 -200 69 -210 C 51 -220 33 -228 15 -232 L -58 -160 Z" unicode="ƒ" />
<glyph horiz-adv-x="210" d="M 177 643 C 162 626 149 607 139 585 C 129 563 122 543 119 523 C 135 520 149 512 160 499 C 171 485 177 470 177 452 C 177 432 169 416 155 402 C 141 388 124 382 105 382 C 85 382 68 389 54 403 C 40 417 33 433 33 453 C 33 468 36 485 42 503 C 48 521 57 539 67 557 C 77 575 89 593 101 609 C 113 626 126 640 138 650 L 177 643 Z" unicode="ʻ" />
<glyph horiz-adv-x="500" d="M 75 535 C 97 552 122 574 148 600 C 174 626 197 652 217 679 C 221 685 227 690 233 694 C 239 698 244 700 250 700 C 255 700 261 698 267 694 C 273 690 278 685 283 679 C 302 652 325 626 351 600 C 377 574 401 553 425 536 L 357 507 C 337 518 318 530 299 543 C 279 556 261 570 245 585 C 228 571 211 557 193 544 C 175 530 157 518 138 507 L 75 535 Z" unicode="ˆ" />
<glyph horiz-adv-x="500" d="M 231 516 C 212 545 190 572 166 598 C 141 624 117 646 93 664 L 162 694 C 179 682 195 671 210 659 C 224 647 238 634 251 621 C 263 634 277 647 292 659 C 306 671 322 682 340 694 L 408 664 C 384 646 359 625 335 599 C 310 573 288 545 270 516 C 266 508 259 505 251 505 C 242 505 235 508 231 516 Z" unicode="ˇ" />
<glyph horiz-adv-x="500" d="M 350 601 L 350 520 L 153 520 L 153 601 L 350 601 Z" unicode="ˉ" />
<glyph horiz-adv-x="500" d="M 172 614 C 180 609 188 605 196 602 C 203 598 211 595 220 593 C 229 591 239 590 250 590 C 260 590 269 591 279 593 C 288 595 296 598 304 602 C 312 605 319 609 327 614 L 382 557 C 370 547 358 539 344 532 C 332 525 318 519 302 514 C 286 509 268 507 250 507 C 230 507 213 509 197 514 C 181 519 168 525 156 532 C 142 539 129 547 118 557 L 172 614 Z" unicode="˘" />
<glyph horiz-adv-x="500" d="M 190 567 C 190 583 195 596 207 608 C 219 620 233 626 250 626 C 266 626 279 620 291 608 C 303 596 309 583 309 567 C 309 550 303 536 291 524 C 279 512 266 507 250 507 C 233 507 219 512 207 524 C 195 536 190 550 190 567 Z" unicode="˙" />
<glyph horiz-adv-x="500" d="M 130 613 C 130 629 133 644 139 659 C 145 673 154 686 165 697 C 176 707 189 716 204 722 C 218 728 234 732 250 732 C 266 732 281 728 296 722 C 310 716 323 707 334 697 C 345 686 354 673 360 659 C 366 644 370 629 370 613 C 370 597 366 581 360 567 C 354 552 345 539 334 529 C 323 518 310 509 296 503 C 281 497 266 494 250 494 C 234 494 218 497 204 503 C 189 509 176 518 165 529 C 154 539 145 552 139 567 C 133 581 130 597 130 613 Z M 296 613 C 296 627 291 639 283 649 C 274 658 263 663 250 663 C 236 663 225 658 217 649 C 208 639 204 627 204 613 C 204 598 208 586 217 577 C 225 567 236 563 250 563 C 263 563 274 567 283 577 C 291 586 296 598 296 613 Z" unicode="˚" />
<glyph horiz-adv-x="500" d="M 159 -138 C 159 -122 161 -108 167 -94 C 173 -80 180 -68 190 -56 C 200 -44 211 -33 223 -24 C 235 -14 248 -6 262 0 L 346 0 C 330 -7 316 -15 302 -25 C 288 -34 275 -44 265 -55 C 254 -66 245 -78 239 -90 C 233 -102 230 -115 230 -129 C 230 -142 234 -153 244 -161 C 254 -169 267 -173 284 -173 C 308 -173 329 -167 347 -156 L 336 -219 C 320 -229 298 -234 268 -234 C 237 -234 211 -225 190 -209 C 169 -192 159 -168 159 -138 Z" unicode="˛" />
<glyph horiz-adv-x="500" d="M 70 539 C 76 550 85 563 96 579 C 106 594 118 608 130 622 C 142 636 155 647 167 657 C 179 667 189 672 199 672 C 207 672 216 669 226 664 C 236 659 246 654 256 648 C 266 642 275 637 284 632 C 292 627 299 625 305 625 C 310 625 316 627 322 631 C 328 635 335 641 341 648 C 347 654 352 661 358 669 C 364 676 369 682 373 688 L 441 658 C 434 646 425 633 415 618 C 404 602 393 588 381 574 C 369 560 356 549 344 539 C 332 529 321 525 313 525 C 305 525 296 527 286 532 C 276 537 266 542 256 548 C 246 554 236 559 228 564 C 219 569 212 572 206 572 C 200 572 194 569 188 565 C 182 560 176 554 170 548 C 164 542 158 535 152 528 C 146 520 142 514 138 509 L 70 539 Z" unicode="˜" />
<glyph horiz-adv-x="500" d="M 58 537 C 81 554 106 575 132 601 C 158 627 180 653 200 681 C 204 687 210 692 216 696 C 222 700 228 702 232 702 C 236 702 241 700 247 696 C 253 692 259 687 265 681 C 271 675 276 670 280 664 C 284 658 286 653 286 649 C 286 641 280 631 269 620 C 247 597 225 577 201 559 C 177 541 151 524 124 508 L 58 537 Z M 236 537 C 259 554 283 575 309 601 C 335 627 357 653 377 681 C 381 687 387 692 394 696 C 400 700 406 702 410 702 C 414 702 419 700 425 696 C 431 692 437 687 443 681 C 448 675 453 670 457 664 C 461 658 463 653 463 649 C 463 641 457 631 446 620 C 424 597 402 577 378 559 C 354 541 329 524 302 508 L 236 537 Z" unicode="˝" />
<glyph horiz-adv-x="329" d="M 293 324 L 293 229 L 36 229 L 36 324 L 293 324 Z" unicode="‐" />
<glyph horiz-adv-x="329" d="M 293 324 L 293 229 L 36 229 L 36 324 L 293 324 Z" unicode="‑" />
<glyph horiz-adv-x="500" d="M 502 264 L 502 188 L 0 188 L 0 264 L 502 264 Z" unicode="–" />
<glyph horiz-adv-x="1000" d="M 1002 264 L 1002 188 L 0 188 L 0 264 L 1002 264 Z" unicode="—" />
<glyph horiz-adv-x="210" d="M 177 643 C 162 626 149 607 139 585 C 129 563 122 543 119 523 C 135 520 149 512 160 499 C 171 485 177 470 177 452 C 177 432 169 416 155 402 C 141 388 124 382 105 382 C 85 382 68 389 54 403 C 40 417 33 433 33 453 C 33 468 36 485 42 503 C 48 521 57 539 67 557 C 77 575 89 593 101 609 C 113 626 126 640 138 650 L 177 643 Z" unicode="‘" />
<glyph horiz-adv-x="210" d="M 33 389 C 47 406 60 425 70 447 C 80 469 87 489 91 509 C 74 512 60 520 49 534 C 38 547 33 563 33 581 C 33 600 40 616 54 630 C 68 644 85 651 105 651 C 124 651 141 644 155 630 C 169 616 177 599 177 580 C 177 564 173 547 167 529 C 161 511 152 493 142 475 C 132 457 120 439 108 423 C 96 406 84 392 72 382 L 33 389 Z" unicode="’" />
<glyph horiz-adv-x="210" d="M 33 -133 C 47 -115 60 -96 70 -74 C 80 -52 87 -32 91 -13 C 74 -9 60 -1 49 12 C 38 25 33 41 33 59 C 33 78 40 94 54 108 C 68 122 85 129 105 129 C 124 129 141 122 155 108 C 169 94 177 77 177 58 C 177 42 173 25 167 7 C 161 -10 152 -29 142 -47 C 132 -65 120 -82 108 -99 C 96 -115 84 -129 72 -140 L 33 -133 Z" unicode="‚" />
<glyph horiz-adv-x="398" d="M 366 643 C 351 626 338 607 328 585 C 318 563 311 543 308 523 C 324 520 338 512 349 499 C 360 485 366 470 366 452 C 366 432 358 416 344 402 C 330 388 313 382 294 382 C 274 382 257 389 243 403 C 229 417 222 433 222 453 C 222 468 225 485 231 503 C 237 521 246 539 256 557 C 266 575 278 593 290 609 C 302 626 315 640 327 650 L 366 643 Z M 177 643 C 162 626 149 607 139 585 C 129 563 122 543 119 523 C 135 520 149 512 160 499 C 171 485 177 470 177 452 C 177 432 169 416 155 402 C 141 388 124 382 105 382 C 85 382 68 389 54 403 C 40 417 33 433 33 453 C 33 468 36 485 42 503 C 48 521 57 539 67 557 C 77 575 89 593 101 609 C 113 626 126 640 138 650 L 177 643 Z" unicode="“" />
<glyph horiz-adv-x="398" d="M 33 389 C 47 406 60 425 70 447 C 80 469 87 489 91 509 C 74 512 60 520 49 534 C 38 547 33 563 33 581 C 33 600 40 616 54 630 C 68 644 85 651 105 651 C 124 651 141 644 155 630 C 169 616 177 599 177 580 C 177 564 173 547 167 529 C 161 511 152 493 142 475 C 132 457 120 439 108 423 C 96 406 84 392 72 382 L 33 389 Z M 222 389 C 236 406 249 425 259 447 C 269 469 276 489 280 509 C 263 512 249 520 238 534 C 227 547 222 563 222 581 C 222 600 229 616 243 630 C 257 644 274 651 294 651 C 313 651 330 644 344 630 C 358 616 366 599 366 580 C 366 564 362 547 356 529 C 350 511 341 493 331 475 C 321 457 309 439 297 423 C 285 406 273 392 261 382 L 222 389 Z" unicode="”" />
<glyph horiz-adv-x="399" d="M 33 -133 C 47 -115 60 -96 70 -74 C 80 -52 87 -32 91 -13 C 74 -9 60 -1 49 12 C 38 25 33 41 33 59 C 33 78 40 94 54 108 C 68 122 85 129 105 129 C 124 129 141 122 155 108 C 169 94 177 77 177 58 C 177 42 173 25 167 7 C 161 -10 152 -29 142 -47 C 132 -65 120 -82 108 -99 C 96 -115 84 -129 72 -140 L 33 -133 Z M 222 -133 C 236 -115 249 -96 259 -74 C 269 -52 276 -32 280 -13 C 263 -9 249 -1 238 12 C 227 25 222 41 222 59 C 222 78 229 94 243 108 C 257 122 274 129 294 129 C 313 129 330 122 344 108 C 358 94 366 77 366 58 C 366 42 362 25 356 7 C 350 -10 341 -29 331 -47 C 321 -65 309 -82 297 -99 C 285 -115 273 -129 261 -140 L 222 -133 Z" unicode="„" />
<glyph horiz-adv-x="414" d="M 36 348 L 36 462 L 151 444 L 148 557 L 267 557 L 265 444 L 378 462 L 378 348 L 261 366 L 244 -231 L 171 -231 L 154 366 L 36 348 Z" unicode="†" />
<glyph horiz-adv-x="414" d="M 36 -136 L 36 -22 L 154 -40 L 159 163 L 154 366 L 36 348 L 36 462 L 151 444 L 148 557 L 267 557 L 264 444 L 378 462 L 378 348 L 261 366 L 256 163 L 261 -40 L 378 -22 L 378 -136 L 264 -118 L 267 -231 L 148 -231 L 151 -118 L 36 -136 Z" unicode="‡" />
<glyph horiz-adv-x="393" d="M 36 277 C 36 300 40 321 48 341 C 56 360 68 376 82 390 C 96 404 113 414 133 422 C 153 430 174 434 197 434 C 219 434 239 430 259 422 C 279 414 296 404 310 390 C 324 376 336 360 344 341 C 352 321 357 300 357 277 C 357 253 352 232 344 213 C 336 193 324 177 310 163 C 296 149 279 139 259 131 C 239 123 219 120 197 120 C 175 120 154 123 134 131 C 114 139 97 149 83 163 C 68 177 56 193 48 213 C 40 232 36 253 36 277 Z" unicode="•" />
<glyph horiz-adv-x="627" d="M 34 58 C 34 78 40 95 54 109 C 68 123 85 130 105 130 C 124 130 141 123 155 109 C 169 95 176 78 176 58 C 176 38 169 22 155 8 C 141 -6 124 -13 105 -13 C 85 -13 68 -6 54 8 C 40 22 34 38 34 58 Z M 242 58 C 242 78 248 95 262 109 C 276 123 293 130 313 130 C 332 130 349 123 363 109 C 377 95 384 78 384 58 C 384 38 377 22 363 8 C 349 -6 332 -13 313 -13 C 293 -13 276 -6 262 8 C 248 22 242 38 242 58 Z M 451 58 C 451 78 457 95 471 109 C 485 123 502 130 522 130 C 541 130 558 123 572 109 C 586 95 593 78 593 58 C 593 38 586 22 572 8 C 558 -6 541 -13 522 -13 C 502 -13 485 -6 471 8 C 457 22 451 38 451 58 Z" unicode="…" />
<glyph horiz-adv-x="1063" d="M 31 507 C 31 528 34 548 42 566 C 50 584 60 599 73 612 C 86 624 102 634 120 641 C 138 648 157 652 178 652 C 198 652 218 648 236 641 C 254 634 269 624 282 612 C 295 599 305 584 313 566 C 321 548 325 528 325 507 C 325 485 321 465 313 447 C 305 429 295 413 282 400 C 269 387 254 377 236 370 C 218 363 198 360 178 360 C 157 360 138 363 120 370 C 102 377 86 387 73 400 C 60 413 50 429 42 447 C 34 465 31 485 31 507 Z M 239 507 C 239 527 233 542 221 554 C 209 566 194 572 178 572 C 161 572 147 566 135 554 C 123 542 117 527 117 507 C 117 487 122 470 134 458 C 146 445 160 439 178 439 C 194 439 209 445 221 457 C 233 469 239 486 239 507 Z M 377 134 C 377 155 380 174 388 192 C 395 210 405 225 419 238 C 432 251 447 261 465 268 C 483 275 502 279 524 279 C 544 279 563 275 581 268 C 599 261 614 251 628 238 C 641 225 651 210 659 192 C 667 174 671 155 671 134 C 671 112 667 92 659 74 C 651 56 641 40 628 27 C 615 14 600 4 582 -2 C 564 -9 544 -13 524 -13 C 503 -13 484 -9 466 -2 C 448 4 432 14 419 27 C 406 40 396 56 388 74 C 380 92 377 112 377 134 Z M 585 134 C 585 154 579 169 567 181 C 555 193 540 199 524 199 C 507 199 493 193 481 181 C 469 169 463 154 463 134 C 463 114 468 97 480 85 C 492 72 506 66 524 66 C 540 66 555 72 567 84 C 579 96 585 113 585 134 Z M 737 134 C 737 155 740 174 748 192 C 756 210 766 225 779 238 C 792 251 808 261 826 268 C 844 275 863 279 884 279 C 904 279 924 275 942 268 C 960 261 975 251 988 238 C 1001 225 1011 210 1019 192 C 1027 174 1031 155 1031 134 C 1031 112 1027 92 1019 74 C 1011 56 1001 40 988 27 C 975 14 960 4 942 -2 C 924 -9 904 -13 884 -13 C 863 -13 844 -9 826 -2 C 808 4 792 14 779 27 C 766 40 756 56 748 74 C 740 92 737 112 737 134 Z M 945 134 C 945 154 939 169 927 181 C 915 193 900 199 884 199 C 867 199 853 193 841 181 C 829 169 823 154 823 134 C 823 114 828 97 840 85 C 852 72 866 66 884 66 C 900 66 915 72 927 84 C 939 96 945 113 945 134 Z M 582 660 L 635 617 L 119 -21 L 67 22 L 582 660 Z" unicode="‰" />
<glyph horiz-adv-x="215" d="M 34 195 C 28 199 23 204 20 210 C 16 216 15 221 15 226 C 15 230 16 236 20 242 C 24 248 28 253 34 257 C 58 275 82 295 106 319 C 130 343 150 365 166 387 L 182 351 C 173 328 164 306 154 286 C 144 265 134 245 123 226 C 134 206 144 186 154 166 C 163 145 172 123 182 101 L 166 65 C 150 86 130 109 106 133 C 82 157 58 177 34 195 Z" unicode="‹" />
<glyph horiz-adv-x="215" d="M 33 101 C 41 123 50 145 60 166 C 69 186 80 206 92 226 C 80 245 69 265 60 286 C 50 306 41 328 33 351 L 49 387 C 64 365 84 343 108 319 C 132 295 156 275 181 257 C 186 253 190 248 194 242 C 198 236 200 230 200 226 C 200 221 198 216 195 210 C 191 204 187 199 181 195 C 156 177 132 157 108 133 C 84 109 64 86 49 65 L 33 101 Z" unicode="›" />
<glyph horiz-adv-x="631" d="M 547 660 L 599 617 L 84 -21 L 31 22 L 547 660 Z" unicode="⁄" />
<glyph horiz-adv-x="497" d="M 9 229 L 9 294 L 80 294 C 80 298 79 302 79 306 C 79 310 79 314 79 319 C 79 324 79 329 79 334 C 79 338 80 343 80 348 L 9 348 L 9 413 L 88 413 C 95 451 107 485 123 515 C 139 545 158 569 180 589 C 202 609 226 624 252 634 C 278 644 306 649 334 649 C 363 649 388 646 408 641 C 428 635 445 628 461 619 L 440 524 C 414 540 384 549 349 549 C 316 549 287 538 261 516 C 235 494 217 460 206 413 L 369 413 L 356 348 L 197 348 C 196 342 196 337 196 333 C 196 328 196 323 196 318 C 196 314 196 310 196 306 C 196 302 197 298 197 294 L 360 294 L 346 229 L 205 229 C 216 179 235 144 263 122 C 291 100 321 89 354 89 C 391 89 422 96 446 111 L 434 9 C 422 2 408 -2 390 -6 C 372 -9 353 -11 334 -11 C 306 -11 278 -6 252 4 C 225 14 201 29 179 49 C 157 69 138 94 122 124 C 106 154 94 189 87 229 L 9 229 Z" unicode="€" />
<glyph horiz-adv-x="471" d="M 30 449 C 30 478 35 505 45 530 C 55 555 70 577 89 595 C 107 613 129 627 154 637 C 178 647 205 652 235 652 C 263 652 290 647 315 637 C 339 627 361 613 380 595 C 398 577 413 555 424 530 C 434 505 440 478 440 449 C 440 419 434 392 424 367 C 413 342 398 321 380 303 C 361 285 339 271 315 261 C 290 251 263 246 235 246 C 205 246 178 251 154 261 C 129 271 107 285 89 303 C 70 321 55 342 45 367 C 35 392 30 419 30 449 Z M 393 449 C 393 472 389 493 381 513 C 373 533 361 550 347 564 C 333 578 316 589 297 597 C 277 605 257 609 235 609 C 212 609 191 605 172 597 C 152 589 135 578 121 564 C 107 550 96 533 88 513 C 80 493 76 472 76 449 C 76 425 80 404 88 384 C 96 364 107 348 121 334 C 135 320 152 309 172 301 C 191 293 212 290 235 290 C 257 290 277 294 297 302 C 316 310 333 321 347 335 C 361 349 373 365 381 385 C 389 404 393 425 393 449 Z M 248 570 C 258 570 268 568 278 565 C 288 561 297 556 305 550 C 313 543 319 535 324 526 C 328 517 331 507 331 495 C 331 471 322 452 306 439 C 289 426 270 420 250 420 L 224 420 L 224 328 L 172 328 L 172 570 L 248 570 Z M 243 464 C 253 464 262 466 269 472 C 275 478 279 485 279 495 C 279 505 275 512 269 518 C 262 523 253 526 243 526 L 224 526 L 224 464 L 243 464 Z" unicode="℗" />
<glyph horiz-adv-x="426" d="M 227 638 L 287 522 L 345 638 L 378 638 L 393 453 L 350 453 L 342 548 L 293 453 L 276 453 L 229 546 L 222 453 L 179 453 L 194 638 L 227 638 Z M 20 599 L 20 638 L 166 638 L 166 598 L 114 598 L 114 453 L 71 453 L 71 599 L 20 599 Z" unicode="™" />
<glyph horiz-adv-x="413" d="M 364 317 L 364 231 L 49 231 L 49 317 L 364 317 Z" unicode="−" />
<glyph horiz-adv-x="631" d="M 547 660 L 599 617 L 84 -21 L 31 22 L 547 660 Z" unicode="∕" />
<glyph horiz-adv-x="210" d="M 34 270 C 34 290 40 307 54 321 C 68 335 85 342 105 342 C 124 342 141 335 155 321 C 169 307 176 290 176 270 C 176 250 169 234 155 220 C 141 206 124 199 105 199 C 85 199 68 206 54 220 C 40 234 34 250 34 270 Z" unicode="∙" />
<glyph horiz-adv-x="584" d="M 12 218 L 30 319 L 147 319 L 186 215 C 189 206 192 198 195 190 C 197 182 200 173 203 163 L 205 163 C 213 189 224 219 236 253 C 248 287 259 318 271 346 L 416 712 L 573 712 L 573 616 L 486 616 L 237 -6 L 165 -6 L 76 218 L 12 218 Z" unicode="√" />
<glyph horiz-adv-x="451" d="M 34 202 C 48 217 65 229 85 238 C 105 247 127 252 153 252 C 169 252 183 250 195 246 C 207 242 219 238 230 234 C 242 228 254 223 266 218 C 277 213 290 211 306 211 C 326 211 343 215 359 223 C 374 231 388 242 400 256 L 417 166 C 403 150 386 138 366 130 C 346 121 324 117 299 117 C 283 117 268 118 256 122 C 244 126 232 130 221 135 C 207 140 195 145 183 150 C 171 155 159 158 146 158 C 126 158 109 153 94 145 C 78 137 64 126 52 113 L 34 202 Z M 34 386 C 48 401 65 413 85 423 C 105 432 127 437 153 437 C 169 437 183 435 195 431 C 207 427 219 423 230 419 C 242 413 254 408 266 403 C 277 398 290 396 306 396 C 326 396 343 400 359 408 C 374 416 388 427 400 441 L 417 351 C 403 335 386 323 366 314 C 346 305 324 301 299 301 C 283 301 268 302 256 306 C 244 310 232 314 221 319 C 207 324 195 329 183 334 C 171 339 159 342 146 342 C 126 342 109 337 94 329 C 78 321 64 310 52 297 L 34 386 Z" unicode="≈" />
<glyph horiz-adv-x="453" d="M 36 343 L 417 471 L 417 372 L 120 277 L 417 185 L 417 86 L 36 211 L 36 343 Z M 417 59 L 417 -24 L 36 -24 L 36 59 L 417 59 Z" unicode="≤" />
<glyph horiz-adv-x="453" d="M 333 277 L 36 372 L 36 471 L 417 343 L 417 211 L 36 86 L 36 185 L 333 277 Z M 417 59 L 417 -24 L 36 -24 L 36 59 L 417 59 Z" unicode="≥" />
<glyph horiz-adv-x="559" d="M 275 499 L 498 277 L 275 55 L 53 277 L 275 499 Z M 275 399 L 153 277 L 275 154 L 398 277 L 275 399 Z" unicode="◊" />
<glyph horiz-adv-x="591" d="M 506 453 L 506 209 L 562 153 C 562 134 556 120 544 111 C 532 101 519 97 506 97 L 506 0 L 34 0 L 34 453 L 506 453 Z M 477 109 L 97 288 C 84 294 73 303 63 315 L 63 29 L 477 29 L 477 109 Z M 63 384 C 63 362 70 344 85 329 C 100 314 118 307 140 307 C 161 307 179 314 195 329 C 210 344 218 362 218 384 L 63 384 Z M 329 384 L 477 236 L 477 384 L 329 384 Z" unicode="" />
</font>
</defs>
</svg>
